<svg xmlns="http://www.w3.org/2000/svg" xmlns:xlink="http://www.w3.org/1999/xlink" width="1152" height="768" version="1.1" viewBox="0 0 864 576"><defs><style type="text/css">*{stroke-linecap:butt;stroke-linejoin:round}</style></defs><g id="figure_1"><g id="patch_1"><path d="M 0 576 L 864 576 L 864 0 L 0 0 z" style="fill:#fff"/></g><g id="axes_1"><g id="patch_2"><path d="M 108 258.198261 L 304.941176 258.198261 L 304.941176 69.12 L 108 69.12 z" style="fill:#fff"/></g><g id="matplotlib.axis_1"><g id="xtick_1"><g id="line2d_1"><defs><path id="m6ce33624d3" d="M 0 0 L 0 3.5" style="stroke:#000;stroke-width:.8"/></defs><g><use style="stroke:#000;stroke-width:.8" x="108" y="258.198" xlink:href="#m6ce33624d3"/></g></g><g id="text_1"><defs><path id="DejaVuSans-48" d="M 31.78125 66.40625 Q 24.171875 66.40625 20.328125 58.90625 Q 16.5 51.421875 16.5 36.375 Q 16.5 21.390625 20.328125 13.890625 Q 24.171875 6.390625 31.78125 6.390625 Q 39.453125 6.390625 43.28125 13.890625 Q 47.125 21.390625 47.125 36.375 Q 47.125 51.421875 43.28125 58.90625 Q 39.453125 66.40625 31.78125 66.40625 z M 31.78125 74.21875 Q 44.046875 74.21875 50.515625 64.515625 Q 56.984375 54.828125 56.984375 36.375 Q 56.984375 17.96875 50.515625 8.265625 Q 44.046875 -1.421875 31.78125 -1.421875 Q 19.53125 -1.421875 13.0625 8.265625 Q 6.59375 17.96875 6.59375 36.375 Q 6.59375 54.828125 13.0625 64.515625 Q 19.53125 74.21875 31.78125 74.21875 z"/></defs><g transform="translate(105.455 273.377011)scale(0.08 -0.08)"><use xlink:href="#DejaVuSans-48"/></g></g></g><g id="xtick_2"><g id="line2d_2"><g><use style="stroke:#000;stroke-width:.8" x="188.384" y="258.198" xlink:href="#m6ce33624d3"/></g></g><g id="text_2"><defs><path id="DejaVuSans-50" d="M 19.1875 8.296875 L 53.609375 8.296875 L 53.609375 0 L 7.328125 0 L 7.328125 8.296875 Q 12.9375 14.109375 22.625 23.890625 Q 32.328125 33.6875 34.8125 36.53125 Q 39.546875 41.84375 41.421875 45.53125 Q 43.3125 49.21875 43.3125 52.78125 Q 43.3125 58.59375 39.234375 62.25 Q 35.15625 65.921875 28.609375 65.921875 Q 23.96875 65.921875 18.8125 64.3125 Q 13.671875 62.703125 7.8125 59.421875 L 7.8125 69.390625 Q 13.765625 71.78125 18.9375 73 Q 24.125 74.21875 28.421875 74.21875 Q 39.75 74.21875 46.484375 68.546875 Q 53.21875 62.890625 53.21875 53.421875 Q 53.21875 48.921875 51.53125 44.890625 Q 49.859375 40.875 45.40625 35.40625 Q 44.1875 33.984375 37.640625 27.21875 Q 31.109375 20.453125 19.1875 8.296875 z"/></defs><g transform="translate(183.294154 273.377011)scale(0.08 -0.08)"><use xlink:href="#DejaVuSans-50"/><use x="63.623" xlink:href="#DejaVuSans-48"/></g></g></g><g id="xtick_3"><g id="line2d_3"><g><use style="stroke:#000;stroke-width:.8" x="268.768" y="258.198" xlink:href="#m6ce33624d3"/></g></g><g id="text_3"><defs><path id="DejaVuSans-52" d="M 37.796875 64.3125 L 12.890625 25.390625 L 37.796875 25.390625 z M 35.203125 72.90625 L 47.609375 72.90625 L 47.609375 25.390625 L 58.015625 25.390625 L 58.015625 17.1875 L 47.609375 17.1875 L 47.609375 0 L 37.796875 0 L 37.796875 17.1875 L 4.890625 17.1875 L 4.890625 26.703125 z"/></defs><g transform="translate(263.678307 273.377011)scale(0.08 -0.08)"><use xlink:href="#DejaVuSans-52"/><use x="63.623" xlink:href="#DejaVuSans-48"/></g></g></g><g id="text_4"><defs><path id="DejaVuSans-101" d="M 56.203125 29.59375 L 56.203125 25.203125 L 14.890625 25.203125 Q 15.484375 15.921875 20.484375 11.0625 Q 25.484375 6.203125 34.421875 6.203125 Q 39.59375 6.203125 44.453125 7.46875 Q 49.3125 8.734375 54.109375 11.28125 L 54.109375 2.78125 Q 49.265625 0.734375 44.1875 -0.34375 Q 39.109375 -1.421875 33.890625 -1.421875 Q 20.796875 -1.421875 13.15625 6.1875 Q 5.515625 13.8125 5.515625 26.8125 Q 5.515625 40.234375 12.765625 48.109375 Q 20.015625 56 32.328125 56 Q 43.359375 56 49.78125 48.890625 Q 56.203125 41.796875 56.203125 29.59375 z M 47.21875 32.234375 Q 47.125 39.59375 43.09375 43.984375 Q 39.0625 48.390625 32.421875 48.390625 Q 24.90625 48.390625 20.390625 44.140625 Q 15.875 39.890625 15.1875 32.171875 z"/><path id="DejaVuSans-118" d="M 2.984375 54.6875 L 12.5 54.6875 L 29.59375 8.796875 L 46.6875 54.6875 L 56.203125 54.6875 L 35.6875 0 L 23.484375 0 z"/><path id="DejaVuSans-97" d="M 34.28125 27.484375 Q 23.390625 27.484375 19.1875 25 Q 14.984375 22.515625 14.984375 16.5 Q 14.984375 11.71875 18.140625 8.90625 Q 21.296875 6.109375 26.703125 6.109375 Q 34.1875 6.109375 38.703125 11.40625 Q 43.21875 16.703125 43.21875 25.484375 L 43.21875 27.484375 z M 52.203125 31.203125 L 52.203125 0 L 43.21875 0 L 43.21875 8.296875 Q 40.140625 3.328125 35.546875 0.953125 Q 30.953125 -1.421875 24.3125 -1.421875 Q 15.921875 -1.421875 10.953125 3.296875 Q 6 8.015625 6 15.921875 Q 6 25.140625 12.171875 29.828125 Q 18.359375 34.515625 30.609375 34.515625 L 43.21875 34.515625 L 43.21875 35.40625 Q 43.21875 41.609375 39.140625 45 Q 35.0625 48.390625 27.6875 48.390625 Q 23 48.390625 18.546875 47.265625 Q 14.109375 46.140625 10.015625 43.890625 L 10.015625 52.203125 Q 14.9375 54.109375 19.578125 55.046875 Q 24.21875 56 28.609375 56 Q 40.484375 56 46.34375 49.84375 Q 52.203125 43.703125 52.203125 31.203125 z"/><path id="DejaVuSans-108" d="M 9.421875 75.984375 L 18.40625 75.984375 L 18.40625 0 L 9.421875 0 z"/><path id="DejaVuSans-117" d="M 8.5 21.578125 L 8.5 54.6875 L 17.484375 54.6875 L 17.484375 21.921875 Q 17.484375 14.15625 20.5 10.265625 Q 23.53125 6.390625 29.59375 6.390625 Q 36.859375 6.390625 41.078125 11.03125 Q 45.3125 15.671875 45.3125 23.6875 L 45.3125 54.6875 L 54.296875 54.6875 L 54.296875 0 L 45.3125 0 L 45.3125 8.40625 Q 42.046875 3.421875 37.71875 1 Q 33.40625 -1.421875 27.6875 -1.421875 Q 18.265625 -1.421875 13.375 4.4375 Q 8.5 10.296875 8.5 21.578125 z M 31.109375 56 z"/><path id="DejaVuSans-116" d="M 18.3125 70.21875 L 18.3125 54.6875 L 36.8125 54.6875 L 36.8125 47.703125 L 18.3125 47.703125 L 18.3125 18.015625 Q 18.3125 11.328125 20.140625 9.421875 Q 21.96875 7.515625 27.59375 7.515625 L 36.8125 7.515625 L 36.8125 0 L 27.59375 0 Q 17.1875 0 13.234375 3.875 Q 9.28125 7.765625 9.28125 18.015625 L 9.28125 47.703125 L 2.6875 47.703125 L 2.6875 54.6875 L 9.28125 54.6875 L 9.28125 70.21875 z"/><path id="DejaVuSans-105" d="M 9.421875 54.6875 L 18.40625 54.6875 L 18.40625 0 L 9.421875 0 z M 9.421875 75.984375 L 18.40625 75.984375 L 18.40625 64.59375 L 9.421875 64.59375 z"/><path id="DejaVuSans-111" d="M 30.609375 48.390625 Q 23.390625 48.390625 19.1875 42.75 Q 14.984375 37.109375 14.984375 27.296875 Q 14.984375 17.484375 19.15625 11.84375 Q 23.34375 6.203125 30.609375 6.203125 Q 37.796875 6.203125 41.984375 11.859375 Q 46.1875 17.53125 46.1875 27.296875 Q 46.1875 37.015625 41.984375 42.703125 Q 37.796875 48.390625 30.609375 48.390625 z M 30.609375 56 Q 42.328125 56 49.015625 48.375 Q 55.71875 40.765625 55.71875 27.296875 Q 55.71875 13.875 49.015625 6.21875 Q 42.328125 -1.421875 30.609375 -1.421875 Q 18.84375 -1.421875 12.171875 6.21875 Q 5.515625 13.875 5.515625 27.296875 Q 5.515625 40.765625 12.171875 48.375 Q 18.84375 56 30.609375 56 z"/><path id="DejaVuSans-110" d="M 54.890625 33.015625 L 54.890625 0 L 45.90625 0 L 45.90625 32.71875 Q 45.90625 40.484375 42.875 44.328125 Q 39.84375 48.1875 33.796875 48.1875 Q 26.515625 48.1875 22.3125 43.546875 Q 18.109375 38.921875 18.109375 30.90625 L 18.109375 0 L 9.078125 0 L 9.078125 54.6875 L 18.109375 54.6875 L 18.109375 46.1875 Q 21.34375 51.125 25.703125 53.5625 Q 30.078125 56 35.796875 56 Q 45.21875 56 50.046875 50.171875 Q 54.890625 44.34375 54.890625 33.015625 z"/><path id="DejaVuSans-115" d="M 44.28125 53.078125 L 44.28125 44.578125 Q 40.484375 46.53125 36.375 47.5 Q 32.28125 48.484375 27.875 48.484375 Q 21.1875 48.484375 17.84375 46.4375 Q 14.5 44.390625 14.5 40.28125 Q 14.5 37.15625 16.890625 35.375 Q 19.28125 33.59375 26.515625 31.984375 L 29.59375 31.296875 Q 39.15625 29.25 43.1875 25.515625 Q 47.21875 21.78125 47.21875 15.09375 Q 47.21875 7.46875 41.1875 3.015625 Q 35.15625 -1.421875 24.609375 -1.421875 Q 20.21875 -1.421875 15.453125 -0.5625 Q 10.6875 0.296875 5.421875 2 L 5.421875 11.28125 Q 10.40625 8.6875 15.234375 7.390625 Q 20.0625 6.109375 24.8125 6.109375 Q 31.15625 6.109375 34.5625 8.28125 Q 37.984375 10.453125 37.984375 14.40625 Q 37.984375 18.0625 35.515625 20.015625 Q 33.0625 21.96875 24.703125 23.78125 L 21.578125 24.515625 Q 13.234375 26.265625 9.515625 29.90625 Q 5.8125 33.546875 5.8125 39.890625 Q 5.8125 47.609375 11.28125 51.796875 Q 16.75 56 26.8125 56 Q 31.78125 56 36.171875 55.265625 Q 40.578125 54.546875 44.28125 53.078125 z"/></defs><g transform="translate(181.035151 285.727386)scale(0.088 -0.088)"><use xlink:href="#DejaVuSans-101"/><use x="61.523" xlink:href="#DejaVuSans-118"/><use x="120.703" xlink:href="#DejaVuSans-97"/><use x="181.982" xlink:href="#DejaVuSans-108"/><use x="209.766" xlink:href="#DejaVuSans-117"/><use x="273.145" xlink:href="#DejaVuSans-97"/><use x="334.424" xlink:href="#DejaVuSans-116"/><use x="373.633" xlink:href="#DejaVuSans-105"/><use x="401.416" xlink:href="#DejaVuSans-111"/><use x="462.598" xlink:href="#DejaVuSans-110"/><use x="525.977" xlink:href="#DejaVuSans-115"/></g></g></g><g id="matplotlib.axis_2"><g id="ytick_1"><g id="line2d_4"><defs><path id="m3e8a474fc0" d="M 0 0 L -3.5 0" style="stroke:#000;stroke-width:.8"/></defs><g><use style="stroke:#000;stroke-width:.8" x="108" y="216.284" xlink:href="#m3e8a474fc0"/></g></g><g id="text_5"><defs><path id="DejaVuSans-46" d="M 10.6875 12.40625 L 21 12.40625 L 21 0 L 10.6875 0 z"/></defs><g transform="translate(81.0875 219.32331)scale(0.08 -0.08)"><use xlink:href="#DejaVuSans-48"/><use x="63.623" xlink:href="#DejaVuSans-46"/><use x="95.41" xlink:href="#DejaVuSans-48"/><use x="159.033" xlink:href="#DejaVuSans-48"/></g></g></g><g id="ytick_2"><g id="line2d_5"><g><use style="stroke:#000;stroke-width:.8" x="108" y="173.199" xlink:href="#m3e8a474fc0"/></g></g><g id="text_6"><defs><path id="DejaVuSans-53" d="M 10.796875 72.90625 L 49.515625 72.90625 L 49.515625 64.59375 L 19.828125 64.59375 L 19.828125 46.734375 Q 21.96875 47.46875 24.109375 47.828125 Q 26.265625 48.1875 28.421875 48.1875 Q 40.625 48.1875 47.75 41.5 Q 54.890625 34.8125 54.890625 23.390625 Q 54.890625 11.625 47.5625 5.09375 Q 40.234375 -1.421875 26.90625 -1.421875 Q 22.3125 -1.421875 17.546875 -0.640625 Q 12.796875 0.140625 7.71875 1.703125 L 7.71875 11.625 Q 12.109375 9.234375 16.796875 8.0625 Q 21.484375 6.890625 26.703125 6.890625 Q 35.15625 6.890625 40.078125 11.328125 Q 45.015625 15.765625 45.015625 23.390625 Q 45.015625 31 40.078125 35.4375 Q 35.15625 39.890625 26.703125 39.890625 Q 22.75 39.890625 18.8125 39.015625 Q 14.890625 38.140625 10.796875 36.28125 z"/></defs><g transform="translate(81.0875 176.238092)scale(0.08 -0.08)"><use xlink:href="#DejaVuSans-48"/><use x="63.623" xlink:href="#DejaVuSans-46"/><use x="95.41" xlink:href="#DejaVuSans-50"/><use x="159.033" xlink:href="#DejaVuSans-53"/></g></g></g><g id="ytick_3"><g id="line2d_6"><g><use style="stroke:#000;stroke-width:.8" x="108" y="130.113" xlink:href="#m3e8a474fc0"/></g></g><g id="text_7"><g transform="translate(81.0875 133.152874)scale(0.08 -0.08)"><use xlink:href="#DejaVuSans-48"/><use x="63.623" xlink:href="#DejaVuSans-46"/><use x="95.41" xlink:href="#DejaVuSans-53"/><use x="159.033" xlink:href="#DejaVuSans-48"/></g></g></g><g id="ytick_4"><g id="line2d_7"><g><use style="stroke:#000;stroke-width:.8" x="108" y="87.028" xlink:href="#m3e8a474fc0"/></g></g><g id="text_8"><defs><path id="DejaVuSans-55" d="M 8.203125 72.90625 L 55.078125 72.90625 L 55.078125 68.703125 L 28.609375 0 L 18.3125 0 L 43.21875 64.59375 L 8.203125 64.59375 z"/></defs><g transform="translate(81.0875 90.067656)scale(0.08 -0.08)"><use xlink:href="#DejaVuSans-48"/><use x="63.623" xlink:href="#DejaVuSans-46"/><use x="95.41" xlink:href="#DejaVuSans-55"/><use x="159.033" xlink:href="#DejaVuSans-53"/></g></g></g></g><g id="line2d_8"><path d="M 108 238.432322 L 112.019208 227.945725 L 116.038415 227.045416 L 120.057623 227.031767 L 124.076831 227.031767 L 128.096038 215.394432 L 132.115246 215.394432 L 136.134454 194.90262 L 140.153661 194.90262 L 144.172869 186.230513 L 148.192077 175.158371 L 152.211285 171.00904 L 156.230492 171.00904 L 160.2497 161.954026 L 164.268908 159.181579 L 168.288115 159.181579 L 172.307323 158.862921 L 176.326531 152.704664 L 180.345738 152.704664 L 184.364946 143.584023 L 188.384154 143.584023 L 192.403361 143.009266 L 196.422569 136.617833 L 200.441777 136.617833 L 204.460984 136.617833 L 208.480192 133.058822 L 212.4994 133.058822 L 216.518607 133.058822 L 220.537815 133.058822 L 224.557023 125.198337 L 228.57623 125.198337 L 232.595438 125.198337 L 236.614646 125.198337 L 240.633854 125.198337 L 244.653061 125.198337 L 248.672269 125.198337 L 252.691477 125.198337 L 256.710684 125.198337 L 260.729892 125.198337 L 264.7491 125.198337 L 268.768307 125.198337 L 272.787515 125.198337 L 276.806723 125.198337 L 280.82593 125.198337 L 284.845138 125.198337 L 288.864346 125.198337 L 292.883553 125.198337 L 296.902761 125.198337 L 300.921969 125.198337 L 304.941176 125.198337" clip-path="url(#p19fef6f376)" style="fill:none;stroke:#1f77b4;stroke-linecap:square;stroke-width:2"/></g><g id="line2d_9"><path d="M 108 249.603794 L 112.019208 221.081076 L 116.038415 202.285132 L 120.057623 167.254098 L 124.076831 142.24331 L 128.096038 139.742657 L 132.115246 137.233501 L 136.134454 128.801843 L 140.153661 128.801843 L 144.172869 128.801843 L 148.192077 125.50839 L 152.211285 125.50839 L 156.230492 125.50839 L 160.2497 116.457418 L 164.268908 116.457418 L 168.288115 114.242718 L 172.307323 114.242718 L 176.326531 114.242718 L 180.345738 113.876179 L 184.364946 113.876179 L 188.384154 113.876179 L 192.403361 113.876179 L 196.422569 113.196552 L 200.441777 112.304825 L 204.460984 111.712669 L 208.480192 108.407485 L 212.4994 108.407485 L 216.518607 108.407485 L 220.537815 108.369566 L 224.557023 107.036445 L 228.57623 102.661155 L 232.595438 99.117985 L 236.614646 94.762502 L 240.633854 94.762502 L 244.653061 94.713796 L 248.672269 92.727951 L 252.691477 88.146034 L 256.710684 87.762027 L 260.729892 87.28803 L 264.7491 87.28803 L 268.768307 86.163083 L 272.787515 85.965004 L 276.806723 85.334711 L 280.82593 84.629783 L 284.845138 82.566737 L 288.864346 80.110524 L 292.883553 80.110524 L 296.902761 78.085431 L 300.921969 78.085431 L 304.941176 77.714466" clip-path="url(#p19fef6f376)" style="fill:none;stroke:#ff7f0e;stroke-linecap:square;stroke-width:2"/></g><g id="line2d_10"><path d="M 108 242.738259 L 112.019208 229.104373 L 116.038415 207.084207 L 120.057623 197.47448 L 124.076831 191.957676 L 128.096038 189.458734 L 132.115246 189.458734 L 136.134454 180.162667 L 140.153661 168.22134 L 144.172869 158.222123 L 148.192077 158.222123 L 152.211285 158.222123 L 156.230492 154.435794 L 160.2497 154.435794 L 164.268908 153.350046 L 168.288115 143.004596 L 172.307323 139.793886 L 176.326531 139.793886 L 180.345738 139.793886 L 184.364946 139.776652 L 188.384154 139.776652 L 192.403361 139.776652 L 196.422569 136.760686 L 200.441777 132.934719 L 204.460984 131.038969 L 208.480192 131.038969 L 212.4994 130.933841 L 216.518607 130.933841 L 220.537815 127.194044 L 224.557023 127.159576 L 228.57623 126.901065 L 232.595438 122.961353 L 236.614646 122.961353 L 240.633854 119.893685 L 244.653061 119.531769 L 248.672269 119.014747 L 252.691477 118.18751 L 256.710684 111.621323 L 260.729892 111.621323 L 264.7491 111.621323 L 268.768307 111.604089 L 272.787515 109.398126 L 276.806723 109.32919 L 280.82593 109.311955 L 284.845138 109.311955 L 288.864346 109.053444 L 292.883553 108.036633 L 296.902761 105.45152 L 300.921969 105.45152 L 304.941176 105.106838" clip-path="url(#p19fef6f376)" style="fill:none;stroke:#2ca02c;stroke-linecap:square;stroke-width:2"/></g><g id="patch_3"><path d="M 108 258.198261 L 108 69.12" style="fill:none;stroke:#000;stroke-linecap:square;stroke-linejoin:miter;stroke-width:.8"/></g><g id="patch_4"><path d="M 108 258.198261 L 304.941176 258.198261" style="fill:none;stroke:#000;stroke-linecap:square;stroke-linejoin:miter;stroke-width:.8"/></g><g id="text_9"><defs><path id="DejaVuSans-65" d="M 34.1875 63.1875 L 20.796875 26.90625 L 47.609375 26.90625 z M 28.609375 72.90625 L 39.796875 72.90625 L 67.578125 0 L 57.328125 0 L 50.6875 18.703125 L 17.828125 18.703125 L 11.1875 0 L 0.78125 0 z"/><path id="DejaVuSans-73" d="M 9.8125 72.90625 L 19.671875 72.90625 L 19.671875 0 L 9.8125 0 z"/><path id="DejaVuSans-82" d="M 44.390625 34.1875 Q 47.5625 33.109375 50.5625 29.59375 Q 53.5625 26.078125 56.59375 19.921875 L 66.609375 0 L 56 0 L 46.6875 18.703125 Q 43.0625 26.03125 39.671875 28.421875 Q 36.28125 30.8125 30.421875 30.8125 L 19.671875 30.8125 L 19.671875 0 L 9.8125 0 L 9.8125 72.90625 L 32.078125 72.90625 Q 44.578125 72.90625 50.734375 67.671875 Q 56.890625 62.453125 56.890625 51.90625 Q 56.890625 45.015625 53.6875 40.46875 Q 50.484375 35.9375 44.390625 34.1875 z M 19.671875 64.796875 L 19.671875 38.921875 L 32.078125 38.921875 Q 39.203125 38.921875 42.84375 42.21875 Q 46.484375 45.515625 46.484375 51.90625 Q 46.484375 58.296875 42.84375 61.546875 Q 39.203125 64.796875 32.078125 64.796875 z"/><path id="DejaVuSans-76" d="M 9.8125 72.90625 L 19.671875 72.90625 L 19.671875 8.296875 L 55.171875 8.296875 L 55.171875 0 L 9.8125 0 z"/><path id="DejaVuSans-78" d="M 9.8125 72.90625 L 23.09375 72.90625 L 55.421875 11.921875 L 55.421875 72.90625 L 64.984375 72.90625 L 64.984375 0 L 51.703125 0 L 19.390625 60.984375 L 19.390625 0 L 9.8125 0 z"/><path id="DejaVuSans-69" d="M 9.8125 72.90625 L 55.90625 72.90625 L 55.90625 64.59375 L 19.671875 64.59375 L 19.671875 43.015625 L 54.390625 43.015625 L 54.390625 34.71875 L 19.671875 34.71875 L 19.671875 8.296875 L 56.78125 8.296875 L 56.78125 0 L 9.8125 0 z"/></defs><g transform="translate(187.721338 63.12)scale(0.096 -0.096)"><use xlink:href="#DejaVuSans-65"/><use x="68.408" xlink:href="#DejaVuSans-73"/><use x="97.9" xlink:href="#DejaVuSans-82"/><use x="167.383" xlink:href="#DejaVuSans-76"/><use x="223.096" xlink:href="#DejaVuSans-73"/><use x="252.588" xlink:href="#DejaVuSans-78"/><use x="327.393" xlink:href="#DejaVuSans-69"/></g></g><g id="legend_1"><g id="patch_5"><path d="M 113.6 110.7475 L 194.25 110.7475 Q 195.85 110.7475 195.85 109.1475 L 195.85 74.72 Q 195.85 73.12 194.25 73.12 L 113.6 73.12 Q 112 73.12 112 74.72 L 112 109.1475 Q 112 110.7475 113.6 110.7475 z" style="fill:#fff;opacity:.8;stroke:#ccc;stroke-linejoin:miter;stroke-width:.24"/></g><g id="line2d_11"><path d="M 115.2 79.59875 L 131.2 79.59875" style="fill:none;stroke:#1f77b4;stroke-linecap:square;stroke-width:2"/></g><g id="text_10"><defs><path id="DejaVuSans-66" d="M 19.671875 34.8125 L 19.671875 8.109375 L 35.5 8.109375 Q 43.453125 8.109375 47.28125 11.40625 Q 51.125 14.703125 51.125 21.484375 Q 51.125 28.328125 47.28125 31.5625 Q 43.453125 34.8125 35.5 34.8125 z M 19.671875 64.796875 L 19.671875 42.828125 L 34.28125 42.828125 Q 41.5 42.828125 45.03125 45.53125 Q 48.578125 48.25 48.578125 53.8125 Q 48.578125 59.328125 45.03125 62.0625 Q 41.5 64.796875 34.28125 64.796875 z M 9.8125 72.90625 L 35.015625 72.90625 Q 46.296875 72.90625 52.390625 68.21875 Q 58.5 63.53125 58.5 54.890625 Q 58.5 48.1875 55.375 44.234375 Q 52.25 40.28125 46.1875 39.3125 Q 53.46875 37.75 57.5 32.78125 Q 61.53125 27.828125 61.53125 20.40625 Q 61.53125 10.640625 54.890625 5.3125 Q 48.25 0 35.984375 0 L 9.8125 0 z"/><path id="DejaVuSans-79" d="M 39.40625 66.21875 Q 28.65625 66.21875 22.328125 58.203125 Q 16.015625 50.203125 16.015625 36.375 Q 16.015625 22.609375 22.328125 14.59375 Q 28.65625 6.59375 39.40625 6.59375 Q 50.140625 6.59375 56.421875 14.59375 Q 62.703125 22.609375 62.703125 36.375 Q 62.703125 50.203125 56.421875 58.203125 Q 50.140625 66.21875 39.40625 66.21875 z M 39.40625 74.21875 Q 54.734375 74.21875 63.90625 63.9375 Q 73.09375 53.65625 73.09375 36.375 Q 73.09375 19.140625 63.90625 8.859375 Q 54.734375 -1.421875 39.40625 -1.421875 Q 24.03125 -1.421875 14.8125 8.828125 Q 5.609375 19.09375 5.609375 36.375 Q 5.609375 53.65625 14.8125 63.9375 Q 24.03125 74.21875 39.40625 74.21875 z"/><path id="DejaVuSans-77" d="M 9.8125 72.90625 L 24.515625 72.90625 L 43.109375 23.296875 L 61.8125 72.90625 L 76.515625 72.90625 L 76.515625 0 L 66.890625 0 L 66.890625 64.015625 L 48.09375 14.015625 L 38.1875 14.015625 L 19.390625 64.015625 L 19.390625 0 L 9.8125 0 z"/><path id="DejaVuSans-83" d="M 53.515625 70.515625 L 53.515625 60.890625 Q 47.90625 63.578125 42.921875 64.890625 Q 37.9375 66.21875 33.296875 66.21875 Q 25.25 66.21875 20.875 63.09375 Q 16.5 59.96875 16.5 54.203125 Q 16.5 49.359375 19.40625 46.890625 Q 22.3125 44.4375 30.421875 42.921875 L 36.375 41.703125 Q 47.40625 39.59375 52.65625 34.296875 Q 57.90625 29 57.90625 20.125 Q 57.90625 9.515625 50.796875 4.046875 Q 43.703125 -1.421875 29.984375 -1.421875 Q 24.8125 -1.421875 18.96875 -0.25 Q 13.140625 0.921875 6.890625 3.21875 L 6.890625 13.375 Q 12.890625 10.015625 18.65625 8.296875 Q 24.421875 6.59375 29.984375 6.59375 Q 38.421875 6.59375 43.015625 9.90625 Q 47.609375 13.234375 47.609375 19.390625 Q 47.609375 24.75 44.3125 27.78125 Q 41.015625 30.8125 33.5 32.328125 L 27.484375 33.5 Q 16.453125 35.6875 11.515625 40.375 Q 6.59375 45.0625 6.59375 53.421875 Q 6.59375 63.09375 13.40625 68.65625 Q 20.21875 74.21875 32.171875 74.21875 Q 37.3125 74.21875 42.625 73.28125 Q 47.953125 72.359375 53.515625 70.515625 z"/></defs><g transform="translate(137.6 82.39875)scale(0.08 -0.08)"><use xlink:href="#DejaVuSans-66"/><use x="68.588" xlink:href="#DejaVuSans-79"/><use x="147.299" xlink:href="#DejaVuSans-77"/><use x="233.578" xlink:href="#DejaVuSans-83"/></g></g><g id="line2d_13"><path d="M 115.2 91.34125 L 131.2 91.34125" style="fill:none;stroke:#ff7f0e;stroke-linecap:square;stroke-width:2"/></g><g id="text_11"><defs><path id="DejaVuSans-75" d="M 9.8125 72.90625 L 19.671875 72.90625 L 19.671875 42.09375 L 52.390625 72.90625 L 65.09375 72.90625 L 28.90625 38.921875 L 67.671875 0 L 54.6875 0 L 19.671875 35.109375 L 19.671875 0 L 9.8125 0 z"/><path id="DejaVuSans-32"/><path id="DejaVuSans-40" d="M 31 75.875 Q 24.46875 64.65625 21.28125 53.65625 Q 18.109375 42.671875 18.109375 31.390625 Q 18.109375 20.125 21.3125 9.0625 Q 24.515625 -2 31 -13.1875 L 23.1875 -13.1875 Q 15.875 -1.703125 12.234375 9.375 Q 8.59375 20.453125 8.59375 31.390625 Q 8.59375 42.28125 12.203125 53.3125 Q 15.828125 64.359375 23.1875 75.875 z"/><path id="DejaVuSans-41" d="M 8.015625 75.875 L 15.828125 75.875 Q 23.140625 64.359375 26.78125 53.3125 Q 30.421875 42.28125 30.421875 31.390625 Q 30.421875 20.453125 26.78125 9.375 Q 23.140625 -1.703125 15.828125 -13.1875 L 8.015625 -13.1875 Q 14.5 -2 17.703125 9.0625 Q 20.90625 20.125 20.90625 31.390625 Q 20.90625 42.671875 17.703125 53.65625 Q 14.5 64.65625 8.015625 75.875 z"/></defs><g transform="translate(137.6 94.14125)scale(0.08 -0.08)"><use xlink:href="#DejaVuSans-69"/><use x="63.184" xlink:href="#DejaVuSans-75"/><use x="128.76" xlink:href="#DejaVuSans-83"/><use x="192.236" xlink:href="#DejaVuSans-32"/><use x="224.023" xlink:href="#DejaVuSans-40"/><use x="263.037" xlink:href="#DejaVuSans-77"/><use x="349.316" xlink:href="#DejaVuSans-76"/><use x="405.029" xlink:href="#DejaVuSans-69"/><use x="468.213" xlink:href="#DejaVuSans-41"/></g></g><g id="line2d_15"><path d="M 115.2 103.08375 L 131.2 103.08375" style="fill:none;stroke:#2ca02c;stroke-linecap:square;stroke-width:2"/></g><g id="text_12"><defs><path id="DejaVuSans-112" d="M 18.109375 8.203125 L 18.109375 -20.796875 L 9.078125 -20.796875 L 9.078125 54.6875 L 18.109375 54.6875 L 18.109375 46.390625 Q 20.953125 51.265625 25.265625 53.625 Q 29.59375 56 35.59375 56 Q 45.5625 56 51.78125 48.09375 Q 58.015625 40.1875 58.015625 27.296875 Q 58.015625 14.40625 51.78125 6.484375 Q 45.5625 -1.421875 35.59375 -1.421875 Q 29.59375 -1.421875 25.265625 0.953125 Q 20.953125 3.328125 18.109375 8.203125 z M 48.6875 27.296875 Q 48.6875 37.203125 44.609375 42.84375 Q 40.53125 48.484375 33.40625 48.484375 Q 26.265625 48.484375 22.1875 42.84375 Q 18.109375 37.203125 18.109375 27.296875 Q 18.109375 17.390625 22.1875 11.75 Q 26.265625 6.109375 33.40625 6.109375 Q 40.53125 6.109375 44.609375 11.75 Q 48.6875 17.390625 48.6875 27.296875 z"/><path id="DejaVuSans-99" d="M 48.78125 52.59375 L 48.78125 44.1875 Q 44.96875 46.296875 41.140625 47.34375 Q 37.3125 48.390625 33.40625 48.390625 Q 24.65625 48.390625 19.8125 42.84375 Q 14.984375 37.3125 14.984375 27.296875 Q 14.984375 17.28125 19.8125 11.734375 Q 24.65625 6.203125 33.40625 6.203125 Q 37.3125 6.203125 41.140625 7.25 Q 44.96875 8.296875 48.78125 10.40625 L 48.78125 2.09375 Q 45.015625 0.34375 40.984375 -0.53125 Q 36.96875 -1.421875 32.421875 -1.421875 Q 20.0625 -1.421875 12.78125 6.34375 Q 5.515625 14.109375 5.515625 27.296875 Q 5.515625 40.671875 12.859375 48.328125 Q 20.21875 56 33.015625 56 Q 37.15625 56 41.109375 55.140625 Q 45.0625 54.296875 48.78125 52.59375 z"/></defs><g transform="translate(137.6 105.88375)scale(0.08 -0.08)"><use xlink:href="#DejaVuSans-69"/><use x="63.184" xlink:href="#DejaVuSans-75"/><use x="128.76" xlink:href="#DejaVuSans-83"/><use x="192.236" xlink:href="#DejaVuSans-32"/><use x="224.023" xlink:href="#DejaVuSans-40"/><use x="263.037" xlink:href="#DejaVuSans-76"/><use x="318.75" xlink:href="#DejaVuSans-97"/><use x="380.029" xlink:href="#DejaVuSans-112"/><use x="443.506" xlink:href="#DejaVuSans-108"/><use x="471.289" xlink:href="#DejaVuSans-97"/><use x="532.568" xlink:href="#DejaVuSans-99"/><use x="587.549" xlink:href="#DejaVuSans-101"/><use x="649.072" xlink:href="#DejaVuSans-41"/></g></g></g></g><g id="axes_2"><g id="patch_6"><path d="M 344.329412 258.198261 L 541.270588 258.198261 L 541.270588 69.12 L 344.329412 69.12 z" style="fill:#fff"/></g><g id="matplotlib.axis_3"><g id="xtick_4"><g id="line2d_17"><g><use style="stroke:#000;stroke-width:.8" x="344.329" y="258.198" xlink:href="#m6ce33624d3"/></g></g><g id="text_13"><g transform="translate(341.784412 273.377011)scale(0.08 -0.08)"><use xlink:href="#DejaVuSans-48"/></g></g></g><g id="xtick_5"><g id="line2d_18"><g><use style="stroke:#000;stroke-width:.8" x="424.714" y="258.198" xlink:href="#m6ce33624d3"/></g></g><g id="text_14"><g transform="translate(419.623565 273.377011)scale(0.08 -0.08)"><use xlink:href="#DejaVuSans-50"/><use x="63.623" xlink:href="#DejaVuSans-48"/></g></g></g><g id="xtick_6"><g id="line2d_19"><g><use style="stroke:#000;stroke-width:.8" x="505.098" y="258.198" xlink:href="#m6ce33624d3"/></g></g><g id="text_15"><g transform="translate(500.007719 273.377011)scale(0.08 -0.08)"><use xlink:href="#DejaVuSans-52"/><use x="63.623" xlink:href="#DejaVuSans-48"/></g></g></g><g id="text_16"><g transform="translate(417.364563 285.727386)scale(0.088 -0.088)"><use xlink:href="#DejaVuSans-101"/><use x="61.523" xlink:href="#DejaVuSans-118"/><use x="120.703" xlink:href="#DejaVuSans-97"/><use x="181.982" xlink:href="#DejaVuSans-108"/><use x="209.766" xlink:href="#DejaVuSans-117"/><use x="273.145" xlink:href="#DejaVuSans-97"/><use x="334.424" xlink:href="#DejaVuSans-116"/><use x="373.633" xlink:href="#DejaVuSans-105"/><use x="401.416" xlink:href="#DejaVuSans-111"/><use x="462.598" xlink:href="#DejaVuSans-110"/><use x="525.977" xlink:href="#DejaVuSans-115"/></g></g></g><g id="matplotlib.axis_4"><g id="ytick_5"><g id="line2d_20"><g><use style="stroke:#000;stroke-width:.8" x="344.329" y="229.454" xlink:href="#m3e8a474fc0"/></g></g><g id="text_17"><defs><path id="DejaVuSans-8722" d="M 10.59375 35.5 L 73.1875 35.5 L 73.1875 27.203125 L 10.59375 27.203125 z"/></defs><g transform="translate(315.803162 232.492931)scale(0.08 -0.08)"><use xlink:href="#DejaVuSans-8722"/><use x="83.789" xlink:href="#DejaVuSans-48"/><use x="147.412" xlink:href="#DejaVuSans-46"/><use x="179.199" xlink:href="#DejaVuSans-52"/></g></g></g><g id="ytick_6"><g id="line2d_21"><g><use style="stroke:#000;stroke-width:.8" x="344.329" y="173.79" xlink:href="#m3e8a474fc0"/></g></g><g id="text_18"><defs><path id="DejaVuSans-51" d="M 40.578125 39.3125 Q 47.65625 37.796875 51.625 33 Q 55.609375 28.21875 55.609375 21.1875 Q 55.609375 10.40625 48.1875 4.484375 Q 40.765625 -1.421875 27.09375 -1.421875 Q 22.515625 -1.421875 17.65625 -0.515625 Q 12.796875 0.390625 7.625 2.203125 L 7.625 11.71875 Q 11.71875 9.328125 16.59375 8.109375 Q 21.484375 6.890625 26.8125 6.890625 Q 36.078125 6.890625 40.9375 10.546875 Q 45.796875 14.203125 45.796875 21.1875 Q 45.796875 27.640625 41.28125 31.265625 Q 36.765625 34.90625 28.71875 34.90625 L 20.21875 34.90625 L 20.21875 43.015625 L 29.109375 43.015625 Q 36.375 43.015625 40.234375 45.921875 Q 44.09375 48.828125 44.09375 54.296875 Q 44.09375 59.90625 40.109375 62.90625 Q 36.140625 65.921875 28.71875 65.921875 Q 24.65625 65.921875 20.015625 65.03125 Q 15.375 64.15625 9.8125 62.3125 L 9.8125 71.09375 Q 15.4375 72.65625 20.34375 73.4375 Q 25.25 74.21875 29.59375 74.21875 Q 40.828125 74.21875 47.359375 69.109375 Q 53.90625 64.015625 53.90625 55.328125 Q 53.90625 49.265625 50.4375 45.09375 Q 46.96875 40.921875 40.578125 39.3125 z"/></defs><g transform="translate(315.803162 176.829288)scale(0.08 -0.08)"><use xlink:href="#DejaVuSans-8722"/><use x="83.789" xlink:href="#DejaVuSans-48"/><use x="147.412" xlink:href="#DejaVuSans-46"/><use x="179.199" xlink:href="#DejaVuSans-51"/></g></g></g><g id="ytick_7"><g id="line2d_22"><g><use style="stroke:#000;stroke-width:.8" x="344.329" y="118.126" xlink:href="#m3e8a474fc0"/></g></g><g id="text_19"><g transform="translate(315.803162 121.165646)scale(0.08 -0.08)"><use xlink:href="#DejaVuSans-8722"/><use x="83.789" xlink:href="#DejaVuSans-48"/><use x="147.412" xlink:href="#DejaVuSans-46"/><use x="179.199" xlink:href="#DejaVuSans-50"/></g></g></g></g><g id="line2d_23"><path d="M 344.329412 124.03775 L 348.348619 118.259864 L 352.367827 117.831254 L 356.387035 117.831254 L 360.406242 117.831254 L 364.42545 117.831254 L 368.444658 117.831254 L 372.463866 117.831254 L 376.483073 117.831254 L 380.502281 117.831254 L 384.521489 117.831254 L 388.540696 117.831254 L 392.559904 117.831254 L 396.579112 117.831254 L 400.598319 117.831254 L 404.617527 117.831254 L 408.636735 117.831254 L 412.655942 117.831254 L 416.67515 117.831254 L 420.694358 117.831254 L 424.713565 117.831254 L 428.732773 117.831254 L 432.751981 117.831254 L 436.771188 117.831254 L 440.790396 117.831254 L 444.809604 117.831254 L 448.828812 117.831254 L 452.848019 117.831254 L 456.867227 117.831254 L 460.886435 117.831254 L 464.905642 117.831254 L 468.92485 117.831254 L 472.944058 117.831254 L 476.963265 117.831254 L 480.982473 117.831254 L 485.001681 117.831254 L 489.020888 117.831254 L 493.040096 117.831254 L 497.059304 117.831254 L 501.078511 117.831254 L 505.097719 117.831254 L 509.116927 117.831254 L 513.136134 117.831254 L 517.155342 117.831254 L 521.17455 117.831254 L 525.193758 117.831254 L 529.212965 117.831254 L 533.232173 117.831254 L 537.251381 117.831254 L 541.270588 117.831254" clip-path="url(#p00919cddc8)" style="fill:none;stroke:#1f77b4;stroke-linecap:square;stroke-width:2"/></g><g id="line2d_24"><path d="M 344.329412 249.603794 L 348.348619 110.444688 L 352.367827 106.214251 L 356.387035 104.544342 L 360.406242 103.319742 L 364.42545 90.405777 L 368.444658 90.405777 L 372.463866 90.405777 L 376.483073 90.405777 L 380.502281 90.405777 L 384.521489 90.405777 L 388.540696 90.405777 L 392.559904 90.405777 L 396.579112 90.405777 L 400.598319 90.29445 L 404.617527 90.29445 L 408.636735 90.29445 L 412.655942 90.29445 L 416.67515 90.29445 L 420.694358 88.401886 L 424.713565 88.401886 L 428.732773 87.845249 L 432.751981 85.618704 L 436.771188 85.618704 L 440.790396 85.618704 L 444.809604 85.618704 L 448.828812 85.618704 L 452.848019 84.95074 L 456.867227 84.95074 L 460.886435 84.95074 L 464.905642 84.282776 L 468.92485 84.282776 L 472.944058 84.282776 L 476.963265 84.282776 L 480.982473 83.169503 L 485.001681 83.169503 L 489.020888 83.169503 L 493.040096 83.169503 L 497.059304 83.169503 L 501.078511 83.169503 L 505.097719 81.610921 L 509.116927 81.499594 L 513.136134 81.499594 L 517.155342 81.054285 L 521.17455 80.942958 L 525.193758 80.83163 L 529.212965 80.274994 L 533.232173 80.163667 L 537.251381 80.163667 L 541.270588 77.714466" clip-path="url(#p00919cddc8)" style="fill:none;stroke:#ff7f0e;stroke-linecap:square;stroke-width:2"/></g><g id="line2d_25"><path d="M 344.329412 125.919181 L 348.348619 108.106815 L 352.367827 103.653724 L 356.387035 91.593268 L 360.406242 90.29445 L 364.42545 90.29445 L 368.444658 90.29445 L 372.463866 90.29445 L 376.483073 90.29445 L 380.502281 90.29445 L 384.521489 90.29445 L 388.540696 90.29445 L 392.559904 90.29445 L 396.579112 90.29445 L 400.598319 90.29445 L 404.617527 90.29445 L 408.636735 90.29445 L 412.655942 90.29445 L 416.67515 90.29445 L 420.694358 90.29445 L 424.713565 90.29445 L 428.732773 90.29445 L 432.751981 87.696813 L 436.771188 87.696813 L 440.790396 87.696813 L 444.809604 86.58354 L 448.828812 86.58354 L 452.848019 86.58354 L 456.867227 86.397995 L 460.886435 84.54254 L 464.905642 84.54254 L 468.92485 84.54254 L 472.944058 84.54254 L 476.963265 84.54254 L 480.982473 84.54254 L 485.001681 84.54254 L 489.020888 84.54254 L 493.040096 84.54254 L 497.059304 83.800358 L 501.078511 83.800358 L 505.097719 83.800358 L 509.116927 83.800358 L 513.136134 82.687085 L 517.155342 82.687085 L 521.17455 82.687085 L 525.193758 82.687085 L 529.212965 82.687085 L 533.232173 82.687085 L 537.251381 82.687085 L 541.270588 82.687085" clip-path="url(#p00919cddc8)" style="fill:none;stroke:#2ca02c;stroke-linecap:square;stroke-width:2"/></g><g id="patch_7"><path d="M 344.329412 258.198261 L 344.329412 69.12" style="fill:none;stroke:#000;stroke-linecap:square;stroke-linejoin:miter;stroke-width:.8"/></g><g id="patch_8"><path d="M 344.329412 258.198261 L 541.270588 258.198261" style="fill:none;stroke:#000;stroke-linecap:square;stroke-linejoin:miter;stroke-width:.8"/></g><g id="text_20"><defs><path id="DejaVuSans-84" d="M -0.296875 72.90625 L 61.375 72.90625 L 61.375 64.59375 L 35.5 64.59375 L 35.5 0 L 25.59375 0 L 25.59375 64.59375 L -0.296875 64.59375 z"/><path id="DejaVuSans-72" d="M 9.8125 72.90625 L 19.671875 72.90625 L 19.671875 43.015625 L 55.515625 43.015625 L 55.515625 72.90625 L 65.375 72.90625 L 65.375 0 L 55.515625 0 L 55.515625 34.71875 L 19.671875 34.71875 L 19.671875 0 L 9.8125 0 z"/></defs><g transform="translate(419.1765 63.12)scale(0.096 -0.096)"><use xlink:href="#DejaVuSans-77"/><use x="86.279" xlink:href="#DejaVuSans-69"/><use x="149.463" xlink:href="#DejaVuSans-84"/><use x="210.547" xlink:href="#DejaVuSans-72"/><use x="285.742" xlink:href="#DejaVuSans-65"/><use x="354.15" xlink:href="#DejaVuSans-78"/><use x="428.955" xlink:href="#DejaVuSans-69"/></g></g></g><g id="axes_3"><g id="patch_9"><path d="M 580.658824 258.198261 L 777.6 258.198261 L 777.6 69.12 L 580.658824 69.12 z" style="fill:#fff"/></g><g id="matplotlib.axis_5"><g id="xtick_7"><g id="line2d_26"><g><use style="stroke:#000;stroke-width:.8" x="580.659" y="258.198" xlink:href="#m6ce33624d3"/></g></g><g id="text_21"><g transform="translate(578.113824 273.377011)scale(0.08 -0.08)"><use xlink:href="#DejaVuSans-48"/></g></g></g><g id="xtick_8"><g id="line2d_27"><g><use style="stroke:#000;stroke-width:.8" x="661.043" y="258.198" xlink:href="#m6ce33624d3"/></g></g><g id="text_22"><g transform="translate(655.952977 273.377011)scale(0.08 -0.08)"><use xlink:href="#DejaVuSans-50"/><use x="63.623" xlink:href="#DejaVuSans-48"/></g></g></g><g id="xtick_9"><g id="line2d_28"><g><use style="stroke:#000;stroke-width:.8" x="741.427" y="258.198" xlink:href="#m6ce33624d3"/></g></g><g id="text_23"><g transform="translate(736.337131 273.377011)scale(0.08 -0.08)"><use xlink:href="#DejaVuSans-52"/><use x="63.623" xlink:href="#DejaVuSans-48"/></g></g></g><g id="text_24"><g transform="translate(653.693974 285.727386)scale(0.088 -0.088)"><use xlink:href="#DejaVuSans-101"/><use x="61.523" xlink:href="#DejaVuSans-118"/><use x="120.703" xlink:href="#DejaVuSans-97"/><use x="181.982" xlink:href="#DejaVuSans-108"/><use x="209.766" xlink:href="#DejaVuSans-117"/><use x="273.145" xlink:href="#DejaVuSans-97"/><use x="334.424" xlink:href="#DejaVuSans-116"/><use x="373.633" xlink:href="#DejaVuSans-105"/><use x="401.416" xlink:href="#DejaVuSans-111"/><use x="462.598" xlink:href="#DejaVuSans-110"/><use x="525.977" xlink:href="#DejaVuSans-115"/></g></g></g><g id="matplotlib.axis_6"><g id="ytick_8"><g id="line2d_29"><g><use style="stroke:#000;stroke-width:.8" x="580.659" y="223.541" xlink:href="#m3e8a474fc0"/></g></g><g id="text_25"><defs><path id="DejaVuSans-49" d="M 12.40625 8.296875 L 28.515625 8.296875 L 28.515625 63.921875 L 10.984375 60.40625 L 10.984375 69.390625 L 28.421875 72.90625 L 38.28125 72.90625 L 38.28125 8.296875 L 54.390625 8.296875 L 54.390625 0 L 12.40625 0 z"/></defs><g transform="translate(552.132574 226.580147)scale(0.08 -0.08)"><use xlink:href="#DejaVuSans-8722"/><use x="83.789" xlink:href="#DejaVuSans-49"/><use x="147.412" xlink:href="#DejaVuSans-46"/><use x="179.199" xlink:href="#DejaVuSans-50"/></g></g></g><g id="ytick_9"><g id="line2d_30"><g><use style="stroke:#000;stroke-width:.8" x="580.659" y="181.333" xlink:href="#m3e8a474fc0"/></g></g><g id="text_26"><g transform="translate(552.132574 184.372822)scale(0.08 -0.08)"><use xlink:href="#DejaVuSans-8722"/><use x="83.789" xlink:href="#DejaVuSans-49"/><use x="147.412" xlink:href="#DejaVuSans-46"/><use x="179.199" xlink:href="#DejaVuSans-48"/></g></g></g><g id="ytick_10"><g id="line2d_31"><g><use style="stroke:#000;stroke-width:.8" x="580.659" y="139.126" xlink:href="#m3e8a474fc0"/></g></g><g id="text_27"><defs><path id="DejaVuSans-56" d="M 31.78125 34.625 Q 24.75 34.625 20.71875 30.859375 Q 16.703125 27.09375 16.703125 20.515625 Q 16.703125 13.921875 20.71875 10.15625 Q 24.75 6.390625 31.78125 6.390625 Q 38.8125 6.390625 42.859375 10.171875 Q 46.921875 13.96875 46.921875 20.515625 Q 46.921875 27.09375 42.890625 30.859375 Q 38.875 34.625 31.78125 34.625 z M 21.921875 38.8125 Q 15.578125 40.375 12.03125 44.71875 Q 8.5 49.078125 8.5 55.328125 Q 8.5 64.0625 14.71875 69.140625 Q 20.953125 74.21875 31.78125 74.21875 Q 42.671875 74.21875 48.875 69.140625 Q 55.078125 64.0625 55.078125 55.328125 Q 55.078125 49.078125 51.53125 44.71875 Q 48 40.375 41.703125 38.8125 Q 48.828125 37.15625 52.796875 32.3125 Q 56.78125 27.484375 56.78125 20.515625 Q 56.78125 9.90625 50.3125 4.234375 Q 43.84375 -1.421875 31.78125 -1.421875 Q 19.734375 -1.421875 13.25 4.234375 Q 6.78125 9.90625 6.78125 20.515625 Q 6.78125 27.484375 10.78125 32.3125 Q 14.796875 37.15625 21.921875 38.8125 z M 18.3125 54.390625 Q 18.3125 48.734375 21.84375 45.5625 Q 25.390625 42.390625 31.78125 42.390625 Q 38.140625 42.390625 41.71875 45.5625 Q 45.3125 48.734375 45.3125 54.390625 Q 45.3125 60.0625 41.71875 63.234375 Q 38.140625 66.40625 31.78125 66.40625 Q 25.390625 66.40625 21.84375 63.234375 Q 18.3125 60.0625 18.3125 54.390625 z"/></defs><g transform="translate(552.132574 142.165498)scale(0.08 -0.08)"><use xlink:href="#DejaVuSans-8722"/><use x="83.789" xlink:href="#DejaVuSans-48"/><use x="147.412" xlink:href="#DejaVuSans-46"/><use x="179.199" xlink:href="#DejaVuSans-56"/></g></g></g><g id="ytick_11"><g id="line2d_32"><g><use style="stroke:#000;stroke-width:.8" x="580.659" y="96.919" xlink:href="#m3e8a474fc0"/></g></g><g id="text_28"><defs><path id="DejaVuSans-54" d="M 33.015625 40.375 Q 26.375 40.375 22.484375 35.828125 Q 18.609375 31.296875 18.609375 23.390625 Q 18.609375 15.53125 22.484375 10.953125 Q 26.375 6.390625 33.015625 6.390625 Q 39.65625 6.390625 43.53125 10.953125 Q 47.40625 15.53125 47.40625 23.390625 Q 47.40625 31.296875 43.53125 35.828125 Q 39.65625 40.375 33.015625 40.375 z M 52.59375 71.296875 L 52.59375 62.3125 Q 48.875 64.0625 45.09375 64.984375 Q 41.3125 65.921875 37.59375 65.921875 Q 27.828125 65.921875 22.671875 59.328125 Q 17.53125 52.734375 16.796875 39.40625 Q 19.671875 43.65625 24.015625 45.921875 Q 28.375 48.1875 33.59375 48.1875 Q 44.578125 48.1875 50.953125 41.515625 Q 57.328125 34.859375 57.328125 23.390625 Q 57.328125 12.15625 50.6875 5.359375 Q 44.046875 -1.421875 33.015625 -1.421875 Q 20.359375 -1.421875 13.671875 8.265625 Q 6.984375 17.96875 6.984375 36.375 Q 6.984375 53.65625 15.1875 63.9375 Q 23.390625 74.21875 37.203125 74.21875 Q 40.921875 74.21875 44.703125 73.484375 Q 48.484375 72.75 52.59375 71.296875 z"/></defs><g transform="translate(552.132574 99.958174)scale(0.08 -0.08)"><use xlink:href="#DejaVuSans-8722"/><use x="83.789" xlink:href="#DejaVuSans-48"/><use x="147.412" xlink:href="#DejaVuSans-46"/><use x="179.199" xlink:href="#DejaVuSans-54"/></g></g></g></g><g id="line2d_33"><path d="M 580.658824 249.603794 L 584.678031 249.51938 L 588.697239 249.494055 L 592.716447 248.951691 L 596.735654 235.727715 L 600.754862 213.539535 L 604.77407 212.210004 L 608.793277 212.210004 L 612.812485 212.163576 L 616.831693 204.307949 L 620.8509 204.307949 L 624.870108 204.307949 L 628.889316 204.096913 L 632.908523 204.096913 L 636.927731 204.037822 L 640.946939 204.037822 L 644.966146 204.037822 L 648.985354 204.037822 L 653.004562 204.018829 L 657.02377 203.864772 L 661.042977 196.749884 L 665.062185 196.49664 L 669.081393 196.49664 L 673.1006 189.813321 L 677.119808 173.942101 L 681.139016 172.475396 L 685.158223 169.233874 L 689.177431 168.274079 L 693.196639 158.363377 L 697.215846 158.363377 L 701.235054 154.025942 L 705.254262 154.025942 L 709.273469 154.025942 L 713.292677 154.025942 L 717.311885 154.025942 L 721.331092 154.025942 L 725.3503 154.025942 L 729.369508 154.025942 L 733.388715 154.025942 L 737.407923 154.025942 L 741.427131 154.025942 L 745.446339 154.025942 L 749.465546 154.025942 L 753.484754 149.05202 L 757.503962 149.05202 L 761.523169 149.05202 L 765.542377 145.02924 L 769.561585 145.02924 L 773.580792 145.02924 L 777.6 145.02924" clip-path="url(#pe75d714902)" style="fill:none;stroke:#1f77b4;stroke-linecap:square;stroke-width:2"/></g><g id="line2d_34"><path d="M 580.658824 233.316061 L 584.678031 233.316061 L 588.697239 182.573256 L 592.716447 155.515269 L 596.735654 155.515269 L 600.754862 155.515269 L 604.77407 155.515269 L 608.793277 155.515269 L 612.812485 155.515269 L 616.831693 155.515269 L 620.8509 155.515269 L 624.870108 155.515269 L 628.889316 116.154468 L 632.908523 116.154468 L 636.927731 116.154468 L 640.946939 116.154468 L 644.966146 116.154468 L 648.985354 116.154468 L 653.004562 116.154468 L 657.02377 116.154468 L 661.042977 103.194362 L 665.062185 103.194362 L 669.081393 103.194362 L 673.1006 103.194362 L 677.119808 103.194362 L 681.139016 103.194362 L 685.158223 103.194362 L 689.177431 103.194275 L 693.196639 103.194275 L 697.215846 103.194275 L 701.235054 81.597183 L 705.254262 81.597183 L 709.273469 81.597183 L 713.292677 81.597183 L 717.311885 81.597183 L 721.331092 81.597183 L 725.3503 81.597183 L 729.369508 81.597183 L 733.388715 81.597183 L 737.407923 81.597183 L 741.427131 81.597183 L 745.446339 81.597183 L 749.465546 81.597183 L 753.484754 81.597183 L 757.503962 81.597183 L 761.523169 81.597183 L 765.542377 81.597183 L 769.561585 81.597183 L 773.580792 81.597183 L 777.6 81.597183" clip-path="url(#pe75d714902)" style="fill:none;stroke:#ff7f0e;stroke-linecap:square;stroke-width:2"/></g><g id="line2d_35"><path d="M 580.658824 221.957997 L 584.678031 221.957997 L 588.697239 209.348559 L 592.716447 197.741545 L 596.735654 190.671818 L 600.754862 183.285536 L 604.77407 183.285536 L 608.793277 129.154643 L 612.812485 129.154643 L 616.831693 129.154643 L 620.8509 129.154643 L 624.870108 129.101884 L 628.889316 129.101884 L 632.908523 129.101884 L 636.927731 129.101884 L 640.946939 129.101884 L 644.966146 129.101884 L 648.985354 125.039429 L 653.004562 125.039429 L 657.02377 120.765937 L 661.042977 120.765937 L 665.062185 120.765937 L 669.081393 120.765937 L 673.1006 120.765937 L 677.119808 120.765937 L 681.139016 120.765937 L 685.158223 116.070372 L 689.177431 112.641027 L 693.196639 112.641027 L 697.215846 112.641027 L 701.235054 112.641027 L 705.254262 109.844792 L 709.273469 102.775065 L 713.292677 102.775065 L 717.311885 102.775065 L 721.331092 102.775065 L 725.3503 102.775065 L 729.369508 102.775065 L 733.388715 102.775065 L 737.407923 102.775065 L 741.427131 93.278417 L 745.446339 93.278417 L 749.465546 93.278417 L 753.484754 93.278417 L 757.503962 80.457942 L 761.523169 80.457942 L 765.542377 80.457942 L 769.561585 77.714466 L 773.580792 77.714466 L 777.6 77.714466" clip-path="url(#pe75d714902)" style="fill:none;stroke:#2ca02c;stroke-linecap:square;stroke-width:2"/></g><g id="patch_10"><path d="M 580.658824 258.198261 L 580.658824 69.12" style="fill:none;stroke:#000;stroke-linecap:square;stroke-linejoin:miter;stroke-width:.8"/></g><g id="patch_11"><path d="M 580.658824 258.198261 L 777.6 258.198261" style="fill:none;stroke:#000;stroke-linecap:square;stroke-linejoin:miter;stroke-width:.8"/></g><g id="text_29"><defs><path id="DejaVuSans-85" d="M 8.6875 72.90625 L 18.609375 72.90625 L 18.609375 28.609375 Q 18.609375 16.890625 22.84375 11.734375 Q 27.09375 6.59375 36.625 6.59375 Q 46.09375 6.59375 50.34375 11.734375 Q 54.59375 16.890625 54.59375 28.609375 L 54.59375 72.90625 L 64.5 72.90625 L 64.5 27.390625 Q 64.5 13.140625 57.4375 5.859375 Q 50.390625 -1.421875 36.625 -1.421875 Q 22.796875 -1.421875 15.734375 5.859375 Q 8.6875 13.140625 8.6875 27.390625 z"/><path id="DejaVuSans-71" d="M 59.515625 10.40625 L 59.515625 29.984375 L 43.40625 29.984375 L 43.40625 38.09375 L 69.28125 38.09375 L 69.28125 6.78125 Q 63.578125 2.734375 56.6875 0.65625 Q 49.8125 -1.421875 42 -1.421875 Q 24.90625 -1.421875 15.25 8.5625 Q 5.609375 18.5625 5.609375 36.375 Q 5.609375 54.25 15.25 64.234375 Q 24.90625 74.21875 42 74.21875 Q 49.125 74.21875 55.546875 72.453125 Q 61.96875 70.703125 67.390625 67.28125 L 67.390625 56.78125 Q 61.921875 61.421875 55.765625 63.765625 Q 49.609375 66.109375 42.828125 66.109375 Q 29.4375 66.109375 22.71875 58.640625 Q 16.015625 51.171875 16.015625 36.375 Q 16.015625 21.625 22.71875 14.15625 Q 29.4375 6.6875 42.828125 6.6875 Q 48.046875 6.6875 52.140625 7.59375 Q 56.25 8.5 59.515625 10.40625 z"/></defs><g transform="translate(656.454662 63.12)scale(0.096 -0.096)"><use xlink:href="#DejaVuSans-72"/><use x="75.195" xlink:href="#DejaVuSans-79"/><use x="153.906" xlink:href="#DejaVuSans-85"/><use x="227.1" xlink:href="#DejaVuSans-83"/><use x="290.576" xlink:href="#DejaVuSans-73"/><use x="320.068" xlink:href="#DejaVuSans-78"/><use x="394.873" xlink:href="#DejaVuSans-71"/></g></g></g><g id="axes_4"><g id="patch_12"><path d="M 108 504 L 304.941176 504 L 304.941176 314.921739 L 108 314.921739 z" style="fill:#fff"/></g><g id="matplotlib.axis_7"><g id="xtick_10"><g id="line2d_36"><g><use style="stroke:#000;stroke-width:.8" x="108" y="504" xlink:href="#m6ce33624d3"/></g></g><g id="text_30"><g transform="translate(105.455 519.17875)scale(0.08 -0.08)"><use xlink:href="#DejaVuSans-48"/></g></g></g><g id="xtick_11"><g id="line2d_37"><g><use style="stroke:#000;stroke-width:.8" x="188.384" y="504" xlink:href="#m6ce33624d3"/></g></g><g id="text_31"><g transform="translate(183.294154 519.17875)scale(0.08 -0.08)"><use xlink:href="#DejaVuSans-50"/><use x="63.623" xlink:href="#DejaVuSans-48"/></g></g></g><g id="xtick_12"><g id="line2d_38"><g><use style="stroke:#000;stroke-width:.8" x="268.768" y="504" xlink:href="#m6ce33624d3"/></g></g><g id="text_32"><g transform="translate(263.678307 519.17875)scale(0.08 -0.08)"><use xlink:href="#DejaVuSans-52"/><use x="63.623" xlink:href="#DejaVuSans-48"/></g></g></g><g id="text_33"><g transform="translate(181.035151 531.529125)scale(0.088 -0.088)"><use xlink:href="#DejaVuSans-101"/><use x="61.523" xlink:href="#DejaVuSans-118"/><use x="120.703" xlink:href="#DejaVuSans-97"/><use x="181.982" xlink:href="#DejaVuSans-108"/><use x="209.766" xlink:href="#DejaVuSans-117"/><use x="273.145" xlink:href="#DejaVuSans-97"/><use x="334.424" xlink:href="#DejaVuSans-116"/><use x="373.633" xlink:href="#DejaVuSans-105"/><use x="401.416" xlink:href="#DejaVuSans-111"/><use x="462.598" xlink:href="#DejaVuSans-110"/><use x="525.977" xlink:href="#DejaVuSans-115"/></g></g></g><g id="matplotlib.axis_8"><g id="ytick_12"><g id="line2d_39"><g><use style="stroke:#000;stroke-width:.8" x="108" y="467.893" xlink:href="#m3e8a474fc0"/></g></g><g id="text_34"><g transform="translate(79.47375 470.932331)scale(0.08 -0.08)"><use xlink:href="#DejaVuSans-8722"/><use x="83.789" xlink:href="#DejaVuSans-48"/><use x="147.412" xlink:href="#DejaVuSans-46"/><use x="179.199" xlink:href="#DejaVuSans-54"/></g></g></g><g id="ytick_13"><g id="line2d_40"><g><use style="stroke:#000;stroke-width:.8" x="108" y="429.324" xlink:href="#m3e8a474fc0"/></g></g><g id="text_35"><g transform="translate(79.47375 432.363297)scale(0.08 -0.08)"><use xlink:href="#DejaVuSans-8722"/><use x="83.789" xlink:href="#DejaVuSans-48"/><use x="147.412" xlink:href="#DejaVuSans-46"/><use x="179.199" xlink:href="#DejaVuSans-53"/></g></g></g><g id="ytick_14"><g id="line2d_41"><g><use style="stroke:#000;stroke-width:.8" x="108" y="390.755" xlink:href="#m3e8a474fc0"/></g></g><g id="text_36"><g transform="translate(79.47375 393.794263)scale(0.08 -0.08)"><use xlink:href="#DejaVuSans-8722"/><use x="83.789" xlink:href="#DejaVuSans-48"/><use x="147.412" xlink:href="#DejaVuSans-46"/><use x="179.199" xlink:href="#DejaVuSans-52"/></g></g></g><g id="ytick_15"><g id="line2d_42"><g><use style="stroke:#000;stroke-width:.8" x="108" y="352.186" xlink:href="#m3e8a474fc0"/></g></g><g id="text_37"><g transform="translate(79.47375 355.225229)scale(0.08 -0.08)"><use xlink:href="#DejaVuSans-8722"/><use x="83.789" xlink:href="#DejaVuSans-48"/><use x="147.412" xlink:href="#DejaVuSans-46"/><use x="179.199" xlink:href="#DejaVuSans-51"/></g></g></g></g><g id="line2d_43"><path d="M 108 371.312238 L 112.019208 370.540857 L 116.038415 370.047174 L 120.057623 370.047174 L 124.076831 370.047174 L 128.096038 359.819823 L 132.115246 359.819823 L 136.134454 359.621578 L 140.153661 359.423333 L 144.172869 355.917022 L 148.192077 354.847117 L 152.211285 354.847117 L 156.230492 354.046039 L 160.2497 354.046039 L 164.268908 353.323641 L 168.288115 350.579454 L 172.307323 348.926771 L 176.326531 345.987039 L 180.345738 342.034099 L 184.364946 342.034099 L 188.384154 342.034099 L 192.403361 342.034099 L 196.422569 342.034099 L 200.441777 342.034099 L 204.460984 342.034099 L 208.480192 342.034099 L 212.4994 342.034099 L 216.518607 342.034099 L 220.537815 342.034099 L 224.557023 342.034099 L 228.57623 342.034099 L 232.595438 342.034099 L 236.614646 339.065826 L 240.633854 339.065826 L 244.653061 339.065826 L 248.672269 339.065826 L 252.691477 339.00103 L 256.710684 335.400611 L 260.729892 335.400611 L 264.7491 335.400611 L 268.768307 335.400611 L 272.787515 335.400611 L 276.806723 335.400611 L 280.82593 335.400611 L 284.845138 334.883785 L 288.864346 334.883785 L 292.883553 334.883785 L 296.902761 334.883785 L 300.921969 334.883785 L 304.941176 334.883785" clip-path="url(#p516b5a1d25)" style="fill:none;stroke:#1f77b4;stroke-linecap:square;stroke-width:2"/></g><g id="line2d_44"><path d="M 108 370.469216 L 112.019208 357.916799 L 116.038415 357.916799 L 120.057623 357.916799 L 124.076831 357.916799 L 128.096038 353.772161 L 132.115246 353.598275 L 136.134454 353.598275 L 140.153661 353.598275 L 144.172869 353.598275 L 148.192077 353.598275 L 152.211285 353.598275 L 156.230492 353.598275 L 160.2497 353.598275 L 164.268908 353.598275 L 168.288115 353.598275 L 172.307323 353.598275 L 176.326531 353.598275 L 180.345738 353.598275 L 184.364946 353.598275 L 188.384154 353.598275 L 192.403361 353.598275 L 196.422569 353.598275 L 200.441777 353.598275 L 204.460984 353.598275 L 208.480192 353.598275 L 212.4994 353.598275 L 216.518607 353.598275 L 220.537815 353.598275 L 224.557023 353.598275 L 228.57623 353.598275 L 232.595438 353.598275 L 236.614646 353.598275 L 240.633854 353.598275 L 244.653061 353.598275 L 248.672269 353.598275 L 252.691477 353.598275 L 256.710684 343.514209 L 260.729892 343.514209 L 264.7491 343.514209 L 268.768307 343.514209 L 272.787515 343.514209 L 276.806723 343.514209 L 280.82593 343.514209 L 284.845138 343.514209 L 288.864346 343.514209 L 292.883553 343.514209 L 296.902761 343.514209 L 300.921969 343.514209 L 304.941176 343.514209" clip-path="url(#p516b5a1d25)" style="fill:none;stroke:#ff7f0e;stroke-linecap:square;stroke-width:2"/></g><g id="line2d_45"><path d="M 108 495.405534 L 112.019208 421.995806 L 116.038415 356.428448 L 120.057623 348.071824 L 124.076831 335.98686 L 128.096038 335.98686 L 132.115246 335.98686 L 136.134454 335.98686 L 140.153661 335.98686 L 144.172869 335.98686 L 148.192077 335.98686 L 152.211285 335.98686 L 156.230492 335.98686 L 160.2497 335.98686 L 164.268908 335.98686 L 168.288115 335.858296 L 172.307323 335.858296 L 176.326531 335.858296 L 180.345738 335.858296 L 184.364946 335.858296 L 188.384154 335.858296 L 192.403361 335.858296 L 196.422569 335.472606 L 200.441777 335.472606 L 204.460984 335.472606 L 208.480192 335.472606 L 212.4994 335.472606 L 216.518607 335.472606 L 220.537815 335.472606 L 224.557023 335.472606 L 228.57623 335.472606 L 232.595438 335.344043 L 236.614646 335.344043 L 240.633854 335.344043 L 244.653061 327.244545 L 248.672269 327.244545 L 252.691477 326.087474 L 256.710684 326.087474 L 260.729892 326.087474 L 264.7491 325.573221 L 268.768307 325.444657 L 272.787515 325.444657 L 276.806723 325.444657 L 280.82593 325.444657 L 284.845138 325.18753 L 288.864346 325.18753 L 292.883553 325.18753 L 296.902761 325.18753 L 300.921969 325.18753 L 304.941176 323.516206" clip-path="url(#p516b5a1d25)" style="fill:none;stroke:#2ca02c;stroke-linecap:square;stroke-width:2"/></g><g id="patch_13"><path d="M 108 504 L 108 314.921739" style="fill:none;stroke:#000;stroke-linecap:square;stroke-linejoin:miter;stroke-width:.8"/></g><g id="patch_14"><path d="M 108 504 L 304.941176 504" style="fill:none;stroke:#000;stroke-linecap:square;stroke-linejoin:miter;stroke-width:.8"/></g><g id="text_38"><g transform="translate(190.350088 308.921739)scale(0.096 -0.096)"><use xlink:href="#DejaVuSans-83"/><use x="63.477" xlink:href="#DejaVuSans-79"/><use x="142.188" xlink:href="#DejaVuSans-76"/><use x="197.932" xlink:href="#DejaVuSans-65"/><use x="266.34" xlink:href="#DejaVuSans-82"/></g></g></g><g id="axes_5"><g id="patch_15"><path d="M 344.329412 504 L 541.270588 504 L 541.270588 314.921739 L 344.329412 314.921739 z" style="fill:#fff"/></g><g id="matplotlib.axis_9"><g id="xtick_13"><g id="line2d_46"><g><use style="stroke:#000;stroke-width:.8" x="344.329" y="504" xlink:href="#m6ce33624d3"/></g></g><g id="text_39"><g transform="translate(341.784412 519.17875)scale(0.08 -0.08)"><use xlink:href="#DejaVuSans-48"/></g></g></g><g id="xtick_14"><g id="line2d_47"><g><use style="stroke:#000;stroke-width:.8" x="424.714" y="504" xlink:href="#m6ce33624d3"/></g></g><g id="text_40"><g transform="translate(419.623565 519.17875)scale(0.08 -0.08)"><use xlink:href="#DejaVuSans-50"/><use x="63.623" xlink:href="#DejaVuSans-48"/></g></g></g><g id="xtick_15"><g id="line2d_48"><g><use style="stroke:#000;stroke-width:.8" x="505.098" y="504" xlink:href="#m6ce33624d3"/></g></g><g id="text_41"><g transform="translate(500.007719 519.17875)scale(0.08 -0.08)"><use xlink:href="#DejaVuSans-52"/><use x="63.623" xlink:href="#DejaVuSans-48"/></g></g></g><g id="text_42"><g transform="translate(417.364563 531.529125)scale(0.088 -0.088)"><use xlink:href="#DejaVuSans-101"/><use x="61.523" xlink:href="#DejaVuSans-118"/><use x="120.703" xlink:href="#DejaVuSans-97"/><use x="181.982" xlink:href="#DejaVuSans-108"/><use x="209.766" xlink:href="#DejaVuSans-117"/><use x="273.145" xlink:href="#DejaVuSans-97"/><use x="334.424" xlink:href="#DejaVuSans-116"/><use x="373.633" xlink:href="#DejaVuSans-105"/><use x="401.416" xlink:href="#DejaVuSans-111"/><use x="462.598" xlink:href="#DejaVuSans-110"/><use x="525.977" xlink:href="#DejaVuSans-115"/></g></g></g><g id="matplotlib.axis_10"><g id="ytick_16"><g id="line2d_49"><g><use style="stroke:#000;stroke-width:.8" x="344.329" y="472.491" xlink:href="#m3e8a474fc0"/></g></g><g id="text_43"><g transform="translate(330.139412 475.530568)scale(0.08 -0.08)"><use xlink:href="#DejaVuSans-48"/></g></g></g><g id="ytick_17"><g id="line2d_50"><g><use style="stroke:#000;stroke-width:.8" x="344.329" y="401.877" xlink:href="#m3e8a474fc0"/></g></g><g id="text_44"><g transform="translate(330.139412 404.916269)scale(0.08 -0.08)"><use xlink:href="#DejaVuSans-49"/></g></g></g><g id="ytick_18"><g id="line2d_51"><g><use style="stroke:#000;stroke-width:.8" x="344.329" y="331.263" xlink:href="#m3e8a474fc0"/></g></g><g id="text_45"><g transform="translate(330.139412 334.301969)scale(0.08 -0.08)"><use xlink:href="#DejaVuSans-50"/></g></g></g></g><g id="line2d_52"><path d="M 344.329412 378.245112 L 348.348619 360.930486 L 352.367827 351.5176 L 356.387035 342.47897 L 360.406242 336.851716 L 364.42545 336.788163 L 368.444658 336.788163 L 372.463866 336.788163 L 376.483073 336.788163 L 380.502281 332.057005 L 384.521489 332.057005 L 388.540696 327.608304 L 392.559904 327.608304 L 396.579112 327.608304 L 400.598319 327.53769 L 404.617527 327.53769 L 408.636735 327.53769 L 412.655942 327.53769 L 416.67515 327.53769 L 420.694358 324.995575 L 424.713565 324.995575 L 428.732773 324.995575 L 432.751981 324.995575 L 436.771188 324.854347 L 440.790396 324.854347 L 444.809604 324.713118 L 448.828812 324.713118 L 452.848019 324.713118 L 456.867227 324.571889 L 460.886435 324.571889 L 464.905642 324.504806 L 468.92485 324.504806 L 472.944058 324.504806 L 476.963265 324.504806 L 480.982473 324.504806 L 485.001681 324.08112 L 489.020888 323.657434 L 493.040096 323.657434 L 497.059304 323.657434 L 501.078511 323.516206 L 505.097719 323.516206 L 509.116927 323.516206 L 513.136134 323.516206 L 517.155342 323.516206 L 521.17455 323.516206 L 525.193758 323.516206 L 529.212965 323.516206 L 533.232173 323.516206 L 537.251381 323.516206 L 541.270588 323.516206" clip-path="url(#p7c9080207b)" style="fill:none;stroke:#1f77b4;stroke-linecap:square;stroke-width:2"/></g><g id="line2d_53"><path d="M 344.329412 405.288689 L 348.348619 383.36291 L 352.367827 366.957896 L 356.387035 360.587621 L 360.406242 360.070177 L 364.42545 351.809414 L 368.444658 336.68463 L 372.463866 336.250938 L 376.483073 334.151667 L 380.502281 334.151667 L 384.521489 334.151667 L 388.540696 334.151667 L 392.559904 334.151667 L 396.579112 334.151667 L 400.598319 334.151667 L 404.617527 334.151667 L 408.636735 334.151667 L 412.655942 334.151667 L 416.67515 334.151667 L 420.694358 334.151667 L 424.713565 334.151667 L 428.732773 334.151667 L 432.751981 334.151667 L 436.771188 334.151667 L 440.790396 334.151667 L 444.809604 333.134729 L 448.828812 332.284286 L 452.848019 331.956805 L 456.867227 331.133395 L 460.886435 331.070211 L 464.905642 331.070211 L 468.92485 331.070211 L 472.944058 330.936149 L 476.963265 328.381712 L 480.982473 328.381712 L 485.001681 328.381712 L 489.020888 327.354012 L 493.040096 327.354012 L 497.059304 327.354012 L 501.078511 327.335099 L 505.097719 327.142994 L 509.116927 327.142994 L 513.136134 326.851491 L 517.155342 326.731656 L 521.17455 326.644333 L 525.193758 325.99842 L 529.212965 325.789317 L 533.232173 325.754057 L 537.251381 325.640199 L 541.270588 325.640199" clip-path="url(#p7c9080207b)" style="fill:none;stroke:#ff7f0e;stroke-linecap:square;stroke-width:2"/></g><g id="line2d_54"><path d="M 344.329412 495.405534 L 348.348619 397.251657 L 352.367827 397.251657 L 356.387035 397.004507 L 360.406242 397.004507 L 364.42545 375.04346 L 368.444658 375.04346 L 372.463866 336.205595 L 376.483073 336.205595 L 380.502281 336.205595 L 384.521489 336.205595 L 388.540696 336.205595 L 392.559904 336.205595 L 396.579112 336.205595 L 400.598319 336.205595 L 404.617527 336.205595 L 408.636735 333.381023 L 412.655942 333.381023 L 416.67515 333.381023 L 420.694358 333.381023 L 424.713565 333.381023 L 428.732773 333.381023 L 432.751981 333.381023 L 436.771188 333.381023 L 440.790396 333.381023 L 444.809604 333.381023 L 448.828812 333.381023 L 452.848019 333.381023 L 456.867227 333.381023 L 460.886435 333.381023 L 464.905642 333.381023 L 468.92485 333.381023 L 472.944058 333.381023 L 476.963265 333.381023 L 480.982473 333.381023 L 485.001681 332.321809 L 489.020888 332.321809 L 493.040096 332.321809 L 497.059304 332.321809 L 501.078511 332.321809 L 505.097719 331.615666 L 509.116927 331.615666 L 513.136134 331.615666 L 517.155342 331.615666 L 521.17455 331.615666 L 525.193758 331.615666 L 529.212965 331.615666 L 533.232173 331.615666 L 537.251381 331.615666 L 541.270588 331.615666" clip-path="url(#p7c9080207b)" style="fill:none;stroke:#2ca02c;stroke-linecap:square;stroke-width:2"/></g><g id="patch_16"><path d="M 344.329412 504 L 344.329412 314.921739" style="fill:none;stroke:#000;stroke-linecap:square;stroke-linejoin:miter;stroke-width:.8"/></g><g id="patch_17"><path d="M 344.329412 504 L 541.270588 504" style="fill:none;stroke:#000;stroke-linecap:square;stroke-linejoin:miter;stroke-width:.8"/></g><g id="text_46"><g transform="translate(413.7285 308.921739)scale(0.096 -0.096)"><use xlink:href="#DejaVuSans-77"/><use x="86.279" xlink:href="#DejaVuSans-65"/><use x="154.688" xlink:href="#DejaVuSans-85"/><use x="227.881" xlink:href="#DejaVuSans-78"/><use x="302.686" xlink:href="#DejaVuSans-65"/><use x="371.094" xlink:href="#DejaVuSans-32"/><use x="402.881" xlink:href="#DejaVuSans-76"/><use x="458.547" xlink:href="#DejaVuSans-79"/><use x="537.242" xlink:href="#DejaVuSans-65"/></g></g></g><g id="axes_6"><g id="patch_18"><path d="M 580.658824 504 L 777.6 504 L 777.6 314.921739 L 580.658824 314.921739 z" style="fill:#fff"/></g><g id="matplotlib.axis_11"><g id="xtick_16"><g id="line2d_55"><g><use style="stroke:#000;stroke-width:.8" x="580.659" y="504" xlink:href="#m6ce33624d3"/></g></g><g id="text_47"><g transform="translate(578.113824 519.17875)scale(0.08 -0.08)"><use xlink:href="#DejaVuSans-48"/></g></g></g><g id="xtick_17"><g id="line2d_56"><g><use style="stroke:#000;stroke-width:.8" x="661.043" y="504" xlink:href="#m6ce33624d3"/></g></g><g id="text_48"><g transform="translate(655.952977 519.17875)scale(0.08 -0.08)"><use xlink:href="#DejaVuSans-50"/><use x="63.623" xlink:href="#DejaVuSans-48"/></g></g></g><g id="xtick_18"><g id="line2d_57"><g><use style="stroke:#000;stroke-width:.8" x="741.427" y="504" xlink:href="#m6ce33624d3"/></g></g><g id="text_49"><g transform="translate(736.337131 519.17875)scale(0.08 -0.08)"><use xlink:href="#DejaVuSans-52"/><use x="63.623" xlink:href="#DejaVuSans-48"/></g></g></g><g id="text_50"><g transform="translate(653.693974 531.529125)scale(0.088 -0.088)"><use xlink:href="#DejaVuSans-101"/><use x="61.523" xlink:href="#DejaVuSans-118"/><use x="120.703" xlink:href="#DejaVuSans-97"/><use x="181.982" xlink:href="#DejaVuSans-108"/><use x="209.766" xlink:href="#DejaVuSans-117"/><use x="273.145" xlink:href="#DejaVuSans-97"/><use x="334.424" xlink:href="#DejaVuSans-116"/><use x="373.633" xlink:href="#DejaVuSans-105"/><use x="401.416" xlink:href="#DejaVuSans-111"/><use x="462.598" xlink:href="#DejaVuSans-110"/><use x="525.977" xlink:href="#DejaVuSans-115"/></g></g></g><g id="matplotlib.axis_12"><g id="ytick_19"><g id="line2d_58"><g><use style="stroke:#000;stroke-width:.8" x="580.659" y="455.604" xlink:href="#m3e8a474fc0"/></g></g><g id="text_51"><g transform="translate(552.132574 458.643065)scale(0.08 -0.08)"><use xlink:href="#DejaVuSans-8722"/><use x="83.789" xlink:href="#DejaVuSans-49"/><use x="147.412" xlink:href="#DejaVuSans-46"/><use x="179.199" xlink:href="#DejaVuSans-50"/></g></g></g><g id="ytick_20"><g id="line2d_59"><g><use style="stroke:#000;stroke-width:.8" x="580.659" y="393.151" xlink:href="#m3e8a474fc0"/></g></g><g id="text_52"><g transform="translate(552.132574 396.190354)scale(0.08 -0.08)"><use xlink:href="#DejaVuSans-8722"/><use x="83.789" xlink:href="#DejaVuSans-49"/><use x="147.412" xlink:href="#DejaVuSans-46"/><use x="179.199" xlink:href="#DejaVuSans-48"/></g></g></g><g id="ytick_21"><g id="line2d_60"><g><use style="stroke:#000;stroke-width:.8" x="580.659" y="330.698" xlink:href="#m3e8a474fc0"/></g></g><g id="text_53"><g transform="translate(552.132574 333.737642)scale(0.08 -0.08)"><use xlink:href="#DejaVuSans-8722"/><use x="83.789" xlink:href="#DejaVuSans-48"/><use x="147.412" xlink:href="#DejaVuSans-46"/><use x="179.199" xlink:href="#DejaVuSans-56"/></g></g></g></g><g id="line2d_61"><path d="M 580.658824 494.043334 L 584.678031 494.043334 L 588.697239 494.043334 L 592.716447 494.043334 L 596.735654 491.985864 L 600.754862 440.125132 L 604.77407 438.026027 L 608.793277 435.142794 L 612.812485 435.142794 L 616.831693 432.974297 L 620.8509 432.974297 L 624.870108 432.974297 L 628.889316 431.510128 L 632.908523 431.510128 L 636.927731 431.510128 L 640.946939 423.841282 L 644.966146 406.080772 L 648.985354 406.080772 L 653.004562 406.080772 L 657.02377 406.080772 L 661.042977 406.080772 L 665.062185 406.080772 L 669.081393 406.080772 L 673.1006 406.080772 L 677.119808 406.080772 L 681.139016 406.080772 L 685.158223 406.080772 L 689.177431 406.073832 L 693.196639 404.845596 L 697.215846 404.845596 L 701.235054 393.056953 L 705.254262 393.056953 L 709.273469 391.53727 L 713.292677 391.53727 L 717.311885 391.53727 L 721.331092 382.204406 L 725.3503 382.204406 L 729.369508 382.204406 L 733.388715 382.204406 L 737.407923 382.204406 L 741.427131 382.204406 L 745.446339 382.204406 L 749.465546 382.204406 L 753.484754 382.204406 L 757.503962 381.520896 L 761.523169 381.520896 L 765.542377 381.520896 L 769.561585 381.520896 L 773.580792 372.532563 L 777.6 367.62031" clip-path="url(#p4fbf0107b6)" style="fill:none;stroke:#1f77b4;stroke-linecap:square;stroke-width:2"/></g><g id="line2d_62"><path d="M 580.658824 495.405534 L 584.678031 495.405534 L 588.697239 359.365588 L 592.716447 359.365588 L 596.735654 359.365588 L 600.754862 359.365588 L 604.77407 359.365588 L 608.793277 359.365588 L 612.812485 359.365588 L 616.831693 359.365588 L 620.8509 359.365588 L 624.870108 359.365588 L 628.889316 359.365588 L 632.908523 359.365588 L 636.927731 359.365588 L 640.946939 359.365588 L 644.966146 359.365588 L 648.985354 359.365588 L 653.004562 359.365588 L 657.02377 359.365588 L 661.042977 359.365588 L 665.062185 359.365588 L 669.081393 359.365588 L 673.1006 359.365588 L 677.119808 359.365588 L 681.139016 359.365588 L 685.158223 359.365588 L 689.177431 359.365588 L 693.196639 359.365588 L 697.215846 359.365588 L 701.235054 359.365588 L 705.254262 359.365588 L 709.273469 359.365588 L 713.292677 359.365588 L 717.311885 359.365588 L 721.331092 359.365588 L 725.3503 359.365588 L 729.369508 359.365588 L 733.388715 359.365588 L 737.407923 359.365588 L 741.427131 359.365588 L 745.446339 359.365588 L 749.465546 359.365588 L 753.484754 359.365588 L 757.503962 359.365588 L 761.523169 359.365588 L 765.542377 359.365588 L 769.561585 359.365588 L 773.580792 359.365588 L 777.6 359.365588" clip-path="url(#p4fbf0107b6)" style="fill:none;stroke:#ff7f0e;stroke-linecap:square;stroke-width:2"/></g><g id="line2d_63"><path d="M 580.658824 495.157074 L 584.678031 478.503017 L 588.697239 469.135111 L 592.716447 469.135111 L 596.735654 429.789902 L 600.754862 426.667267 L 604.77407 426.667267 L 608.793277 424.58551 L 612.812485 424.58551 L 616.831693 415.217603 L 620.8509 415.217603 L 624.870108 415.217603 L 628.889316 415.217603 L 632.908523 387.322059 L 636.927731 387.322059 L 640.946939 387.322059 L 644.966146 387.322059 L 648.985354 387.322059 L 653.004562 387.322059 L 657.02377 376.705098 L 661.042977 376.705098 L 665.062185 376.705098 L 669.081393 376.705098 L 673.1006 376.705098 L 677.119808 376.705098 L 681.139016 376.705098 L 685.158223 376.705098 L 689.177431 361.09192 L 693.196639 361.09192 L 697.215846 361.09192 L 701.235054 361.09192 L 705.254262 352.244453 L 709.273469 352.244453 L 713.292677 352.244453 L 717.311885 352.244453 L 721.331092 352.244453 L 725.3503 352.244453 L 729.369508 352.244453 L 733.388715 352.244453 L 737.407923 352.244453 L 741.427131 352.244453 L 745.446339 352.244453 L 749.465546 352.244453 L 753.484754 331.53097 L 757.503962 331.53097 L 761.523169 323.724381 L 765.542377 323.724381 L 769.561585 323.516206 L 773.580792 323.516206 L 777.6 323.516206" clip-path="url(#p4fbf0107b6)" style="fill:none;stroke:#2ca02c;stroke-linecap:square;stroke-width:2"/></g><g id="patch_19"><path d="M 580.658824 504 L 580.658824 314.921739" style="fill:none;stroke:#000;stroke-linecap:square;stroke-linejoin:miter;stroke-width:.8"/></g><g id="patch_20"><path d="M 580.658824 504 L 777.6 504" style="fill:none;stroke:#000;stroke-linecap:square;stroke-linejoin:miter;stroke-width:.8"/></g><g id="text_54"><defs><path id="DejaVuSans-67" d="M 64.40625 67.28125 L 64.40625 56.890625 Q 59.421875 61.53125 53.78125 63.8125 Q 48.140625 66.109375 41.796875 66.109375 Q 29.296875 66.109375 22.65625 58.46875 Q 16.015625 50.828125 16.015625 36.375 Q 16.015625 21.96875 22.65625 14.328125 Q 29.296875 6.6875 41.796875 6.6875 Q 48.140625 6.6875 53.78125 8.984375 Q 59.421875 11.28125 64.40625 15.921875 L 64.40625 5.609375 Q 59.234375 2.09375 53.4375 0.328125 Q 47.65625 -1.421875 41.21875 -1.421875 Q 24.65625 -1.421875 15.125 8.703125 Q 5.609375 18.84375 5.609375 36.375 Q 5.609375 53.953125 15.125 64.078125 Q 24.65625 74.21875 41.21875 74.21875 Q 47.75 74.21875 53.53125 72.484375 Q 59.328125 70.75 64.40625 67.28125 z"/></defs><g transform="translate(652.723412 308.921739)scale(0.096 -0.096)"><use xlink:href="#DejaVuSans-67"/><use x="69.824" xlink:href="#DejaVuSans-79"/><use x="148.535" xlink:href="#DejaVuSans-78"/><use x="223.34" xlink:href="#DejaVuSans-67"/><use x="293.164" xlink:href="#DejaVuSans-82"/><use x="362.646" xlink:href="#DejaVuSans-69"/><use x="425.83" xlink:href="#DejaVuSans-84"/><use x="486.914" xlink:href="#DejaVuSans-69"/></g></g></g></g><defs><clipPath id="p19fef6f376"><rect width="196.941" height="189.078" x="108" y="69.12"/></clipPath><clipPath id="p00919cddc8"><rect width="196.941" height="189.078" x="344.329" y="69.12"/></clipPath><clipPath id="pe75d714902"><rect width="196.941" height="189.078" x="580.659" y="69.12"/></clipPath><clipPath id="p516b5a1d25"><rect width="196.941" height="189.078" x="108" y="314.922"/></clipPath><clipPath id="p7c9080207b"><rect width="196.941" height="189.078" x="344.329" y="314.922"/></clipPath><clipPath id="p4fbf0107b6"><rect width="196.941" height="189.078" x="580.659" y="314.922"/></clipPath></defs></svg>