<?xml version="1.0" encoding="utf-8" standalone="no"?>
<!DOCTYPE svg PUBLIC "-//W3C//DTD SVG 1.1//EN"
        "http://www.w3.org/Graphics/SVG/1.1/DTD/svg11.dtd">
<!-- Created with matplotlib (https://matplotlib.org/) -->
<svg xmlns:xlink="http://www.w3.org/1999/xlink" height="576pt" version="1.1" viewBox="0 0 864 576" width="864pt"
     xmlns="http://www.w3.org/2000/svg">
    <defs>
        <style type="text/css">
            *{stroke-linecap:butt;stroke-linejoin:round;}
        </style>
    </defs>
    <g id="figure_1">
        <g id="patch_1">
            <path d="M 0 576
L 864 576 
L 864 0 
L 0 0 
z
" style="fill:#ffffff;"/>
        </g>
        <g id="axes_1">
            <g id="patch_2">
                <path d="M 108 258.198261
L 253.565217 258.198261 
L 253.565217 69.12 
L 108 69.12 
z
" style="fill:#ffffff;"/>
            </g>
            <g id="matplotlib.axis_1"/>
            <g id="matplotlib.axis_2"/>
            <g id="line2d_1">
                <path clip-path="url(#p8ef7d58484)" d="M 114.616601 155.795987
L 116.207767 156.093795 
L 117.798934 156.600388 
L 119.655295 157.425022 
L 121.77685 158.627193 
L 124.1636 160.237797 
L 127.345933 162.668277 
L 139.014487 171.860856 
L 142.196821 173.966906 
L 145.113959 175.632409 
L 147.765903 176.882667 
L 150.152653 177.751422 
L 152.274208 178.280986 
L 154.130569 178.524243 
L 155.98693 178.529488 
L 157.578097 178.318575 
L 159.169263 177.884794 
L 160.76043 177.205332 
L 162.351596 176.258091 
L 163.942763 175.022976 
L 165.53393 173.482936 
L 167.125096 171.625127 
L 168.716263 169.442001 
L 170.572624 166.482471 
L 172.428984 163.088637 
L 174.55054 158.709275 
L 176.93729 153.215699 
L 179.854428 145.856548 
L 184.362733 133.727814 
L 188.871039 121.791587 
L 191.522983 115.384758 
L 193.644538 110.793719 
L 195.500899 107.259828 
L 197.092066 104.639807 
L 198.683232 102.432406 
L 200.009204 100.92793 
L 201.335176 99.741684 
L 202.661148 98.883684 
L 203.721926 98.438715 
L 204.782704 98.211351 
L 205.843481 98.203307 
L 206.904259 98.415465 
L 207.965037 98.847903 
L 209.025814 99.499838 
L 210.351787 100.621162 
L 211.677759 102.078818 
L 213.003731 103.866778 
L 214.594897 106.437576 
L 216.186064 109.456875 
L 218.042425 113.520063 
L 219.898786 118.129551 
L 222.020341 124.00829 
L 224.407091 131.302209 
L 227.324229 140.993053 
L 231.832535 156.917704 
L 236.34084 172.638612 
L 238.992784 181.064331 
L 241.114339 187.033294 
L 242.705506 190.92692 
L 244.296672 194.230403 
L 245.622644 196.4782 
L 246.683422 197.917465 
L 246.948617 198.225055 
L 246.948617 198.225055 
" style="fill:none;stroke:#1f77b4;stroke-linecap:square;stroke-width:2;"/>
            </g>
            <g id="line2d_2">
                <path clip-path="url(#p8ef7d58484)" d="M 114.616601 183.316668
L 115.942573 182.591877 
L 117.268545 181.633802 
L 118.859712 180.184737 
L 120.450878 178.417312 
L 122.042045 176.337568 
L 123.898406 173.520178 
L 125.754766 170.281074 
L 127.611127 166.615662 
L 129.732683 161.897107 
L 131.854238 156.609226 
L 134.240988 149.989338 
L 136.627738 142.69995 
L 139.544876 133.013851 
L 143.787987 117.976477 
L 148.296292 102.171495 
L 150.683042 94.595001 
L 152.539403 89.382958 
L 154.130569 85.530639 
L 155.456542 82.831643 
L 156.782514 80.655271 
L 157.843291 79.323421 
L 158.904069 78.379231 
L 159.699652 77.936958 
L 160.495236 77.730096 
L 161.290819 77.764227 
L 162.086402 78.043672 
L 162.881985 78.571496 
L 163.677569 79.34948 
L 164.738346 80.776437 
L 165.799124 82.645905 
L 166.859902 84.950762 
L 168.185874 88.426131 
L 169.511846 92.531789 
L 171.103012 98.231119 
L 172.959373 105.830594 
L 175.080929 115.557221 
L 177.732873 128.842449 
L 186.749483 175.135886 
L 188.871039 184.559113 
L 190.727399 191.954002 
L 192.58376 198.460724 
L 194.174927 203.292535 
L 195.766093 207.42702 
L 197.35726 210.877091 
L 198.683232 213.252137 
L 200.009204 215.202048 
L 201.335176 216.762286 
L 202.661148 217.97447 
L 203.98712 218.885201 
L 205.313093 219.544578 
L 206.904259 220.077669 
L 208.76062 220.458905 
L 214.860092 221.500659 
L 216.716453 222.165358 
L 218.307619 222.965934 
L 219.898786 224.002787 
L 221.489952 225.282329 
L 223.346313 227.070246 
L 225.467869 229.456663 
L 228.119813 232.820027 
L 235.014868 241.781117 
L 236.871229 243.7599 
L 238.462395 245.160433 
L 239.788367 246.075134 
L 241.114339 246.728022 
L 242.175117 247.043469 
L 243.235895 247.161522 
L 244.296672 247.071313 
L 245.35745 246.763402 
L 246.418228 246.229843 
L 246.948617 245.876384 
L 246.948617 245.876384 
" style="fill:none;stroke:#ff7f0e;stroke-linecap:square;stroke-width:2;"/>
            </g>
            <g id="line2d_3">
                <path clip-path="url(#p8ef7d58484)" d="M 114.616601 190.386175
L 117.268545 195.547472 
L 123.633211 208.216144 
L 125.489572 211.3799 
L 127.080739 213.713985 
L 128.406711 215.336841 
L 129.732683 216.626924 
L 130.79346 217.397386 
L 131.854238 217.919717 
L 132.915016 218.181792 
L 133.975793 218.173639 
L 135.036571 217.887385 
L 136.097349 217.317394 
L 137.158127 216.460002 
L 138.218904 215.313612 
L 139.279682 213.878543 
L 140.605654 211.682229 
L 141.931626 209.046456 
L 143.522793 205.320768 
L 145.113959 201.007975 
L 146.97032 195.28181 
L 149.091875 187.905725 
L 151.478625 178.691375 
L 154.395764 166.39479 
L 158.37368 148.517885 
L 164.207957 122.345113 
L 166.859902 111.427943 
L 168.981457 103.491984 
L 170.837818 97.274837 
L 172.694179 91.838729 
L 174.285345 87.862186 
L 175.611317 85.060513 
L 176.93729 82.74234 
L 178.263262 80.918646 
L 179.324039 79.819399 
L 180.384817 79.040247 
L 181.445595 78.579104 
L 182.241178 78.43954 
L 183.036761 78.474137 
L 184.097539 78.78588 
L 185.158317 79.393221 
L 186.219094 80.286156 
L 187.279872 81.4534 
L 188.605844 83.279459 
L 189.931816 85.489281 
L 191.522983 88.60977 
L 193.379344 92.836533 
L 195.235705 97.62304 
L 197.35726 103.685612 
L 200.009204 112.00363 
L 202.926343 121.901102 
L 206.639065 135.299207 
L 213.53412 161.243916 
L 218.838008 180.781095 
L 222.285535 192.673422 
L 225.202674 202.004984 
L 227.854618 209.810972 
L 230.506563 216.936393 
L 233.158507 223.393886 
L 235.810451 229.240185 
L 238.462395 234.569056 
L 241.644728 240.450352 
L 246.153033 248.250261 
L 246.948617 249.603794 
L 246.948617 249.603794 
" style="fill:none;stroke:#2ca02c;stroke-linecap:square;stroke-width:2;"/>
            </g>
            <g id="patch_3">
                <path d="M 108 258.198261
L 108 69.12 
" style="fill:none;stroke:#000000;stroke-linecap:square;stroke-linejoin:miter;stroke-width:0.8;"/>
            </g>
            <g id="patch_4">
                <path d="M 108 258.198261
L 253.565217 258.198261 
" style="fill:none;stroke:#000000;stroke-linecap:square;stroke-linejoin:miter;stroke-width:0.8;"/>
            </g>
            <g id="text_1">
                <!-- SE -->
                <defs>
                    <path d="M 53.515625 70.515625
L 53.515625 60.890625 
Q 47.90625 63.578125 42.921875 64.890625 
Q 37.9375 66.21875 33.296875 66.21875 
Q 25.25 66.21875 20.875 63.09375 
Q 16.5 59.96875 16.5 54.203125 
Q 16.5 49.359375 19.40625 46.890625 
Q 22.3125 44.4375 30.421875 42.921875 
L 36.375 41.703125 
Q 47.40625 39.59375 52.65625 34.296875 
Q 57.90625 29 57.90625 20.125 
Q 57.90625 9.515625 50.796875 4.046875 
Q 43.703125 -1.421875 29.984375 -1.421875 
Q 24.8125 -1.421875 18.96875 -0.25 
Q 13.140625 0.921875 6.890625 3.21875 
L 6.890625 13.375 
Q 12.890625 10.015625 18.65625 8.296875 
Q 24.421875 6.59375 29.984375 6.59375 
Q 38.421875 6.59375 43.015625 9.90625 
Q 47.609375 13.234375 47.609375 19.390625 
Q 47.609375 24.75 44.3125 27.78125 
Q 41.015625 30.8125 33.5 32.328125 
L 27.484375 33.5 
Q 16.453125 35.6875 11.515625 40.375 
Q 6.59375 45.0625 6.59375 53.421875 
Q 6.59375 63.09375 13.40625 68.65625 
Q 20.21875 74.21875 32.171875 74.21875 
Q 37.3125 74.21875 42.625 73.28125 
Q 47.953125 72.359375 53.515625 70.515625 
z
" id="DejaVuSans-83"/>
                    <path d="M 9.8125 72.90625
L 55.90625 72.90625 
L 55.90625 64.59375 
L 19.671875 64.59375 
L 19.671875 43.015625 
L 54.390625 43.015625 
L 54.390625 34.71875 
L 19.671875 34.71875 
L 19.671875 8.296875 
L 56.78125 8.296875 
L 56.78125 0 
L 9.8125 0 
z
" id="DejaVuSans-69"/>
                </defs>
                <g transform="translate(174.702359 63.12)scale(0.096 -0.096)">
                    <use xlink:href="#DejaVuSans-83"/>
                    <use x="63.476562" xlink:href="#DejaVuSans-69"/>
                </g>
            </g>
        </g>
        <g id="axes_2">
            <g id="patch_5">
                <path d="M 282.678261 258.198261
L 428.243478 258.198261 
L 428.243478 69.12 
L 282.678261 69.12 
z
" style="fill:#ffffff;"/>
            </g>
            <g id="matplotlib.axis_3"/>
            <g id="matplotlib.axis_4"/>
            <g id="line2d_4">
                <path clip-path="url(#p2e263653f3)" d="M 289.294862 164.247249
L 421.626877 97.829624 
L 421.626877 97.829624 
" style="fill:none;stroke:#1f77b4;stroke-linecap:square;stroke-width:2;"/>
            </g>
            <g id="line2d_5">
                <path clip-path="url(#p2e263653f3)" d="M 289.294862 249.603794
L 421.626877 97.829628 
L 421.626877 97.829628 
" style="fill:none;stroke:#ff7f0e;stroke-linecap:square;stroke-width:2;"/>
            </g>
            <g id="line2d_6">
                <path clip-path="url(#p2e263653f3)" d="M 289.294862 77.714466
L 421.626877 97.829638 
L 421.626877 97.829638 
" style="fill:none;stroke:#2ca02c;stroke-linecap:square;stroke-width:2;"/>
            </g>
            <g id="patch_6">
                <path d="M 282.678261 258.198261
L 282.678261 69.12 
" style="fill:none;stroke:#000000;stroke-linecap:square;stroke-linejoin:miter;stroke-width:0.8;"/>
            </g>
            <g id="patch_7">
                <path d="M 282.678261 258.198261
L 428.243478 258.198261 
" style="fill:none;stroke:#000000;stroke-linecap:square;stroke-linejoin:miter;stroke-width:0.8;"/>
            </g>
            <g id="text_2">
                <!-- LIN -->
                <defs>
                    <path d="M 9.8125 72.90625
L 19.671875 72.90625 
L 19.671875 8.296875 
L 55.171875 8.296875 
L 55.171875 0 
L 9.8125 0 
z
" id="DejaVuSans-76"/>
                    <path d="M 9.8125 72.90625
L 19.671875 72.90625 
L 19.671875 0 
L 9.8125 0 
z
" id="DejaVuSans-73"/>
                    <path d="M 9.8125 72.90625
L 23.09375 72.90625 
L 55.421875 11.921875 
L 55.421875 72.90625 
L 64.984375 72.90625 
L 64.984375 0 
L 51.703125 0 
L 19.390625 60.984375 
L 19.390625 0 
L 9.8125 0 
z
" id="DejaVuSans-78"/>
                </defs>
                <g transform="translate(347.77937 63.12)scale(0.096 -0.096)">
                    <use xlink:href="#DejaVuSans-76"/>
                    <use x="55.712891" xlink:href="#DejaVuSans-73"/>
                    <use x="85.205078" xlink:href="#DejaVuSans-78"/>
                </g>
            </g>
        </g>
        <g id="axes_3">
            <g id="patch_8">
                <path d="M 457.356522 258.198261
L 602.921739 258.198261 
L 602.921739 69.12 
L 457.356522 69.12 
z
" style="fill:#ffffff;"/>
            </g>
            <g id="matplotlib.axis_5"/>
            <g id="matplotlib.axis_6"/>
            <g id="line2d_7">
                <path clip-path="url(#p55e95a42bf)" d="M 463.973123 90.728794
L 465.829483 86.713704 
L 467.42065 83.776538 
L 468.746622 81.732822 
L 470.072594 80.087075 
L 471.133372 79.071994 
L 472.19415 78.334355 
L 473.254927 77.880439 
L 474.315705 77.714466 
L 475.376483 77.838807 
L 476.43726 78.253989 
L 477.498038 78.95885 
L 478.558816 79.950511 
L 479.619593 81.224377 
L 480.945565 83.203713 
L 482.271538 85.597614 
L 483.862704 88.987764 
L 485.453871 92.899723 
L 487.310232 98.050737 
L 489.431787 104.588248 
L 492.083731 113.487634 
L 497.122425 131.40379 
L 500.835147 144.229414 
L 503.221897 151.762595 
L 505.343452 157.722469 
L 506.934619 161.618573 
L 508.525785 164.943542 
L 509.851757 167.236222 
L 511.177729 169.068593 
L 512.238507 170.193865 
L 513.299285 171.014468 
L 514.360062 171.533859 
L 515.42084 171.760218 
L 516.481618 171.706443 
L 517.542395 171.389785 
L 518.603173 170.831614 
L 519.929145 169.832871 
L 521.255117 168.552889 
L 523.111478 166.411913 
L 529.476144 158.680163 
L 530.802116 157.549132 
L 531.862894 156.88391 
L 532.923672 156.46743 
L 533.98445 156.328253 
L 534.780033 156.420355 
L 535.575616 156.690007 
L 536.371199 157.143474 
L 537.431977 158.041421 
L 538.492755 159.279073 
L 539.553532 160.855561 
L 540.879504 163.291689 
L 542.205477 166.220278 
L 543.796643 170.329426 
L 545.653004 175.830738 
L 547.774559 182.841324 
L 551.222087 195.165071 
L 555.730392 211.191827 
L 558.117142 218.857946 
L 559.973503 224.167945 
L 561.829864 228.782407 
L 563.42103 232.116896 
L 564.747002 234.42631 
L 566.072974 236.292118 
L 567.133752 237.459478 
L 568.19453 238.336521 
L 569.255307 238.925233 
L 570.316085 239.230533 
L 571.376863 239.260136 
L 572.43764 239.024619 
L 573.498418 238.537296 
L 574.559196 237.814319 
L 575.885168 236.608323 
L 577.21114 235.107185 
L 578.802307 232.987613 
L 581.189056 229.370039 
L 585.697362 222.390769 
L 587.553722 219.988862 
L 588.879695 218.592843 
L 590.205667 217.520632 
L 591.266444 216.921158 
L 592.327222 216.56474 
L 593.388 216.456934 
L 594.448777 216.59665 
L 595.509555 216.976108 
L 596.305138 217.409676 
L 596.305138 217.409676 
" style="fill:none;stroke:#1f77b4;stroke-linecap:square;stroke-width:2;"/>
            </g>
            <g id="line2d_8">
                <path clip-path="url(#p55e95a42bf)" d="M 463.973123 166.260521
L 465.564289 168.274908 
L 467.155456 169.951546 
L 468.746622 171.296094 
L 470.337789 172.318583 
L 471.928955 173.033708 
L 473.520122 173.460468 
L 475.111288 173.621009 
L 476.702455 173.539021 
L 478.293621 173.237872 
L 480.149982 172.637594 
L 482.006343 171.794534 
L 483.862704 170.726386 
L 485.984259 169.240784 
L 488.105815 167.476323 
L 490.22737 165.439258 
L 492.61412 162.850542 
L 495.796453 159.036562 
L 502.691508 150.628699 
L 505.343452 147.810032 
L 507.465007 145.855462 
L 509.321368 144.412493 
L 511.177729 143.259728 
L 512.768896 142.532804 
L 514.360062 142.073028 
L 515.686035 141.911105 
L 517.012007 141.964112 
L 518.337979 142.244493 
L 519.663951 142.764202 
L 520.989923 143.53513 
L 522.315895 144.569061 
L 523.641867 145.877609 
L 524.967839 147.471684 
L 526.559006 149.77469 
L 528.150172 152.513885 
L 529.741339 155.692844 
L 531.5977 159.947741 
L 533.454061 164.760381 
L 535.575616 170.874535 
L 538.22756 179.273957 
L 541.675088 191.026341 
L 547.774559 211.961922 
L 550.161309 219.305721 
L 552.01767 224.345052 
L 553.608837 228.065308 
L 554.934809 230.677841 
L 556.260781 232.805953 
L 557.321559 234.14197 
L 558.382336 235.144756 
L 559.443114 235.814064 
L 560.503892 236.156266 
L 561.299475 236.205753 
L 562.360253 236.010271 
L 563.42103 235.537986 
L 564.481808 234.817882 
L 565.80778 233.620769 
L 567.398947 231.846763 
L 569.785696 228.785812 
L 572.968029 224.704543 
L 574.559196 222.964383 
L 575.885168 221.780292 
L 577.21114 220.896075 
L 578.271918 220.433978 
L 579.332695 220.208279 
L 580.393473 220.230527 
L 581.454251 220.506893 
L 582.515028 221.038053 
L 583.575806 221.818958 
L 584.901778 223.129418 
L 586.22775 224.779568 
L 587.818917 227.141856 
L 589.940472 230.767753 
L 596.305138 242.044096 
L 596.305138 242.044096 
" style="fill:none;stroke:#ff7f0e;stroke-linecap:square;stroke-width:2;"/>
            </g>
            <g id="line2d_9">
                <path clip-path="url(#p55e95a42bf)" d="M 463.973123 249.603794
L 467.42065 239.934308 
L 471.663761 228.164747 
L 474.050511 222.158557 
L 476.172066 217.362975 
L 478.293621 213.1254 
L 480.149982 209.880996 
L 482.006343 207.063611 
L 483.862704 204.666975 
L 485.453871 202.9439 
L 487.045037 201.52269 
L 488.636204 200.396481 
L 490.22737 199.553049 
L 491.818537 198.973493 
L 493.409703 198.632474 
L 495.00087 198.499183 
L 496.857231 198.559989 
L 499.24398 198.890408 
L 502.691508 199.634372 
L 507.730202 200.699218 
L 511.442924 201.220764 
L 519.133562 202.200923 
L 527.619783 203.610952 
L 529.741339 203.613236 
L 531.862894 203.373144 
L 534.249644 202.853958 
L 540.61431 201.297824 
L 542.205477 201.187568 
L 543.796643 201.300676 
L 545.122615 201.595665 
L 546.448587 202.091529 
L 547.774559 202.797897 
L 549.365726 203.925222 
L 550.956892 205.344629 
L 552.813253 207.32804 
L 554.934809 209.929524 
L 562.360253 219.359853 
L 563.951419 220.873556 
L 565.277391 221.853507 
L 566.603363 222.528071 
L 567.664141 222.818958 
L 568.724919 222.867009 
L 569.785696 222.654367 
L 570.846474 222.165569 
L 571.907252 221.38799 
L 572.968029 220.312167 
L 574.028807 218.932292 
L 575.354779 216.777777 
L 576.680751 214.152695 
L 578.271918 210.409327 
L 579.863084 206.074785 
L 581.719445 200.387622 
L 584.371389 191.448777 
L 589.410083 174.213307 
L 591.266444 168.646466 
L 592.857611 164.515749 
L 594.183583 161.617728 
L 595.509555 159.266561 
L 596.305138 158.130252 
L 596.305138 158.130252 
" style="fill:none;stroke:#2ca02c;stroke-linecap:square;stroke-width:2;"/>
            </g>
            <g id="patch_9">
                <path d="M 457.356522 258.198261
L 457.356522 69.12 
" style="fill:none;stroke:#000000;stroke-linecap:square;stroke-linejoin:miter;stroke-width:0.8;"/>
            </g>
            <g id="patch_10">
                <path d="M 457.356522 258.198261
L 602.921739 258.198261 
" style="fill:none;stroke:#000000;stroke-linecap:square;stroke-linejoin:miter;stroke-width:0.8;"/>
            </g>
            <g id="text_3">
                <!-- RQ -->
                <defs>
                    <path d="M 44.390625 34.1875
Q 47.5625 33.109375 50.5625 29.59375 
Q 53.5625 26.078125 56.59375 19.921875 
L 66.609375 0 
L 56 0 
L 46.6875 18.703125 
Q 43.0625 26.03125 39.671875 28.421875 
Q 36.28125 30.8125 30.421875 30.8125 
L 19.671875 30.8125 
L 19.671875 0 
L 9.8125 0 
L 9.8125 72.90625 
L 32.078125 72.90625 
Q 44.578125 72.90625 50.734375 67.671875 
Q 56.890625 62.453125 56.890625 51.90625 
Q 56.890625 45.015625 53.6875 40.46875 
Q 50.484375 35.9375 44.390625 34.1875 
z
M 19.671875 64.796875 
L 19.671875 38.921875 
L 32.078125 38.921875 
Q 39.203125 38.921875 42.84375 42.21875 
Q 46.484375 45.515625 46.484375 51.90625 
Q 46.484375 58.296875 42.84375 61.546875 
Q 39.203125 64.796875 32.078125 64.796875 
z
" id="DejaVuSans-82"/>
                    <path d="M 39.40625 66.21875
Q 28.65625 66.21875 22.328125 58.203125 
Q 16.015625 50.203125 16.015625 36.375 
Q 16.015625 22.609375 22.328125 14.59375 
Q 28.65625 6.59375 39.40625 6.59375 
Q 50.140625 6.59375 56.421875 14.59375 
Q 62.703125 22.609375 62.703125 36.375 
Q 62.703125 50.203125 56.421875 58.203125 
Q 50.140625 66.21875 39.40625 66.21875 
z
M 53.21875 1.3125 
L 66.21875 -12.890625 
L 54.296875 -12.890625 
L 43.5 -1.21875 
Q 41.890625 -1.3125 41.03125 -1.359375 
Q 40.1875 -1.421875 39.40625 -1.421875 
Q 24.03125 -1.421875 14.8125 8.859375 
Q 5.609375 19.140625 5.609375 36.375 
Q 5.609375 53.65625 14.8125 63.9375 
Q 24.03125 74.21875 39.40625 74.21875 
Q 54.734375 74.21875 63.90625 63.9375 
Q 73.09375 53.65625 73.09375 36.375 
Q 73.09375 23.6875 67.984375 14.640625 
Q 62.890625 5.609375 53.21875 1.3125 
z
" id="DejaVuSans-81"/>
                </defs>
                <g transform="translate(523.02538 63.12)scale(0.096 -0.096)">
                    <use xlink:href="#DejaVuSans-82"/>
                    <use x="69.482422" xlink:href="#DejaVuSans-81"/>
                </g>
            </g>
        </g>
        <g id="axes_4">
            <g id="patch_11">
                <path d="M 632.034783 258.198261
L 777.6 258.198261 
L 777.6 69.12 
L 632.034783 69.12 
z
" style="fill:#ffffff;"/>
            </g>
            <g id="matplotlib.axis_7"/>
            <g id="matplotlib.axis_8"/>
            <g id="line2d_10">
                <path clip-path="url(#pf0347959fa)" d="M 638.651383 134.985425
L 639.181772 134.754624 
L 639.712161 134.96876 
L 640.24255 135.489659 
L 641.038133 136.603711 
L 642.098911 138.440667 
L 642.894494 140.176162 
L 643.690077 142.519534 
L 644.485661 145.795486 
L 645.281244 150.230159 
L 646.342022 157.924949 
L 648.728771 176.919803 
L 649.25916 179.641757 
L 649.789549 181.217929 
L 650.054743 181.524209 
L 650.319938 181.496982 
L 650.585132 181.138098 
L 651.115521 179.478956 
L 651.64591 176.740753 
L 652.706688 169.333421 
L 654.03266 160.191875 
L 654.828243 156.213351 
L 655.623826 153.429575 
L 656.949798 150.002546 
L 658.010576 146.991928 
L 660.397326 139.721 
L 660.927715 138.743811 
L 661.458104 138.175582 
L 661.988492 138.025474 
L 662.518881 138.266843 
L 663.04927 138.849686 
L 663.844853 140.237874 
L 664.640437 142.106042 
L 665.701214 145.274807 
L 666.496798 148.287027 
L 667.292381 152.04493 
L 668.087964 156.702503 
L 669.148742 164.305488 
L 671.800686 184.625909 
L 672.596269 188.414758 
L 673.126658 189.812166 
L 673.391852 190.151022 
L 673.657047 190.253564 
L 673.922241 190.129757 
L 674.187436 189.795225 
L 674.717825 188.582217 
L 675.513408 185.840165 
L 676.83938 181.084586 
L 677.369769 179.850425 
L 677.900158 179.246169 
L 678.165352 179.198169 
L 678.430546 179.316785 
L 678.960935 180.008777 
L 679.491324 181.176613 
L 681.082491 185.145104 
L 681.61288 185.73766 
L 681.878074 185.769775 
L 682.143268 185.602186 
L 682.408463 185.224481 
L 682.938852 183.828685 
L 683.46924 181.624839 
L 684.264824 177.118273 
L 686.651574 162.069777 
L 687.447157 158.559923 
L 688.24274 155.939719 
L 691.955462 145.697314 
L 692.220656 145.355934 
L 692.485851 145.225209 
L 692.751045 145.343443 
L 693.01624 145.744899 
L 693.281434 146.457907 
L 693.811823 148.891446 
L 694.342212 152.689934 
L 695.137795 160.608992 
L 697.25935 184.302306 
L 697.789739 187.822808 
L 698.054934 188.908352 
L 698.320128 189.506272 
L 698.585322 189.604556 
L 698.850517 189.204751 
L 699.115711 188.321743 
L 699.6461 185.228267 
L 700.441683 178.000993 
L 702.563239 155.858198 
L 703.358822 150.640283 
L 703.889211 148.550028 
L 704.4196 147.412052 
L 704.949989 146.952168 
L 706.275961 146.517284 
L 706.806349 145.802778 
L 707.336738 144.464318 
L 707.867127 142.436905 
L 708.66271 138.21657 
L 709.988683 129.381556 
L 711.04946 122.613907 
L 711.845043 118.74982 
L 712.375432 117.010083 
L 712.905821 116.024564 
L 713.171016 115.820786 
L 713.43621 115.8061 
L 713.701404 115.973628 
L 714.231793 116.812323 
L 714.762182 118.223868 
L 715.557765 121.087504 
L 717.414126 128.316156 
L 718.20971 130.3929 
L 718.740098 131.119103 
L 719.005293 131.24844 
L 719.270487 131.209817 
L 719.535682 130.997085 
L 720.06607 130.039824 
L 720.596459 128.394805 
L 721.392043 124.847139 
L 723.248404 115.353564 
L 723.778792 113.682657 
L 724.043987 113.217851 
L 724.309181 113.045196 
L 724.574376 113.193331 
L 724.83957 113.685901 
L 725.369959 115.770542 
L 725.900348 119.368639 
L 726.430737 124.443247 
L 727.22632 134.476075 
L 728.552292 155.149587 
L 729.878264 175.32981 
L 730.673847 184.693832 
L 731.204236 189.26615 
L 731.734625 192.401096 
L 732.265014 194.140794 
L 732.530208 194.527328 
L 732.795403 194.622338 
L 733.060597 194.452811 
L 733.325792 194.047548 
L 733.85618 192.647482 
L 734.651764 189.48855 
L 735.977736 182.823779 
L 738.894874 167.840053 
L 740.486041 161.037065 
L 741.812013 155.297781 
L 742.872791 149.658233 
L 743.933568 142.749344 
L 746.320318 126.579457 
L 747.115901 123.170588 
L 747.64629 121.939809 
L 747.911485 121.669452 
L 748.176679 121.63377 
L 748.441873 121.830701 
L 748.707068 122.253814 
L 749.237457 123.732465 
L 749.767846 125.942532 
L 750.563429 130.250522 
L 753.745762 148.962894 
L 755.071734 155.001355 
L 757.458484 164.568374 
L 760.110428 175.28141 
L 761.701594 181.777878 
L 762.231983 183.354032 
L 762.762372 184.290899 
L 763.027567 184.452812 
L 763.292761 184.379491 
L 763.557955 184.052694 
L 763.82315 183.459316 
L 764.353539 181.450273 
L 764.883928 178.372171 
L 765.679511 172.043402 
L 767.270677 156.321247 
L 768.331455 146.656743 
L 769.127038 141.089769 
L 769.922622 137.321745 
L 770.45301 135.801033 
L 770.983399 134.985428 
L 770.983399 134.985428 
" style="fill:none;stroke:#1f77b4;stroke-linecap:square;stroke-width:2;"/>
            </g>
            <g id="line2d_11">
                <path clip-path="url(#pf0347959fa)" d="M 638.651383 143.437226
L 640.772939 158.165691 
L 641.568522 162.133633 
L 642.098911 163.958969 
L 642.6293 165.124499 
L 643.159689 165.717563 
L 643.690077 165.897232 
L 645.016049 165.986629 
L 645.546438 166.497075 
L 646.076827 167.588397 
L 646.607216 169.405647 
L 647.137605 172.036744 
L 647.933188 177.552142 
L 648.728771 184.77501 
L 650.319938 202.061256 
L 651.380716 212.647027 
L 652.176299 218.211305 
L 652.706688 220.280523 
L 652.971882 220.765582 
L 653.237077 220.877986 
L 653.502271 220.62454 
L 653.767465 220.021362 
L 654.297854 217.874101 
L 655.093437 212.893225 
L 657.214993 198.004541 
L 658.275771 192.788859 
L 659.601743 186.69133 
L 660.397326 181.737273 
L 661.192909 175.276327 
L 662.784076 159.552117 
L 663.844853 150.093948 
L 664.640437 145.126523 
L 665.170825 143.098681 
L 665.701214 142.106132 
L 665.966409 141.971291 
L 666.231603 142.05367 
L 666.496798 142.330961 
L 667.027186 143.369232 
L 667.82277 145.730465 
L 669.413936 150.869511 
L 670.209519 152.595684 
L 670.739908 153.174966 
L 671.005103 153.259894 
L 671.270297 153.195469 
L 671.535492 152.973402 
L 672.06588 152.03131 
L 672.596269 150.407131 
L 673.391852 146.760504 
L 674.45263 140.280217 
L 675.778602 132.07664 
L 676.574186 128.628611 
L 677.104574 127.356654 
L 677.369769 127.069512 
L 677.634963 127.02243 
L 677.900158 127.215705 
L 678.165352 127.645813 
L 678.695741 129.186215 
L 679.22613 131.557698 
L 680.021713 136.416631 
L 681.082491 144.635596 
L 683.204046 163.556249 
L 685.060407 179.506252 
L 686.121185 187.062259 
L 686.916768 191.382577 
L 687.447157 193.466746 
L 687.977546 194.880893 
L 688.507934 195.66337 
L 689.038323 195.917745 
L 689.568712 195.805683 
L 690.894684 195.256409 
L 691.425073 195.42517 
L 691.955462 195.987409 
L 692.485851 196.933669 
L 694.077017 200.436628 
L 694.342212 200.755369 
L 694.607406 200.889905 
L 694.872601 200.801165 
L 695.137795 200.453995 
L 695.402989 199.818705 
L 695.933378 197.60025 
L 696.463767 194.063852 
L 697.25935 186.477397 
L 698.585322 170.217817 
L 699.6461 157.877486 
L 700.441683 151.136618 
L 700.972072 148.242659 
L 701.502461 146.62932 
L 701.767655 146.256568 
L 702.03285 146.13367 
L 702.298044 146.224692 
L 702.828433 146.892704 
L 703.624016 148.545075 
L 705.215183 151.884513 
L 706.010766 153.600936 
L 706.541155 155.136825 
L 707.071544 157.234956 
L 707.601933 160.066508 
L 708.397516 165.87154 
L 709.193099 173.438645 
L 712.375432 206.605695 
L 712.905821 209.721401 
L 713.43621 211.467469 
L 713.701404 211.775346 
L 713.966599 211.686498 
L 714.231793 211.191122 
L 714.496988 210.283763 
L 715.027376 207.234505 
L 715.557765 202.590277 
L 716.353349 192.945123 
L 717.414126 176.407008 
L 719.535682 141.790738 
L 720.331265 132.204521 
L 720.861654 127.562554 
L 721.392043 124.41892 
L 721.922431 122.738857 
L 722.187626 122.410654 
L 722.45282 122.393972 
L 722.718015 122.661713 
L 723.248404 123.929139 
L 723.778792 125.958156 
L 724.83957 131.318773 
L 728.287098 149.733916 
L 729.347875 154.655129 
L 730.143458 157.373292 
L 730.673847 158.380558 
L 730.939042 158.578824 
L 731.204236 158.552248 
L 731.469431 158.29068 
L 731.734625 157.789475 
L 732.265014 156.079636 
L 732.795403 153.50656 
L 733.590986 148.430882 
L 735.447347 135.702657 
L 736.24293 132.08736 
L 736.773319 130.753317 
L 737.038513 130.431529 
L 737.303708 130.33685 
L 737.568902 130.460178 
L 737.834097 130.787208 
L 738.364485 131.97177 
L 739.160069 134.673717 
L 740.486041 139.497691 
L 741.01643 140.798916 
L 741.546819 141.442155 
L 741.812013 141.478099 
L 742.077207 141.311489 
L 742.342402 140.938701 
L 742.872791 139.580311 
L 743.403179 137.450161 
L 744.198763 133.023174 
L 745.25954 125.524002 
L 747.64629 107.824557 
L 748.441873 103.644096 
L 748.972262 101.909444 
L 749.237457 101.441834 
L 749.502651 101.277589 
L 749.767846 101.442686 
L 750.03304 101.960706 
L 750.563429 104.131995 
L 751.093818 107.895118 
L 751.624207 113.255227 
L 752.41979 124.003658 
L 753.745762 146.521768 
L 755.071734 168.510696 
L 755.867317 178.410412 
L 756.397706 182.973146 
L 756.928095 185.759802 
L 757.193289 186.490729 
L 757.458484 186.797768 
L 757.723678 186.702816 
L 757.988873 186.233578 
L 758.519261 184.305903 
L 759.04965 181.312266 
L 760.110428 173.401333 
L 762.231983 156.859605 
L 763.557955 148.400816 
L 765.149122 139.740787 
L 766.2099 135.007305 
L 767.005483 132.51597 
L 767.535872 131.591815 
L 767.801066 131.392171 
L 768.066261 131.381365 
L 768.331455 131.566446 
L 768.596649 131.951441 
L 769.127038 133.320689 
L 769.657427 135.454289 
L 770.45301 139.881733 
L 770.983399 143.437221 
L 770.983399 143.437221 
" style="fill:none;stroke:#ff7f0e;stroke-linecap:square;stroke-width:2;"/>
            </g>
            <g id="line2d_12">
                <path clip-path="url(#pf0347959fa)" d="M 638.651383 112.400674
L 640.772939 122.255132 
L 641.568522 127.512643 
L 642.364105 134.462766 
L 643.424883 146.123457 
L 645.281244 167.651163 
L 646.076827 174.536258 
L 646.607216 177.682081 
L 647.137605 179.47879 
L 647.402799 179.8379 
L 647.667994 179.826696 
L 647.933188 179.441291 
L 648.198383 178.681234 
L 648.728771 176.053561 
L 649.25916 172.016757 
L 650.054743 163.657252 
L 651.115521 149.583254 
L 652.706688 128.031793 
L 653.502271 119.45606 
L 654.297854 112.939371 
L 655.093437 108.062033 
L 657.214993 96.283618 
L 659.601743 80.389157 
L 660.132131 78.418671 
L 660.397326 77.894604 
L 660.66252 77.714466 
L 660.927715 77.894907 
L 661.192909 78.442977 
L 661.723298 80.619731 
L 662.253687 84.100696 
L 663.04927 91.106285 
L 664.905631 108.437422 
L 665.701214 113.389175 
L 666.231603 115.517314 
L 666.761992 116.83931 
L 667.292381 117.586791 
L 669.148742 119.419999 
L 669.944325 121.006781 
L 672.331075 126.592642 
L 672.861464 127.287383 
L 673.391852 127.72035 
L 674.187436 128.062981 
L 674.983019 128.402275 
L 675.513408 128.825938 
L 676.043797 129.500035 
L 676.83938 131.004706 
L 679.22613 136.393284 
L 679.756519 137.06424 
L 680.286907 137.425187 
L 680.817296 137.507591 
L 681.347685 137.374246 
L 682.143268 136.926866 
L 683.46924 135.90132 
L 684.264824 135.104558 
L 685.060407 133.983076 
L 685.85599 132.328116 
L 686.651574 129.968297 
L 687.447157 126.83469 
L 688.507934 121.636438 
L 690.364295 112.078558 
L 691.159879 109.000483 
L 691.690267 107.548109 
L 692.220656 106.612621 
L 692.751045 106.174447 
L 693.281434 106.177271 
L 693.811823 106.539841 
L 694.607406 107.548077 
L 696.463767 110.258797 
L 696.994156 110.665922 
L 697.524545 110.759882 
L 698.054934 110.516883 
L 698.585322 109.979942 
L 699.911295 108.38067 
L 700.176489 108.269181 
L 700.441683 108.316525 
L 700.706878 108.561492 
L 700.972072 109.039994 
L 701.502461 110.815674 
L 702.03285 113.804958 
L 702.563239 118.020008 
L 703.358822 126.239409 
L 705.215183 146.657732 
L 705.745572 150.403605 
L 706.275961 152.424537 
L 706.541155 152.726081 
L 706.806349 152.548795 
L 707.071544 151.905515 
L 707.601933 149.340127 
L 708.132322 145.388907 
L 710.519071 125.323997 
L 711.04946 123.402922 
L 711.314655 123.004425 
L 711.579849 122.979654 
L 711.845043 123.314082 
L 712.110238 123.983561 
L 712.640627 126.192743 
L 713.43621 131.051517 
L 715.557765 145.218834 
L 716.353349 148.88952 
L 716.883737 150.57745 
L 717.414126 151.612521 
L 717.679321 151.874197 
L 717.944515 151.959603 
L 718.20971 151.865125 
L 718.474904 151.588353 
L 719.005293 150.488948 
L 719.535682 148.695851 
L 720.331265 144.950434 
L 722.187626 135.503511 
L 722.718015 134.006792 
L 722.983209 133.630174 
L 723.248404 133.529481 
L 723.513598 133.717298 
L 723.778792 134.199159 
L 724.309181 136.033167 
L 724.83957 138.947516 
L 725.635153 144.977162 
L 726.961125 157.658807 
L 729.61307 183.581659 
L 732.530208 210.628451 
L 735.712541 242.355406 
L 736.508125 247.160438 
L 737.038513 248.969955 
L 737.303708 249.432435 
L 737.568902 249.603794 
L 737.834097 249.494491 
L 738.099291 249.120604 
L 738.62968 247.666473 
L 739.160069 245.447048 
L 740.220846 239.589404 
L 741.812013 229.16687 
L 742.872791 220.619125 
L 743.668374 212.397019 
L 744.463957 202.090917 
L 745.524735 185.155679 
L 748.707068 130.951169 
L 749.502651 122.201536 
L 750.03304 118.226674 
L 750.563429 115.814337 
L 750.828623 115.192198 
L 751.093818 114.949917 
L 751.359012 115.075383 
L 751.624207 115.552648 
L 752.154595 117.480894 
L 752.684984 120.538203 
L 753.480567 126.696966 
L 755.867317 147.117337 
L 756.662901 151.420105 
L 757.193289 153.043606 
L 757.458484 153.457842 
L 757.723678 153.606354 
L 757.988873 153.493176 
L 758.254067 153.12531 
L 758.784456 151.664419 
L 759.314845 149.313567 
L 760.110428 144.326482 
L 760.906011 137.842665 
L 761.966789 127.358462 
L 764.618733 99.966953 
L 765.414316 94.836769 
L 765.944705 92.883961 
L 766.2099 92.373478 
L 766.475094 92.169688 
L 766.740288 92.261611 
L 767.005483 92.632372 
L 767.535872 94.117695 
L 768.066261 96.401987 
L 769.127038 102.313746 
L 770.718205 111.135276 
L 770.983399 112.400677 
L 770.983399 112.400677 
" style="fill:none;stroke:#2ca02c;stroke-linecap:square;stroke-width:2;"/>
            </g>
            <g id="patch_12">
                <path d="M 632.034783 258.198261
L 632.034783 69.12 
" style="fill:none;stroke:#000000;stroke-linecap:square;stroke-linejoin:miter;stroke-width:0.8;"/>
            </g>
            <g id="patch_13">
                <path d="M 632.034783 258.198261
L 777.6 258.198261 
" style="fill:none;stroke:#000000;stroke-linecap:square;stroke-linejoin:miter;stroke-width:0.8;"/>
            </g>
            <g id="text_4">
                <!-- PER -->
                <defs>
                    <path d="M 19.671875 64.796875
L 19.671875 37.40625 
L 32.078125 37.40625 
Q 38.96875 37.40625 42.71875 40.96875 
Q 46.484375 44.53125 46.484375 51.125 
Q 46.484375 57.671875 42.71875 61.234375 
Q 38.96875 64.796875 32.078125 64.796875 
z
M 9.8125 72.90625 
L 32.078125 72.90625 
Q 44.34375 72.90625 50.609375 67.359375 
Q 56.890625 61.8125 56.890625 51.125 
Q 56.890625 40.328125 50.609375 34.8125 
Q 44.34375 29.296875 32.078125 29.296875 
L 19.671875 29.296875 
L 19.671875 0 
L 9.8125 0 
z
" id="DejaVuSans-80"/>
                </defs>
                <g transform="translate(695.554891 63.12)scale(0.096 -0.096)">
                    <use xlink:href="#DejaVuSans-80"/>
                    <use x="60.302734" xlink:href="#DejaVuSans-69"/>
                    <use x="123.486328" xlink:href="#DejaVuSans-82"/>
                </g>
            </g>
        </g>
        <g id="axes_5">
            <g id="patch_14">
                <path d="M 108 504
L 253.565217 504 
L 253.565217 314.921739 
L 108 314.921739 
z
" style="fill:#ffffff;"/>
            </g>
            <g id="matplotlib.axis_9"/>
            <g id="matplotlib.axis_10"/>
            <g id="line2d_13">
                <path clip-path="url(#p590d4d1fe3)" d="M 114.616601 443.656137
L 115.412184 439.269494 
L 119.3901 421.009504 
L 119.920489 419.141157 
L 120.450878 418.062354 
L 120.716072 417.911177 
L 120.981267 418.064346 
L 121.246461 418.551787 
L 121.511656 419.398778 
L 122.042045 422.243262 
L 122.572433 426.670569 
L 123.368017 436.116601 
L 124.428794 452.509682 
L 125.754766 473.489643 
L 126.55035 482.569622 
L 127.080739 485.947618 
L 127.345933 486.677772 
L 127.611127 486.726392 
L 127.876322 486.078545 
L 128.141516 484.73339 
L 128.671905 480.018491 
L 129.202294 472.850281 
L 129.997877 458.542419 
L 132.649821 406.409634 
L 133.445405 396.85134 
L 133.975793 392.999374 
L 134.506182 391.176331 
L 134.771377 390.99634 
L 135.036571 391.279867 
L 135.301766 392.005742 
L 135.832154 394.696536 
L 136.362543 398.898503 
L 137.158127 407.712061 
L 137.95371 419.14124 
L 139.279682 442.303989 
L 140.870848 469.854024 
L 141.666432 479.514875 
L 142.196821 483.398678 
L 142.462015 484.48496 
L 142.727209 484.991289 
L 142.992404 484.927236 
L 143.257598 484.315116 
L 143.787987 481.592575 
L 144.318376 477.204162 
L 145.113959 468.544125 
L 147.235515 443.783371 
L 148.031098 436.669477 
L 148.826681 431.591577 
L 149.35707 429.56753 
L 149.622264 429.019358 
L 149.887459 428.803803 
L 150.152653 428.935544 
L 150.417848 429.425341 
L 150.948236 431.495001 
L 151.478625 434.974951 
L 152.274208 442.449904 
L 155.191347 474.25579 
L 155.721736 477.694956 
L 156.252125 479.924872 
L 156.517319 480.576017 
L 156.782514 480.918626 
L 157.047708 480.955761 
L 157.312902 480.691978 
L 157.578097 480.132854 
L 158.108486 478.155537 
L 158.638875 475.087198 
L 159.434458 468.626446 
L 160.495236 457.193586 
L 163.942763 415.972068 
L 164.738346 410.023327 
L 165.268735 407.409636 
L 165.799124 405.914359 
L 166.064318 405.576456 
L 166.329513 405.499718 
L 166.594707 405.671637 
L 166.859902 406.077472 
L 167.39029 407.523563 
L 167.920679 409.692523 
L 168.716263 413.959764 
L 170.572624 425.921389 
L 171.898596 433.692926 
L 172.959373 438.562555 
L 174.020151 442.203964 
L 174.815734 444.185199 
L 175.611317 445.48768 
L 176.141706 445.935226 
L 176.672095 446.024495 
L 177.202484 445.765631 
L 177.732873 445.206804 
L 178.793651 443.568841 
L 179.854428 442.052662 
L 180.384817 441.607545 
L 180.915206 441.443636 
L 181.445595 441.559382 
L 181.975984 441.916127 
L 182.771567 442.767457 
L 185.688705 446.362248 
L 186.484289 446.98126 
L 187.279872 447.301238 
L 188.075455 447.324269 
L 189.931816 447.06569 
L 190.727399 447.307349 
L 191.788177 448.023024 
L 192.58376 448.471483 
L 193.114149 448.472597 
L 193.644538 448.073804 
L 194.174927 447.172166 
L 194.705316 445.718313 
L 195.500899 442.548637 
L 196.561677 436.991282 
L 198.418038 426.972152 
L 199.213621 423.776415 
L 199.74401 422.258739 
L 200.274399 421.313607 
L 200.539593 421.075782 
L 200.804787 421.004889 
L 201.069982 421.108701 
L 201.335176 421.394807 
L 201.865565 422.542717 
L 202.395954 424.498309 
L 202.926343 427.289268 
L 203.721926 433.003411 
L 204.782704 442.936674 
L 206.639065 461.260293 
L 207.434648 466.663262 
L 207.965037 468.78514 
L 208.230231 469.3587 
L 208.495426 469.606179 
L 208.76062 469.536421 
L 209.025814 469.165419 
L 209.556203 467.614447 
L 210.086592 465.188037 
L 211.14737 458.820905 
L 212.738536 449.013254 
L 213.799314 443.738647 
L 214.860092 439.652479 
L 215.655675 437.313116 
L 216.451258 435.582634 
L 217.246842 434.46001 
L 217.77723 434.034827 
L 218.307619 433.843492 
L 218.838008 433.855133 
L 219.633591 434.178869 
L 220.429175 434.785312 
L 221.224758 435.630161 
L 222.020341 436.737523 
L 222.815924 438.180906 
L 223.611508 440.033339 
L 224.672285 443.137125 
L 227.059035 450.564007 
L 227.589424 451.652132 
L 228.119813 452.350657 
L 228.650202 452.623886 
L 229.18059 452.47461 
L 229.710979 451.942949 
L 230.506563 450.589907 
L 233.423701 444.694049 
L 234.219284 443.83849 
L 234.749673 443.517589 
L 235.545257 443.352473 
L 236.34084 443.447479 
L 237.932006 443.744641 
L 238.72759 443.629135 
L 239.523173 443.208146 
L 240.318756 442.485019 
L 241.644728 440.861947 
L 242.9707 439.265743 
L 244.031478 438.33388 
L 244.827061 437.883213 
L 245.887839 437.557657 
L 246.948617 437.439798 
L 246.948617 437.439798 
" style="fill:none;stroke:#1f77b4;stroke-linecap:square;stroke-width:2;"/>
            </g>
            <g id="line2d_14">
                <path clip-path="url(#p590d4d1fe3)" d="M 114.616601 413.698461
L 115.14699 410.198889 
L 115.677378 408.188985 
L 115.942573 407.730472 
L 116.207767 407.613171 
L 116.472962 407.810122 
L 116.738156 408.287536 
L 117.268545 409.922048 
L 118.064128 413.39895 
L 119.655295 420.428671 
L 120.981267 425.79043 
L 121.77685 430.394991 
L 122.572433 437.018133 
L 123.633211 448.66453 
L 124.959183 463.0974 
L 125.489572 466.94528 
L 126.019961 468.906908 
L 126.285155 469.075995 
L 126.55035 468.673881 
L 126.815544 467.694679 
L 127.345933 464.044424 
L 127.876322 458.312463 
L 128.671905 446.537232 
L 129.997877 421.75677 
L 132.384627 375.458682 
L 133.445405 358.956961 
L 134.240988 349.97973 
L 134.771377 346.101086 
L 135.301766 344.156968 
L 135.56696 343.957452 
L 135.832154 344.287977 
L 136.097349 345.15282 
L 136.627738 348.473167 
L 137.158127 353.835117 
L 137.95371 365.301269 
L 139.014487 385.428502 
L 141.401237 434.227907 
L 142.196821 445.616015 
L 142.727209 450.508385 
L 142.992404 452.021562 
L 143.257598 452.876377 
L 143.522793 453.057613 
L 143.787987 452.560876 
L 144.053181 451.393444 
L 144.58357 447.137697 
L 145.113959 440.600133 
L 145.909542 427.672273 
L 147.765903 395.961871 
L 148.296292 389.824973 
L 148.826681 385.857905 
L 149.091875 384.714402 
L 149.35707 384.107905 
L 149.622264 383.999566 
L 149.887459 384.335625 
L 150.417848 386.068155 
L 151.213431 390.141684 
L 152.009014 394.195194 
L 152.539403 396.193423 
L 153.069792 397.47278 
L 153.600181 398.168148 
L 154.660958 399.189605 
L 155.191347 400.351678 
L 155.721736 402.402969 
L 156.252125 405.488481 
L 157.047708 411.868566 
L 158.904069 428.460909 
L 159.434458 431.522604 
L 159.964847 433.171088 
L 160.230041 433.419406 
L 160.495236 433.280963 
L 160.76043 432.766635 
L 161.290819 430.700312 
L 161.821208 427.477706 
L 162.881985 419.035869 
L 163.942763 410.77632 
L 164.473152 407.77488 
L 165.003541 406.010724 
L 165.268735 405.678036 
L 165.53393 405.74269 
L 165.799124 406.21711 
L 166.064318 407.103954 
L 166.594707 410.073645 
L 167.125096 414.464716 
L 168.185874 426.032792 
L 169.511846 440.714943 
L 170.307429 447.067474 
L 170.837818 449.795511 
L 171.368207 451.29169 
L 171.633401 451.607663 
L 171.898596 451.662455 
L 172.16379 451.481196 
L 172.694179 450.52396 
L 173.489762 448.065763 
L 175.080929 442.679503 
L 175.611317 441.668739 
L 175.876512 441.432923 
L 176.141706 441.40276 
L 176.406901 441.591745 
L 176.672095 442.0078 
L 177.202484 443.521943 
L 177.732873 445.883216 
L 178.528456 450.64285 
L 180.384817 462.699029 
L 180.915206 465.124105 
L 181.445595 466.710726 
L 181.710789 467.156311 
L 181.975984 467.362262 
L 182.241178 467.328928 
L 182.506372 467.06139 
L 183.036761 465.866183 
L 183.56715 463.899453 
L 184.362733 459.883169 
L 190.992594 421.118742 
L 192.053372 414.627894 
L 192.848955 411.102816 
L 193.379344 409.843379 
L 193.644538 409.620573 
L 193.909733 409.697393 
L 194.174927 410.090047 
L 194.440121 410.810124 
L 194.97051 413.253717 
L 195.500899 417.016967 
L 196.296482 424.897249 
L 197.35726 438.418921 
L 199.213621 462.962617 
L 200.009204 470.718275 
L 200.539593 474.260901 
L 201.069982 476.32115 
L 201.335176 476.775021 
L 201.600371 476.845005 
L 201.865565 476.537923 
L 202.13076 475.865468 
L 202.661148 473.493181 
L 203.191537 469.902565 
L 203.98712 462.72718 
L 205.578287 445.177911 
L 206.904259 431.370363 
L 207.699842 424.798184 
L 208.495426 419.890313 
L 209.291009 416.644892 
L 209.821398 415.312203 
L 210.351787 414.552046 
L 210.882175 414.289638 
L 211.412564 414.471185 
L 211.942953 415.071907 
L 212.473342 416.095045 
L 213.003731 417.562345 
L 213.799314 420.647379 
L 214.594897 424.796666 
L 215.655675 431.707043 
L 218.307619 449.928882 
L 219.103202 453.640738 
L 219.633591 455.257869 
L 220.16398 456.091056 
L 220.429175 456.199881 
L 220.694369 456.102581 
L 220.959563 455.803116 
L 221.489952 454.633778 
L 222.020341 452.805633 
L 223.081119 447.926434 
L 224.141896 443.008005 
L 224.93748 440.371031 
L 225.467869 439.375757 
L 225.733063 439.122352 
L 225.998257 439.026348 
L 226.263452 439.077655 
L 226.793841 439.561534 
L 227.589424 440.937544 
L 228.915396 443.453592 
L 229.445785 444.079915 
L 229.976174 444.341418 
L 230.506563 444.206146 
L 231.036951 443.687438 
L 231.56734 442.83564 
L 232.362923 441.105678 
L 234.484479 436.063643 
L 235.280062 434.791388 
L 235.810451 434.269906 
L 236.34084 434.027724 
L 236.871229 434.056746 
L 237.401617 434.328464 
L 238.197201 435.083994 
L 240.583951 437.764324 
L 241.379534 438.17407 
L 242.175117 438.249271 
L 242.9707 438.079282 
L 245.35745 437.371524 
L 246.418228 437.364629 
L 246.948617 437.439803 
L 246.948617 437.439803 
" style="fill:none;stroke:#ff7f0e;stroke-linecap:square;stroke-width:2;"/>
            </g>
            <g id="line2d_15">
                <path clip-path="url(#p590d4d1fe3)" d="M 114.616601 344.830316
L 115.14699 350.362539 
L 115.677378 358.213666 
L 116.472962 373.6314 
L 118.594517 419.124525 
L 119.124906 427.08477 
L 119.655295 432.451081 
L 119.920489 434.073254 
L 120.185684 434.968615 
L 120.450878 435.138129 
L 120.716072 434.593608 
L 120.981267 433.356189 
L 121.511656 428.924244 
L 122.042045 422.141022 
L 122.837628 408.369934 
L 124.1636 379.517352 
L 125.754766 345.408843 
L 126.55035 332.991136 
L 127.080739 327.43056 
L 127.611127 324.274639 
L 127.876322 323.603056 
L 128.141516 323.516206 
L 128.406711 323.987315 
L 128.671905 324.981515 
L 129.202294 328.369165 
L 129.997877 336.220896 
L 131.058655 349.792273 
L 133.445405 381.212982 
L 134.506182 392.013084 
L 135.56696 400.176671 
L 136.627738 406.288843 
L 137.688515 411.091119 
L 138.484099 413.870495 
L 139.014487 415.132406 
L 139.544876 415.716834 
L 139.810071 415.697774 
L 140.075265 415.444594 
L 140.34046 414.941969 
L 140.870848 413.152256 
L 141.401237 410.313053 
L 142.196821 404.271996 
L 143.257598 393.804792 
L 146.174737 363.260525 
L 146.97032 357.2483 
L 147.500709 354.379225 
L 148.031098 352.638187 
L 148.296292 352.244726 
L 148.561487 352.194949 
L 148.826681 352.505437 
L 149.091875 353.190351 
L 149.622264 355.727121 
L 150.152653 359.866035 
L 150.683042 365.626006 
L 151.478625 377.244393 
L 152.274208 392.176946 
L 153.334986 416.179005 
L 155.721736 472.265981 
L 156.517319 485.319423 
L 157.047708 491.139348 
L 157.578097 494.470909 
L 157.843291 495.223306 
L 158.108486 495.405534 
L 158.37368 495.063263 
L 158.638875 494.253887 
L 159.169263 491.51127 
L 160.230041 483.767163 
L 161.025624 478.448663 
L 161.556013 476.030294 
L 162.086402 474.766213 
L 162.351596 474.564375 
L 162.616791 474.62065 
L 162.881985 474.898508 
L 163.412374 475.925601 
L 164.473152 478.229161 
L 164.738346 478.513356 
L 165.003541 478.580804 
L 165.268735 478.396242 
L 165.53393 477.935375 
L 166.064318 476.146904 
L 166.594707 473.258047 
L 167.39029 467.362383 
L 169.246651 452.488014 
L 170.042235 447.806059 
L 170.837818 444.263151 
L 172.959373 435.579591 
L 175.080929 425.74524 
L 175.611317 424.318354 
L 176.141706 423.670711 
L 176.406901 423.65837 
L 176.672095 423.851878 
L 177.202484 424.818867 
L 177.732873 426.456937 
L 178.528456 429.834874 
L 179.854428 436.749174 
L 183.56715 456.739951 
L 185.688705 465.892663 
L 186.749483 471.032591 
L 188.871039 482.071627 
L 189.401427 483.966741 
L 189.931816 485.141518 
L 190.197011 485.432553 
L 190.462205 485.524737 
L 190.727399 485.425082 
L 191.257788 484.706829 
L 191.788177 483.434348 
L 192.848955 480.021057 
L 194.174927 475.782013 
L 196.031288 470.850831 
L 197.35726 466.912558 
L 199.213621 460.346088 
L 200.539593 455.880654 
L 201.600371 453.054458 
L 202.395954 451.557493 
L 202.926343 450.896588 
L 203.456732 450.512475 
L 203.98712 450.392191 
L 204.517509 450.499412 
L 205.313093 450.934978 
L 206.108676 451.370383 
L 206.639065 451.418055 
L 207.169454 451.079906 
L 207.699842 450.200094 
L 208.230231 448.656103 
L 208.76062 446.381393 
L 209.556203 441.633368 
L 210.616981 433.435885 
L 212.473342 418.698582 
L 213.268925 414.024053 
L 213.799314 411.756229 
L 214.329703 410.200481 
L 214.860092 409.342286 
L 215.125286 409.163927 
L 215.390481 409.145431 
L 215.655675 409.280964 
L 216.186064 409.9905 
L 216.716453 411.244886 
L 217.512036 414.034086 
L 218.572814 419.08093 
L 221.224758 432.722459 
L 222.020341 435.414923 
L 222.55073 436.643433 
L 223.081119 437.447496 
L 223.611508 437.899613 
L 224.141896 438.104208 
L 225.733063 438.463213 
L 226.263452 438.867274 
L 226.793841 439.534101 
L 227.589424 441.054056 
L 228.650202 443.843517 
L 230.241368 448.223801 
L 231.036951 449.726747 
L 231.56734 450.268025 
L 232.097729 450.377143 
L 232.628118 450.033089 
L 233.158507 449.247385 
L 233.688896 448.063948 
L 234.484479 445.709379 
L 237.136423 437.06638 
L 237.932006 435.390447 
L 238.462395 434.631906 
L 238.992784 434.142192 
L 239.523173 433.88519 
L 240.053562 433.814801 
L 240.849145 433.953731 
L 242.175117 434.50792 
L 244.561867 435.779623 
L 246.418228 437.057296 
L 246.948617 437.439807 
L 246.948617 437.439807 
" style="fill:none;stroke:#2ca02c;stroke-linecap:square;stroke-width:2;"/>
            </g>
            <g id="patch_15">
                <path d="M 108 504
L 108 314.921739 
" style="fill:none;stroke:#000000;stroke-linecap:square;stroke-linejoin:miter;stroke-width:0.8;"/>
            </g>
            <g id="patch_16">
                <path d="M 108 504
L 253.565217 504 
" style="fill:none;stroke:#000000;stroke-linecap:square;stroke-linejoin:miter;stroke-width:0.8;"/>
            </g>
            <g id="text_5">
                <!-- LIN $\times$ PER -->
                <defs>
                    <path id="DejaVuSans-32"/>
                    <path d="M 70.125 53.71875
L 47.796875 31.296875 
L 70.125 8.984375 
L 64.3125 3.078125 
L 41.890625 25.484375 
L 19.484375 3.078125 
L 13.71875 8.984375 
L 35.984375 31.296875 
L 13.71875 53.71875 
L 19.484375 59.625 
L 41.890625 37.203125 
L 64.3125 59.625 
z
" id="DejaVuSans-215"/>
                </defs>
                <g transform="translate(156.734609 308.921739)scale(0.096 -0.096)">
                    <use transform="translate(0 0.09375)" xlink:href="#DejaVuSans-76"/>
                    <use transform="translate(55.712891 0.09375)" xlink:href="#DejaVuSans-73"/>
                    <use transform="translate(85.205078 0.09375)" xlink:href="#DejaVuSans-78"/>
                    <use transform="translate(160.009766 0.09375)" xlink:href="#DejaVuSans-32"/>
                    <use transform="translate(191.796875 0.09375)" xlink:href="#DejaVuSans-215"/>
                    <use transform="translate(275.585938 0.09375)" xlink:href="#DejaVuSans-32"/>
                    <use transform="translate(307.373047 0.09375)" xlink:href="#DejaVuSans-80"/>
                    <use transform="translate(367.675781 0.09375)" xlink:href="#DejaVuSans-69"/>
                    <use transform="translate(430.859375 0.09375)" xlink:href="#DejaVuSans-82"/>
                </g>
            </g>
        </g>
        <g id="axes_6">
            <g id="patch_17">
                <path d="M 282.678261 504
L 428.243478 504 
L 428.243478 314.921739 
L 282.678261 314.921739 
z
" style="fill:#ffffff;"/>
            </g>
            <g id="matplotlib.axis_11"/>
            <g id="matplotlib.axis_12"/>
            <g id="line2d_16">
                <path clip-path="url(#p43dc8a6797)" d="M 289.294862 323.516206
L 295.129139 332.120096 
L 300.963416 340.336131 
L 306.797693 348.164275 
L 312.366776 355.274752 
L 317.935859 362.03182 
L 323.504942 368.435458 
L 328.80883 374.205586 
L 334.112719 379.655145 
L 339.416607 384.784156 
L 344.455301 389.359784 
L 349.493995 393.646117 
L 354.532689 397.643135 
L 359.571383 401.350852 
L 364.344883 404.596553 
L 369.118382 407.582591 
L 373.891882 410.308973 
L 378.665381 412.775711 
L 383.438881 414.982781 
L 387.947186 416.82883 
L 392.455491 418.44325 
L 396.963796 419.826081 
L 401.472102 420.97729 
L 405.980407 421.896926 
L 410.488712 422.584936 
L 414.997017 423.041328 
L 419.505322 423.266123 
L 421.626877 423.29177 
L 421.626877 423.29177 
" style="fill:none;stroke:#1f77b4;stroke-linecap:square;stroke-width:2;"/>
            </g>
            <g id="line2d_17">
                <path clip-path="url(#p43dc8a6797)" d="M 289.294862 484.39903
L 295.924722 478.429432 
L 302.554583 472.766606 
L 308.919249 467.618905 
L 315.283915 462.753897 
L 321.648581 458.171599 
L 327.748053 454.045534 
L 333.847524 450.179099 
L 339.946996 446.572315 
L 346.046468 443.225167 
L 352.145939 440.137687 
L 357.980217 437.427354 
L 363.814494 434.954616 
L 369.648771 432.71942 
L 375.483048 430.721794 
L 381.317326 428.96172 
L 387.151603 427.439191 
L 392.98588 426.154229 
L 398.554963 425.149267 
L 404.124046 424.360779 
L 409.693129 423.788712 
L 415.262211 423.433104 
L 420.831294 423.29398 
L 421.626877 423.291767 
L 421.626877 423.291767 
" style="fill:none;stroke:#ff7f0e;stroke-linecap:square;stroke-width:2;"/>
            </g>
            <g id="line2d_18">
                <path clip-path="url(#p43dc8a6797)" d="M 289.294862 495.405534
L 295.659528 488.635558 
L 302.024194 482.199213 
L 308.123666 476.344127 
L 314.223137 470.795423 
L 320.322609 465.553154 
L 326.156886 460.82552 
L 331.991163 456.378244 
L 337.825441 452.211298 
L 343.659718 448.324697 
L 349.228801 444.876289 
L 354.797884 441.683299 
L 360.366966 438.745771 
L 365.936049 436.063673 
L 371.505132 433.637004 
L 376.80902 431.563385 
L 382.112909 429.72144 
L 387.416797 428.111207 
L 392.720686 426.732657 
L 398.024574 425.585784 
L 403.328462 424.670607 
L 408.632351 423.987127 
L 413.936239 423.535328 
L 419.240128 423.315222 
L 421.626877 423.291761 
L 421.626877 423.291761 
" style="fill:none;stroke:#2ca02c;stroke-linecap:square;stroke-width:2;"/>
            </g>
            <g id="patch_18">
                <path d="M 282.678261 504
L 282.678261 314.921739 
" style="fill:none;stroke:#000000;stroke-linecap:square;stroke-linejoin:miter;stroke-width:0.8;"/>
            </g>
            <g id="patch_19">
                <path d="M 282.678261 504
L 428.243478 504 
" style="fill:none;stroke:#000000;stroke-linecap:square;stroke-linejoin:miter;stroke-width:0.8;"/>
            </g>
            <g id="text_6">
                <!-- LIN $\times$ LIN -->
                <g transform="translate(332.99687 308.921739)scale(0.096 -0.096)">
                    <use transform="translate(0 0.09375)" xlink:href="#DejaVuSans-76"/>
                    <use transform="translate(55.712891 0.09375)" xlink:href="#DejaVuSans-73"/>
                    <use transform="translate(85.205078 0.09375)" xlink:href="#DejaVuSans-78"/>
                    <use transform="translate(160.009766 0.09375)" xlink:href="#DejaVuSans-32"/>
                    <use transform="translate(191.796875 0.09375)" xlink:href="#DejaVuSans-215"/>
                    <use transform="translate(275.585938 0.09375)" xlink:href="#DejaVuSans-32"/>
                    <use transform="translate(307.373047 0.09375)" xlink:href="#DejaVuSans-76"/>
                    <use transform="translate(363.085938 0.09375)" xlink:href="#DejaVuSans-73"/>
                    <use transform="translate(392.578125 0.09375)" xlink:href="#DejaVuSans-78"/>
                </g>
            </g>
        </g>
        <g id="axes_7">
            <g id="patch_20">
                <path d="M 457.356522 504
L 602.921739 504 
L 602.921739 314.921739 
L 457.356522 314.921739 
z
" style="fill:#ffffff;"/>
            </g>
            <g id="matplotlib.axis_13"/>
            <g id="matplotlib.axis_14"/>
            <g id="line2d_19">
                <path clip-path="url(#p862a25f591)" d="M 463.973123 389.086592
L 465.564289 390.390998 
L 467.155456 391.96436 
L 469.011817 394.140222 
L 471.133372 397.03674 
L 473.785316 401.118365 
L 480.149982 411.170284 
L 482.271538 414.008 
L 484.127898 416.110155 
L 485.719065 417.590158 
L 487.310232 418.753391 
L 488.636204 419.473625 
L 489.962176 419.965182 
L 491.288148 420.229128 
L 492.61412 420.26935 
L 493.940092 420.092525 
L 495.266064 419.70839 
L 496.857231 418.991684 
L 498.448397 418.021503 
L 500.304758 416.610062 
L 502.426313 414.688579 
L 504.813063 412.206527 
L 507.465007 409.104012 
L 510.116952 405.627782 
L 512.503701 402.131744 
L 514.890451 398.258984 
L 517.80759 393.080345 
L 523.907062 382.056523 
L 525.763422 379.175409 
L 527.354589 377.052221 
L 528.945756 375.306381 
L 530.271728 374.162536 
L 531.5977 373.306147 
L 532.923672 372.728056 
L 534.249644 372.40668 
L 535.575616 372.309193 
L 537.166783 372.42782 
L 539.288338 372.842511 
L 543.266254 373.674207 
L 544.857421 373.76489 
L 546.183393 373.643763 
L 547.509365 373.301429 
L 548.835337 372.704278 
L 550.161309 371.824931 
L 551.487281 370.642549 
L 552.813253 369.143529 
L 554.139225 367.322227 
L 555.730392 364.717058 
L 557.321559 361.679984 
L 559.177919 357.66051 
L 561.564669 351.940615 
L 567.133752 338.32204 
L 568.990113 334.432713 
L 570.58128 331.580917 
L 571.907252 329.590018 
L 573.233224 327.962575 
L 574.559196 326.689712 
L 575.885168 325.74411 
L 577.21114 325.083381 
L 578.537112 324.654414 
L 580.128279 324.363181 
L 582.515028 324.179302 
L 587.818917 323.833521 
L 592.062028 323.517095 
L 593.918389 323.600894 
L 595.509555 323.874105 
L 596.305138 324.091871 
L 596.305138 324.091871 
" style="fill:none;stroke:#1f77b4;stroke-linecap:square;stroke-width:2;"/>
            </g>
            <g id="line2d_20">
                <path clip-path="url(#p862a25f591)" d="M 463.973123 409.359046
L 471.133372 390.458969 
L 473.254927 385.630293 
L 475.111288 381.974119 
L 476.702455 379.322407 
L 478.293621 377.133052 
L 479.619593 375.653585 
L 480.945565 374.466921 
L 482.271538 373.543908 
L 483.862704 372.735103 
L 485.453871 372.191814 
L 487.310232 371.813384 
L 489.431787 371.623266 
L 491.818537 371.630736 
L 494.470481 371.870794 
L 496.857231 372.314999 
L 498.978786 372.932123 
L 501.100341 373.802019 
L 502.956702 374.80448 
L 504.813063 376.062583 
L 506.669424 377.605023 
L 508.525785 379.457868 
L 510.382146 381.639924 
L 512.238507 384.156138 
L 514.360062 387.420127 
L 516.746812 391.508697 
L 520.724729 398.871414 
L 524.43745 405.607829 
L 526.8242 409.473978 
L 528.680561 412.078047 
L 530.271728 413.960723 
L 531.5977 415.246637 
L 532.923672 416.24779 
L 534.249644 416.940691 
L 535.310422 417.259178 
L 536.371199 417.358702 
L 537.431977 417.232992 
L 538.492755 416.878483 
L 539.553532 416.294679 
L 540.61431 415.484645 
L 541.940282 414.164343 
L 543.266254 412.522255 
L 544.857421 410.169537 
L 546.713782 406.982869 
L 549.100531 402.383807 
L 557.321559 386.040803 
L 559.708308 382.020956 
L 562.095058 378.464952 
L 564.481808 375.303884 
L 567.398947 371.815572 
L 571.111668 367.746944 
L 574.028807 364.862678 
L 576.150362 363.073918 
L 577.741529 361.994239 
L 579.067501 361.314534 
L 580.393473 360.86795 
L 581.719445 360.677769 
L 583.045417 360.757299 
L 584.371389 361.107911 
L 585.697362 361.718481 
L 587.023334 362.566059 
L 588.6145 363.849454 
L 590.736056 365.897891 
L 593.918389 369.348513 
L 596.305138 371.992504 
L 596.305138 371.992504 
" style="fill:none;stroke:#ff7f0e;stroke-linecap:square;stroke-width:2;"/>
            </g>
            <g id="line2d_21">
                <path clip-path="url(#p862a25f591)" d="M 463.973123 379.027783
L 467.42065 371.646711 
L 469.8074 367.033449 
L 471.928955 363.425992 
L 473.785316 360.720783 
L 475.376483 358.767387 
L 476.967649 357.162073 
L 478.558816 355.900718 
L 480.149982 354.964374 
L 481.741149 354.319389 
L 483.332315 353.918581 
L 485.188676 353.681505 
L 488.371009 353.557608 
L 491.022953 353.385067 
L 492.879314 353.052222 
L 494.470481 352.548601 
L 496.061647 351.793483 
L 497.652814 350.750992 
L 499.24398 349.399663 
L 500.835147 347.736109 
L 502.691508 345.426307 
L 504.813063 342.389715 
L 511.973313 331.726888 
L 513.564479 329.975659 
L 514.890451 328.869551 
L 515.951229 328.255045 
L 517.012007 327.90662 
L 518.072784 327.843988 
L 518.868368 327.994191 
L 519.663951 328.319265 
L 520.724729 329.031226 
L 521.785506 330.06649 
L 522.846284 331.426876 
L 523.907062 333.11052 
L 525.233034 335.661351 
L 526.559006 338.692055 
L 528.150172 342.9302 
L 529.741339 347.780103 
L 531.5977 354.144317 
L 533.719255 362.252574 
L 536.106005 372.312778 
L 538.757949 384.503148 
L 541.940282 400.295251 
L 546.448587 424.028161 
L 551.222087 448.862872 
L 553.874031 461.420601 
L 555.995586 470.388912 
L 557.851947 477.274108 
L 559.443114 482.377396 
L 561.03428 486.690645 
L 562.360253 489.652818 
L 563.686225 492.019667 
L 564.747002 493.473124 
L 565.80778 494.526723 
L 566.603363 495.050062 
L 567.398947 495.341438 
L 568.19453 495.398268 
L 568.990113 495.218374 
L 569.785696 494.800033 
L 570.58128 494.142183 
L 571.376863 493.244515 
L 572.43764 491.675796 
L 573.498418 489.68628 
L 574.82439 486.620218 
L 576.150362 482.93368 
L 577.741529 477.738685 
L 579.332695 471.772569 
L 581.189056 463.952842 
L 583.310612 454.063747 
L 585.962556 440.594523 
L 589.410083 421.866255 
L 596.305138 383.761674 
L 596.305138 383.761674 
" style="fill:none;stroke:#2ca02c;stroke-linecap:square;stroke-width:2;"/>
            </g>
            <g id="patch_21">
                <path d="M 457.356522 504
L 457.356522 314.921739 
" style="fill:none;stroke:#000000;stroke-linecap:square;stroke-linejoin:miter;stroke-width:0.8;"/>
            </g>
            <g id="patch_22">
                <path d="M 457.356522 504
L 602.921739 504 
" style="fill:none;stroke:#000000;stroke-linecap:square;stroke-linejoin:miter;stroke-width:0.8;"/>
            </g>
            <g id="text_7">
                <!-- RQ + RQ -->
                <defs>
                    <path d="M 46 62.703125
L 46 35.5 
L 73.1875 35.5 
L 73.1875 27.203125 
L 46 27.203125 
L 46 0 
L 37.796875 0 
L 37.796875 27.203125 
L 10.59375 27.203125 
L 10.59375 35.5 
L 37.796875 35.5 
L 37.796875 62.703125 
z
" id="DejaVuSans-43"/>
                </defs>
                <g transform="translate(508.83838 308.921739)scale(0.096 -0.096)">
                    <use xlink:href="#DejaVuSans-82"/>
                    <use x="69.482422" xlink:href="#DejaVuSans-81"/>
                    <use x="148.193359" xlink:href="#DejaVuSans-32"/>
                    <use x="179.980469" xlink:href="#DejaVuSans-43"/>
                    <use x="263.769531" xlink:href="#DejaVuSans-32"/>
                    <use x="295.556641" xlink:href="#DejaVuSans-82"/>
                    <use x="365.039062" xlink:href="#DejaVuSans-81"/>
                </g>
            </g>
        </g>
        <g id="axes_8">
            <g id="patch_23">
                <path d="M 632.034783 504
L 777.6 504 
L 777.6 314.921739 
L 632.034783 314.921739 
z
" style="fill:#ffffff;"/>
            </g>
            <g id="matplotlib.axis_15"/>
            <g id="matplotlib.axis_16"/>
            <g id="line2d_22">
                <path clip-path="url(#paa64b038c7)" d="M 638.651383 427.910907
L 639.181772 427.268042 
L 639.977356 425.843554 
L 641.038133 423.20093 
L 642.364105 419.938773 
L 642.894494 419.087628 
L 643.424883 418.630408 
L 643.955272 418.573636 
L 644.485661 418.858179 
L 645.281244 419.672477 
L 646.342022 420.754804 
L 646.87241 421.047104 
L 647.402799 421.120258 
L 648.198383 420.926255 
L 648.993966 420.715408 
L 649.524355 420.814315 
L 650.054743 421.267701 
L 650.585132 422.168709 
L 651.115521 423.546765 
L 651.911104 426.394441 
L 654.03266 434.825388 
L 654.563049 436.077755 
L 655.093437 436.687183 
L 655.358632 436.731167 
L 655.623826 436.599167 
L 656.154215 435.824977 
L 656.684604 434.435953 
L 657.480187 431.469996 
L 659.866937 421.383287 
L 660.397326 419.971081 
L 660.927715 419.198957 
L 661.192909 419.09893 
L 661.458104 419.213259 
L 661.723298 419.558824 
L 662.253687 421.004802 
L 662.784076 423.5393 
L 663.314465 427.218351 
L 664.110048 434.830198 
L 665.170825 448.071005 
L 667.027186 471.971722 
L 667.557575 476.796958 
L 668.087964 480.018446 
L 668.353158 480.956006 
L 668.618353 481.425154 
L 668.883547 481.423399 
L 669.148742 480.957898 
L 669.413936 480.044885 
L 669.944325 476.981576 
L 670.474714 472.507795 
L 671.270297 463.91538 
L 674.45263 426.553923 
L 675.513408 416.919192 
L 676.574186 409.137282 
L 677.369769 404.723843 
L 677.900158 402.618976 
L 678.430546 401.300893 
L 678.695741 400.964233 
L 678.960935 400.852999 
L 679.22613 400.9714 
L 679.491324 401.320201 
L 680.021713 402.692646 
L 680.552102 404.898125 
L 681.347685 409.467474 
L 683.204046 422.586524 
L 684.264824 429.108883 
L 685.060407 432.64132 
L 685.590796 434.194918 
L 686.121185 435.061814 
L 686.386379 435.23516 
L 686.651574 435.237623 
L 686.916768 435.073587 
L 687.447157 434.273341 
L 687.977546 432.90835 
L 688.773129 430.032123 
L 691.690267 418.195139 
L 692.220656 417.084555 
L 692.751045 416.595954 
L 693.01624 416.606963 
L 693.281434 416.794928 
L 693.811823 417.704253 
L 694.342212 419.296184 
L 695.137795 422.770597 
L 697.789739 436.463353 
L 698.320128 437.912781 
L 698.585322 438.299215 
L 698.850517 438.430498 
L 699.115711 438.287428 
L 699.380906 437.853566 
L 699.911295 436.063445 
L 700.441683 432.995663 
L 700.972072 428.649179 
L 701.767655 419.906717 
L 702.828433 405.077517 
L 704.949989 374.42946 
L 705.745572 366.783585 
L 706.275961 363.835876 
L 706.541155 363.093053 
L 706.806349 362.858887 
L 707.071544 363.139223 
L 707.336738 363.931535 
L 707.867127 367.000115 
L 708.397516 371.881455 
L 709.193099 381.928601 
L 710.784266 406.727675 
L 712.110238 425.670827 
L 712.905821 434.353605 
L 713.701404 440.622024 
L 714.231793 443.470096 
L 714.762182 445.301374 
L 715.292571 446.155741 
L 715.557765 446.223713 
L 715.82296 446.052466 
L 716.088154 445.639724 
L 716.618543 444.071094 
L 717.148932 441.464801 
L 717.679321 437.751405 
L 718.474904 429.960415 
L 719.270487 419.415667 
L 720.331265 401.446847 
L 723.248404 347.064223 
L 724.043987 337.583965 
L 724.574376 333.615604 
L 725.104764 331.595403 
L 725.369959 331.291015 
L 725.635153 331.429433 
L 725.900348 331.982879 
L 726.430737 334.205303 
L 726.961125 337.681838 
L 727.756709 344.653866 
L 728.817486 356.093671 
L 730.673847 379.187998 
L 732.795403 405.535287 
L 733.85618 415.766532 
L 734.651764 421.139216 
L 735.182152 423.487391 
L 735.712541 424.864043 
L 735.977736 425.215232 
L 736.24293 425.366043 
L 736.508125 425.341127 
L 737.038513 424.88724 
L 738.364485 423.24996 
L 738.62968 423.193496 
L 738.894874 423.329201 
L 739.160069 423.693368 
L 739.690458 425.21703 
L 740.220846 427.894544 
L 740.751235 431.6932 
L 741.546819 439.014113 
L 743.403179 456.796685 
L 744.198763 461.74036 
L 744.729152 463.753948 
L 745.25954 464.861306 
L 745.789929 465.287097 
L 746.320318 465.306607 
L 747.381096 465.165778 
L 747.911485 465.381238 
L 748.441873 465.910019 
L 748.972262 466.755066 
L 749.767846 468.506552 
L 751.359012 472.821672 
L 752.684984 476.162076 
L 753.480567 477.606789 
L 754.010956 478.165466 
L 754.541345 478.288985 
L 754.80654 478.159435 
L 755.336928 477.474932 
L 755.867317 476.197981 
L 756.397706 474.350794 
L 757.193289 470.733861 
L 758.784456 463.020812 
L 759.314845 461.277951 
L 759.845234 460.359177 
L 760.110428 460.260173 
L 760.375622 460.417004 
L 760.640817 460.832923 
L 761.171206 462.4197 
L 761.701594 464.906798 
L 762.497178 469.838373 
L 764.088344 480.266305 
L 764.883928 483.875903 
L 765.414316 485.32471 
L 765.944705 486.006463 
L 766.2099 486.087884 
L 766.475094 486.020192 
L 767.005483 485.525927 
L 767.801066 484.239814 
L 769.392233 481.504731 
L 770.983399 479.137424 
L 770.983399 479.137424 
" style="fill:none;stroke:#1f77b4;stroke-linecap:square;stroke-width:2;"/>
            </g>
            <g id="line2d_23">
                <path clip-path="url(#paa64b038c7)" d="M 638.651383 373.553077
L 640.772939 335.467271 
L 641.303328 328.973882 
L 641.833716 324.882354 
L 642.098911 323.846842 
L 642.364105 323.516206 
L 642.6293 323.896289 
L 642.894494 324.979025 
L 643.424883 329.154753 
L 643.955272 335.733554 
L 644.750855 349.073599 
L 647.667994 404.123669 
L 648.463577 413.546685 
L 648.993966 417.603692 
L 649.524355 419.909194 
L 649.789549 420.457333 
L 650.054743 420.646653 
L 650.319938 420.519118 
L 650.585132 420.122326 
L 651.115521 418.72987 
L 652.971882 412.869186 
L 653.502271 412.071849 
L 654.03266 411.781774 
L 654.563049 411.833097 
L 655.358632 411.967863 
L 655.623826 411.879199 
L 655.889021 411.66577 
L 656.41941 410.755677 
L 656.949798 409.082588 
L 657.480187 406.600476 
L 658.275771 401.505876 
L 659.336548 392.939754 
L 663.04927 361.080574 
L 663.844853 355.825724 
L 664.640437 352.066806 
L 665.170825 350.623207 
L 665.43602 350.255762 
L 665.701214 350.131975 
L 665.966409 350.252132 
L 666.231603 350.612102 
L 666.761992 352.012807 
L 667.292381 354.214353 
L 668.087964 358.608285 
L 669.944325 369.568446 
L 670.474714 371.727667 
L 671.005103 373.09627 
L 671.270297 373.455386 
L 671.535492 373.593622 
L 671.800686 373.515176 
L 672.06588 373.229887 
L 672.596269 372.103919 
L 673.391852 369.376601 
L 675.248213 362.060076 
L 676.043797 359.939488 
L 676.574186 359.031111 
L 677.104574 358.473535 
L 677.900158 358.064301 
L 678.695741 357.753468 
L 679.22613 357.359405 
L 679.756519 356.666603 
L 680.286907 355.580358 
L 680.817296 354.046354 
L 681.61288 350.900061 
L 682.673657 345.441104 
L 684.795213 333.991892 
L 685.590796 331.02853 
L 686.121185 329.77162 
L 686.651574 329.157328 
L 686.916768 329.096568 
L 687.181962 329.197359 
L 687.712351 329.857686 
L 688.24274 331.055378 
L 689.038323 333.554693 
L 690.364295 337.903788 
L 690.894684 339.028495 
L 691.159879 339.35273 
L 691.425073 339.493081 
L 691.690267 339.437653 
L 691.955462 339.18115 
L 692.485851 338.080378 
L 693.01624 336.297697 
L 695.137795 327.989836 
L 695.402989 327.565372 
L 695.668184 327.420422 
L 695.933378 327.58663 
L 696.198573 328.089416 
L 696.728961 330.173451 
L 697.25935 333.743892 
L 697.789739 338.773364 
L 698.585322 348.796048 
L 699.6461 365.782204 
L 703.093628 425.982108 
L 703.889211 435.153423 
L 704.4196 439.279441 
L 704.949989 441.667498 
L 705.215183 442.205533 
L 705.480377 442.319745 
L 705.745572 442.030107 
L 706.010766 441.364015 
L 706.541155 439.043581 
L 707.336738 433.733221 
L 711.04946 405.374662 
L 712.905821 391.818243 
L 714.496988 380.375856 
L 715.292571 376.27202 
L 715.82296 374.631532 
L 716.088154 374.205984 
L 716.353349 374.064856 
L 716.618543 374.218684 
L 716.883737 374.673091 
L 717.414126 376.479351 
L 717.944515 379.41758 
L 718.740098 385.571352 
L 721.126848 406.445123 
L 721.657237 409.163852 
L 722.187626 410.557403 
L 722.45282 410.726507 
L 722.718015 410.545828 
L 722.983209 410.028438 
L 723.513598 408.079009 
L 724.309181 403.410724 
L 726.430737 389.255688 
L 727.22632 385.92833 
L 727.756709 384.552855 
L 728.287098 383.782473 
L 728.817486 383.535004 
L 729.347875 383.7525 
L 729.878264 384.428831 
L 730.408653 385.61702 
L 730.939042 387.414117 
L 731.469431 389.926743 
L 732.265014 395.171116 
L 733.325792 404.567411 
L 734.916958 419.365098 
L 735.447347 422.929232 
L 735.977736 425.263434 
L 736.24293 425.921026 
L 736.508125 426.235096 
L 736.773319 426.217092 
L 737.038513 425.889673 
L 737.568902 424.44832 
L 738.364485 421.061862 
L 739.160069 417.630798 
L 739.690458 416.110835 
L 739.955652 415.731324 
L 740.220846 415.655163 
L 740.486041 415.908207 
L 740.751235 416.506266 
L 741.281624 418.748351 
L 741.812013 422.299197 
L 742.607596 429.521511 
L 744.463957 447.824285 
L 744.994346 451.438314 
L 745.524735 453.779873 
L 745.789929 454.447261 
L 746.055124 454.786262 
L 746.320318 454.814767 
L 746.585513 454.559576 
L 747.115901 453.340925 
L 747.911485 450.388836 
L 749.237457 445.264683 
L 750.03304 443.236017 
L 750.563429 442.401885 
L 751.093818 441.882357 
L 751.889401 441.453239 
L 752.684984 441.273398 
L 753.215373 441.357525 
L 753.745762 441.765919 
L 754.276151 442.689068 
L 754.80654 444.312223 
L 755.336928 446.763202 
L 756.132512 452.017918 
L 757.193289 461.141928 
L 758.519261 472.337059 
L 759.04965 475.578317 
L 759.580039 477.695307 
L 759.845234 478.288099 
L 760.110428 478.563891 
L 760.375622 478.528873 
L 760.640817 478.19788 
L 761.171206 476.748005 
L 761.966789 473.155754 
L 763.292761 466.501946 
L 763.82315 464.656553 
L 764.353539 463.636405 
L 764.618733 463.459362 
L 764.883928 463.497931 
L 765.149122 463.735541 
L 765.679511 464.698574 
L 767.270677 468.387045 
L 767.535872 468.57606 
L 767.801066 468.503372 
L 768.066261 468.122444 
L 768.331455 467.391852 
L 768.861844 464.748605 
L 769.392233 460.387119 
L 769.922622 454.268602 
L 770.718205 442.13222 
L 770.983399 437.46399 
L 770.983399 437.46399 
" style="fill:none;stroke:#ff7f0e;stroke-linecap:square;stroke-width:2;"/>
            </g>
            <g id="line2d_24">
                <path clip-path="url(#paa64b038c7)" d="M 638.651383 401.234012
L 639.181772 400.786632 
L 639.977356 399.689762 
L 640.772939 398.138634 
L 641.568522 396.113081 
L 642.364105 393.503458 
L 643.159689 390.196956 
L 644.220466 384.775069 
L 646.076827 374.904978 
L 646.87241 371.825132 
L 647.402799 370.385683 
L 647.933188 369.426588 
L 648.463577 368.887513 
L 648.993966 368.694391 
L 649.524355 368.791594 
L 650.054743 369.166157 
L 650.585132 369.856525 
L 651.115521 370.943037 
L 651.64591 372.523906 
L 652.176299 374.684506 
L 652.971882 379.095768 
L 653.767465 384.812432 
L 655.093437 396.256477 
L 657.480187 417.330688 
L 658.806159 426.924701 
L 659.866937 432.82355 
L 660.66252 436.191011 
L 661.458104 438.810546 
L 662.253687 440.862562 
L 663.04927 442.433525 
L 663.844853 443.46562 
L 664.375242 443.793901 
L 664.905631 443.816776 
L 665.43602 443.572056 
L 667.027186 442.486169 
L 667.292381 442.488091 
L 667.557575 442.601835 
L 668.087964 443.225697 
L 668.618353 444.42749 
L 669.148742 446.184046 
L 670.209519 450.821094 
L 671.270297 455.475267 
L 671.800686 457.204492 
L 672.331075 458.275218 
L 672.596269 458.524784 
L 672.861464 458.572703 
L 673.126658 458.416969 
L 673.391852 458.060578 
L 673.922241 456.781469 
L 674.45263 454.847819 
L 675.248213 451.084777 
L 678.430546 433.975229 
L 679.22613 428.524198 
L 680.021713 421.304093 
L 680.817296 411.969081 
L 683.46924 377.115858 
L 683.999629 373.444743 
L 684.264824 372.457845 
L 684.530018 372.089336 
L 684.795213 372.361612 
L 685.060407 373.282279 
L 685.590796 377.024149 
L 686.121185 383.080834 
L 686.916768 395.494467 
L 689.038323 432.431483 
L 689.833907 441.639627 
L 690.364295 445.261234 
L 690.62949 446.273222 
L 690.894684 446.759867 
L 691.159879 446.740172 
L 691.425073 446.243193 
L 691.955462 443.978349 
L 692.485851 440.360265 
L 693.811823 428.639398 
L 694.607406 422.292177 
L 695.137795 419.226029 
L 695.668184 417.409567 
L 695.933378 417.01623 
L 696.198573 416.974875 
L 696.463767 417.282416 
L 696.728961 417.928459 
L 697.25935 420.161459 
L 697.789739 423.467834 
L 698.850517 432.13378 
L 700.176489 443.33194 
L 700.972072 448.369838 
L 701.502461 450.570076 
L 702.03285 451.733458 
L 702.298044 451.927572 
L 702.563239 451.87657 
L 702.828433 451.598005 
L 703.358822 450.456211 
L 704.154405 447.768281 
L 705.215183 444.000621 
L 705.745572 442.747227 
L 706.010766 442.395682 
L 706.275961 442.260818 
L 706.541155 442.360663 
L 706.806349 442.707176 
L 707.336738 444.156157 
L 707.867127 446.575127 
L 708.66271 451.704472 
L 710.784266 467.201517 
L 711.314655 469.498126 
L 711.579849 470.174244 
L 711.845043 470.497613 
L 712.110238 470.449952 
L 712.375432 470.022302 
L 712.640627 469.215654 
L 713.171016 466.520183 
L 713.701404 462.570021 
L 714.762182 452.347348 
L 716.088154 439.572277 
L 716.883737 433.802025 
L 717.679321 429.772743 
L 718.474904 427.036785 
L 721.392043 418.521197 
L 723.248404 412.603799 
L 725.369959 406.593582 
L 726.165542 403.250282 
L 726.961125 398.632315 
L 728.021903 390.599265 
L 729.347875 380.090183 
L 729.878264 376.973206 
L 730.408653 375.118704 
L 730.673847 374.778932 
L 730.939042 374.877534 
L 731.204236 375.438198 
L 731.469431 376.474063 
L 731.999819 379.967347 
L 732.530208 385.232586 
L 733.325792 395.747915 
L 735.712541 429.813703 
L 736.508125 436.676059 
L 737.038513 439.415688 
L 737.568902 440.867426 
L 737.834097 441.205563 
L 738.099291 441.34879 
L 738.62968 441.259307 
L 739.425263 440.943716 
L 739.690458 440.963205 
L 739.955652 441.097226 
L 740.486041 441.772639 
L 741.01643 443.003659 
L 741.812013 445.626794 
L 742.872791 449.284833 
L 743.403179 450.56056 
L 743.933568 451.186693 
L 744.198763 451.226039 
L 744.463957 451.083013 
L 744.994346 450.301163 
L 745.789929 448.288161 
L 746.585513 446.230387 
L 747.115901 445.467102 
L 747.381096 445.405589 
L 747.64629 445.60886 
L 747.911485 446.107101 
L 748.441873 448.067457 
L 748.972262 451.350865 
L 749.767846 458.51703 
L 751.093818 473.900946 
L 752.154595 485.532692 
L 752.950179 491.800407 
L 753.480567 494.327354 
L 753.745762 495.049205 
L 754.010956 495.405534 
L 754.276151 495.401095 
L 754.541345 495.046589 
L 754.80654 494.358062 
L 755.336928 492.065982 
L 756.132512 486.754353 
L 757.193289 477.499537 
L 759.580039 455.972906 
L 760.906011 446.426342 
L 761.966789 440.271248 
L 763.027567 435.37211 
L 763.82315 432.542203 
L 764.618733 430.490331 
L 765.149122 429.577847 
L 765.679511 429.031482 
L 766.2099 428.831247 
L 766.740288 428.931744 
L 767.270677 429.261018 
L 769.127038 430.77665 
L 769.657427 430.907893 
L 770.187816 430.781783 
L 770.718205 430.379195 
L 770.983399 430.075864 
L 770.983399 430.075864 
" style="fill:none;stroke:#2ca02c;stroke-linecap:square;stroke-width:2;"/>
            </g>
            <g id="patch_24">
                <path d="M 632.034783 504
L 632.034783 314.921739 
" style="fill:none;stroke:#000000;stroke-linecap:square;stroke-linejoin:miter;stroke-width:0.8;"/>
            </g>
            <g id="patch_25">
                <path d="M 632.034783 504
L 777.6 504 
" style="fill:none;stroke:#000000;stroke-linecap:square;stroke-linejoin:miter;stroke-width:0.8;"/>
            </g>
            <g id="text_8">
                <!-- SE + PER -->
                <g transform="translate(682.401391 308.921739)scale(0.096 -0.096)">
                    <use xlink:href="#DejaVuSans-83"/>
                    <use x="63.476562" xlink:href="#DejaVuSans-69"/>
                    <use x="126.660156" xlink:href="#DejaVuSans-32"/>
                    <use x="158.447266" xlink:href="#DejaVuSans-43"/>
                    <use x="242.236328" xlink:href="#DejaVuSans-32"/>
                    <use x="274.023438" xlink:href="#DejaVuSans-80"/>
                    <use x="334.326172" xlink:href="#DejaVuSans-69"/>
                    <use x="397.509766" xlink:href="#DejaVuSans-82"/>
                </g>
            </g>
        </g>
    </g>
    <defs>
        <clipPath id="p8ef7d58484">
            <rect height="189.078261" width="145.565217" x="108" y="69.12"/>
        </clipPath>
        <clipPath id="p2e263653f3">
            <rect height="189.078261" width="145.565217" x="282.678261" y="69.12"/>
        </clipPath>
        <clipPath id="p55e95a42bf">
            <rect height="189.078261" width="145.565217" x="457.356522" y="69.12"/>
        </clipPath>
        <clipPath id="pf0347959fa">
            <rect height="189.078261" width="145.565217" x="632.034783" y="69.12"/>
        </clipPath>
        <clipPath id="p590d4d1fe3">
            <rect height="189.078261" width="145.565217" x="108" y="314.921739"/>
        </clipPath>
        <clipPath id="p43dc8a6797">
            <rect height="189.078261" width="145.565217" x="282.678261" y="314.921739"/>
        </clipPath>
        <clipPath id="p862a25f591">
            <rect height="189.078261" width="145.565217" x="457.356522" y="314.921739"/>
        </clipPath>
        <clipPath id="paa64b038c7">
            <rect height="189.078261" width="145.565217" x="632.034783" y="314.921739"/>
        </clipPath>
    </defs>
</svg>
