<svg xmlns="http://www.w3.org/2000/svg" xmlns:xlink="http://www.w3.org/1999/xlink" width="576" height="384" version="1.1" viewBox="0 0 432 288"><defs><style type="text/css">*{stroke-linecap:butt;stroke-linejoin:round}</style></defs><g id="figure_1"><g id="patch_1"><path d="M 0 288 L 432 288 L 432 0 L 0 0 z" style="fill:#fff"/></g><g id="axes_1"><g id="patch_2"><path d="M 54 252 L 388.8 252 L 388.8 34.56 L 54 34.56 z" style="fill:#fff"/></g><g id="patch_3"><path d="M 69.218182 252 L 79.036364 252 L 79.036364 198.90822 L 69.218182 198.90822 z" clip-path="url(#pa04f231fef)" style="fill:#1f77b4;opacity:.7"/></g><g id="patch_4"><path d="M 81.490909 252 L 91.309091 252 L 91.309091 201.031891 L 81.490909 201.031891 z" clip-path="url(#pa04f231fef)" style="fill:#1f77b4;opacity:.7"/></g><g id="patch_5"><path d="M 93.763636 252 L 103.581818 252 L 103.581818 203.155562 L 93.763636 203.155562 z" clip-path="url(#pa04f231fef)" style="fill:#1f77b4;opacity:.7"/></g><g id="patch_6"><path d="M 106.036364 252 L 115.854545 252 L 115.854545 205.279233 L 106.036364 205.279233 z" clip-path="url(#pa04f231fef)" style="fill:#1f77b4;opacity:.7"/></g><g id="patch_7"><path d="M 118.309091 252 L 128.127273 252 L 128.127273 207.402905 L 118.309091 207.402905 z" clip-path="url(#pa04f231fef)" style="fill:#1f77b4;opacity:.7"/></g><g id="patch_8"><path d="M 130.581818 252 L 140.4 252 L 140.4 209.526576 L 130.581818 209.526576 z" clip-path="url(#pa04f231fef)" style="fill:#1f77b4;opacity:.7"/></g><g id="patch_9"><path d="M 142.854545 252 L 152.672727 252 L 152.672727 211.650247 L 142.854545 211.650247 z" clip-path="url(#pa04f231fef)" style="fill:#1f77b4;opacity:.7"/></g><g id="patch_10"><path d="M 155.127273 252 L 164.945455 252 L 164.945455 213.773918 L 155.127273 213.773918 z" clip-path="url(#pa04f231fef)" style="fill:#1f77b4;opacity:.7"/></g><g id="patch_11"><path d="M 167.4 252 L 177.218182 252 L 177.218182 215.897589 L 167.4 215.897589 z" clip-path="url(#pa04f231fef)" style="fill:#1f77b4;opacity:.7"/></g><g id="patch_12"><path d="M 179.672727 252 L 189.490909 252 L 189.490909 218.021261 L 179.672727 218.021261 z" clip-path="url(#pa04f231fef)" style="fill:#1f77b4;opacity:.7"/></g><g id="patch_13"><path d="M 191.945455 252 L 201.763636 252 L 201.763636 220.144932 L 191.945455 220.144932 z" clip-path="url(#pa04f231fef)" style="fill:#1f77b4;opacity:.7"/></g><g id="patch_14"><path d="M 204.218182 252 L 214.036364 252 L 214.036364 222.268603 L 204.218182 222.268603 z" clip-path="url(#pa04f231fef)" style="fill:#1f77b4;opacity:.7"/></g><g id="patch_15"><path d="M 216.490909 252 L 226.309091 252 L 226.309091 224.392274 L 216.490909 224.392274 z" clip-path="url(#pa04f231fef)" style="fill:#1f77b4;opacity:.7"/></g><g id="patch_16"><path d="M 228.763636 252 L 238.581818 252 L 238.581818 226.515946 L 228.763636 226.515946 z" clip-path="url(#pa04f231fef)" style="fill:#1f77b4;opacity:.7"/></g><g id="patch_17"><path d="M 241.036364 252 L 250.854545 252 L 250.854545 228.639617 L 241.036364 228.639617 z" clip-path="url(#pa04f231fef)" style="fill:#1f77b4;opacity:.7"/></g><g id="patch_18"><path d="M 253.309091 252 L 263.127273 252 L 263.127273 230.763288 L 253.309091 230.763288 z" clip-path="url(#pa04f231fef)" style="fill:#1f77b4;opacity:.7"/></g><g id="patch_19"><path d="M 265.581818 252 L 275.4 252 L 275.4 232.886959 L 265.581818 232.886959 z" clip-path="url(#pa04f231fef)" style="fill:#1f77b4;opacity:.7"/></g><g id="patch_20"><path d="M 277.854545 252 L 287.672727 252 L 287.672727 235.01063 L 277.854545 235.01063 z" clip-path="url(#pa04f231fef)" style="fill:#1f77b4;opacity:.7"/></g><g id="patch_21"><path d="M 290.127273 252 L 299.945455 252 L 299.945455 237.134302 L 290.127273 237.134302 z" clip-path="url(#pa04f231fef)" style="fill:#1f77b4;opacity:.7"/></g><g id="patch_22"><path d="M 302.4 252 L 312.218182 252 L 312.218182 239.257973 L 302.4 239.257973 z" clip-path="url(#pa04f231fef)" style="fill:#1f77b4;opacity:.7"/></g><g id="patch_23"><path d="M 314.672727 252 L 324.490909 252 L 324.490909 241.381644 L 314.672727 241.381644 z" clip-path="url(#pa04f231fef)" style="fill:#1f77b4;opacity:.7"/></g><g id="patch_24"><path d="M 326.945455 252 L 336.763636 252 L 336.763636 243.505315 L 326.945455 243.505315 z" clip-path="url(#pa04f231fef)" style="fill:#1f77b4;opacity:.7"/></g><g id="patch_25"><path d="M 339.218182 252 L 349.036364 252 L 349.036364 245.628986 L 339.218182 245.628986 z" clip-path="url(#pa04f231fef)" style="fill:#1f77b4;opacity:.7"/></g><g id="patch_26"><path d="M 351.490909 252 L 361.309091 252 L 361.309091 247.752658 L 351.490909 247.752658 z" clip-path="url(#pa04f231fef)" style="fill:#1f77b4;opacity:.7"/></g><g id="patch_27"><path d="M 363.763636 252 L 373.581818 252 L 373.581818 249.876329 L 363.763636 249.876329 z" clip-path="url(#pa04f231fef)" style="fill:#1f77b4;opacity:.7"/></g><g id="patch_28"><path d="M 69.218182 252 L 79.036364 252 L 79.036364 44.914286 L 69.218182 44.914286 z" clip-path="url(#pa04f231fef)" style="fill:#ff7f0e;opacity:.4"/></g><g id="patch_29"><path d="M 81.490909 252 L 91.309091 252 L 91.309091 107.04 L 81.490909 107.04 z" clip-path="url(#pa04f231fef)" style="fill:#ff7f0e;opacity:.4"/></g><g id="patch_30"><path d="M 93.763636 252 L 103.581818 252 L 103.581818 150.528 L 93.763636 150.528 z" clip-path="url(#pa04f231fef)" style="fill:#ff7f0e;opacity:.4"/></g><g id="patch_31"><path d="M 106.036364 252 L 115.854545 252 L 115.854545 180.9696 L 106.036364 180.9696 z" clip-path="url(#pa04f231fef)" style="fill:#ff7f0e;opacity:.4"/></g><g id="patch_32"><path d="M 118.309091 252 L 128.127273 252 L 128.127273 202.27872 L 118.309091 202.27872 z" clip-path="url(#pa04f231fef)" style="fill:#ff7f0e;opacity:.4"/></g><g id="patch_33"><path d="M 130.581818 252 L 140.4 252 L 140.4 217.195104 L 130.581818 217.195104 z" clip-path="url(#pa04f231fef)" style="fill:#ff7f0e;opacity:.4"/></g><g id="patch_34"><path d="M 142.854545 252 L 152.672727 252 L 152.672727 227.636573 L 142.854545 227.636573 z" clip-path="url(#pa04f231fef)" style="fill:#ff7f0e;opacity:.4"/></g><g id="patch_35"><path d="M 155.127273 252 L 164.945455 252 L 164.945455 234.945601 L 155.127273 234.945601 z" clip-path="url(#pa04f231fef)" style="fill:#ff7f0e;opacity:.4"/></g><g id="patch_36"><path d="M 167.4 252 L 177.218182 252 L 177.218182 240.061921 L 167.4 240.061921 z" clip-path="url(#pa04f231fef)" style="fill:#ff7f0e;opacity:.4"/></g><g id="patch_37"><path d="M 179.672727 252 L 189.490909 252 L 189.490909 243.643344 L 179.672727 243.643344 z" clip-path="url(#pa04f231fef)" style="fill:#ff7f0e;opacity:.4"/></g><g id="patch_38"><path d="M 191.945455 252 L 201.763636 252 L 201.763636 246.150341 L 191.945455 246.150341 z" clip-path="url(#pa04f231fef)" style="fill:#ff7f0e;opacity:.4"/></g><g id="patch_39"><path d="M 204.218182 252 L 214.036364 252 L 214.036364 247.905239 L 204.218182 247.905239 z" clip-path="url(#pa04f231fef)" style="fill:#ff7f0e;opacity:.4"/></g><g id="patch_40"><path d="M 216.490909 252 L 226.309091 252 L 226.309091 249.133667 L 216.490909 249.133667 z" clip-path="url(#pa04f231fef)" style="fill:#ff7f0e;opacity:.4"/></g><g id="patch_41"><path d="M 228.763636 252 L 238.581818 252 L 238.581818 249.993567 L 228.763636 249.993567 z" clip-path="url(#pa04f231fef)" style="fill:#ff7f0e;opacity:.4"/></g><g id="patch_42"><path d="M 241.036364 252 L 250.854545 252 L 250.854545 250.595497 L 241.036364 250.595497 z" clip-path="url(#pa04f231fef)" style="fill:#ff7f0e;opacity:.4"/></g><g id="patch_43"><path d="M 253.309091 252 L 263.127273 252 L 263.127273 251.016848 L 253.309091 251.016848 z" clip-path="url(#pa04f231fef)" style="fill:#ff7f0e;opacity:.4"/></g><g id="patch_44"><path d="M 265.581818 252 L 275.4 252 L 275.4 251.311793 L 265.581818 251.311793 z" clip-path="url(#pa04f231fef)" style="fill:#ff7f0e;opacity:.4"/></g><g id="patch_45"><path d="M 277.854545 252 L 287.672727 252 L 287.672727 251.518255 L 277.854545 251.518255 z" clip-path="url(#pa04f231fef)" style="fill:#ff7f0e;opacity:.4"/></g><g id="patch_46"><path d="M 290.127273 252 L 299.945455 252 L 299.945455 251.662779 L 290.127273 251.662779 z" clip-path="url(#pa04f231fef)" style="fill:#ff7f0e;opacity:.4"/></g><g id="patch_47"><path d="M 302.4 252 L 312.218182 252 L 312.218182 251.763945 L 302.4 251.763945 z" clip-path="url(#pa04f231fef)" style="fill:#ff7f0e;opacity:.4"/></g><g id="patch_48"><path d="M 314.672727 252 L 324.490909 252 L 324.490909 251.834762 L 314.672727 251.834762 z" clip-path="url(#pa04f231fef)" style="fill:#ff7f0e;opacity:.4"/></g><g id="patch_49"><path d="M 326.945455 252 L 336.763636 252 L 336.763636 251.884333 L 326.945455 251.884333 z" clip-path="url(#pa04f231fef)" style="fill:#ff7f0e;opacity:.4"/></g><g id="patch_50"><path d="M 339.218182 252 L 349.036364 252 L 349.036364 251.919033 L 339.218182 251.919033 z" clip-path="url(#pa04f231fef)" style="fill:#ff7f0e;opacity:.4"/></g><g id="patch_51"><path d="M 351.490909 252 L 361.309091 252 L 361.309091 251.943323 L 351.490909 251.943323 z" clip-path="url(#pa04f231fef)" style="fill:#ff7f0e;opacity:.4"/></g><g id="patch_52"><path d="M 363.763636 252 L 373.581818 252 L 373.581818 251.960326 L 363.763636 251.960326 z" clip-path="url(#pa04f231fef)" style="fill:#ff7f0e;opacity:.4"/></g><g id="matplotlib.axis_1"><g id="xtick_1"><g id="line2d_1"><defs><path id="mf830a13a98" d="M 0 0 L 0 3.5" style="stroke:#000;stroke-width:.8"/></defs><g><use style="stroke:#000;stroke-width:.8" x="74.127" y="252" xlink:href="#mf830a13a98"/></g></g><g id="text_1"><defs><path id="DejaVuSans-48" d="M 31.78125 66.40625 Q 24.171875 66.40625 20.328125 58.90625 Q 16.5 51.421875 16.5 36.375 Q 16.5 21.390625 20.328125 13.890625 Q 24.171875 6.390625 31.78125 6.390625 Q 39.453125 6.390625 43.28125 13.890625 Q 47.125 21.390625 47.125 36.375 Q 47.125 51.421875 43.28125 58.90625 Q 39.453125 66.40625 31.78125 66.40625 z M 31.78125 74.21875 Q 44.046875 74.21875 50.515625 64.515625 Q 56.984375 54.828125 56.984375 36.375 Q 56.984375 17.96875 50.515625 8.265625 Q 44.046875 -1.421875 31.78125 -1.421875 Q 19.53125 -1.421875 13.0625 8.265625 Q 6.59375 17.96875 6.59375 36.375 Q 6.59375 54.828125 13.0625 64.515625 Q 19.53125 74.21875 31.78125 74.21875 z"/></defs><g transform="translate(70.946023 266.598437)scale(0.1 -0.1)"><use xlink:href="#DejaVuSans-48"/></g></g></g><g id="xtick_2"><g id="line2d_2"><g><use style="stroke:#000;stroke-width:.8" x="135.491" y="252" xlink:href="#mf830a13a98"/></g></g><g id="text_2"><defs><path id="DejaVuSans-53" d="M 10.796875 72.90625 L 49.515625 72.90625 L 49.515625 64.59375 L 19.828125 64.59375 L 19.828125 46.734375 Q 21.96875 47.46875 24.109375 47.828125 Q 26.265625 48.1875 28.421875 48.1875 Q 40.625 48.1875 47.75 41.5 Q 54.890625 34.8125 54.890625 23.390625 Q 54.890625 11.625 47.5625 5.09375 Q 40.234375 -1.421875 26.90625 -1.421875 Q 22.3125 -1.421875 17.546875 -0.640625 Q 12.796875 0.140625 7.71875 1.703125 L 7.71875 11.625 Q 12.109375 9.234375 16.796875 8.0625 Q 21.484375 6.890625 26.703125 6.890625 Q 35.15625 6.890625 40.078125 11.328125 Q 45.015625 15.765625 45.015625 23.390625 Q 45.015625 31 40.078125 35.4375 Q 35.15625 39.890625 26.703125 39.890625 Q 22.75 39.890625 18.8125 39.015625 Q 14.890625 38.140625 10.796875 36.28125 z"/></defs><g transform="translate(132.309659 266.598437)scale(0.1 -0.1)"><use xlink:href="#DejaVuSans-53"/></g></g></g><g id="xtick_3"><g id="line2d_3"><g><use style="stroke:#000;stroke-width:.8" x="196.855" y="252" xlink:href="#mf830a13a98"/></g></g><g id="text_3"><defs><path id="DejaVuSans-49" d="M 12.40625 8.296875 L 28.515625 8.296875 L 28.515625 63.921875 L 10.984375 60.40625 L 10.984375 69.390625 L 28.421875 72.90625 L 38.28125 72.90625 L 38.28125 8.296875 L 54.390625 8.296875 L 54.390625 0 L 12.40625 0 z"/></defs><g transform="translate(190.492045 266.598437)scale(0.1 -0.1)"><use xlink:href="#DejaVuSans-49"/><use x="63.623" xlink:href="#DejaVuSans-48"/></g></g></g><g id="xtick_4"><g id="line2d_4"><g><use style="stroke:#000;stroke-width:.8" x="258.218" y="252" xlink:href="#mf830a13a98"/></g></g><g id="text_4"><g transform="translate(251.855682 266.598437)scale(0.1 -0.1)"><use xlink:href="#DejaVuSans-49"/><use x="63.623" xlink:href="#DejaVuSans-53"/></g></g></g><g id="xtick_5"><g id="line2d_5"><g><use style="stroke:#000;stroke-width:.8" x="319.582" y="252" xlink:href="#mf830a13a98"/></g></g><g id="text_5"><defs><path id="DejaVuSans-50" d="M 19.1875 8.296875 L 53.609375 8.296875 L 53.609375 0 L 7.328125 0 L 7.328125 8.296875 Q 12.9375 14.109375 22.625 23.890625 Q 32.328125 33.6875 34.8125 36.53125 Q 39.546875 41.84375 41.421875 45.53125 Q 43.3125 49.21875 43.3125 52.78125 Q 43.3125 58.59375 39.234375 62.25 Q 35.15625 65.921875 28.609375 65.921875 Q 23.96875 65.921875 18.8125 64.3125 Q 13.671875 62.703125 7.8125 59.421875 L 7.8125 69.390625 Q 13.765625 71.78125 18.9375 73 Q 24.125 74.21875 28.421875 74.21875 Q 39.75 74.21875 46.484375 68.546875 Q 53.21875 62.890625 53.21875 53.421875 Q 53.21875 48.921875 51.53125 44.890625 Q 49.859375 40.875 45.40625 35.40625 Q 44.1875 33.984375 37.640625 27.21875 Q 31.109375 20.453125 19.1875 8.296875 z"/></defs><g transform="translate(313.219318 266.598437)scale(0.1 -0.1)"><use xlink:href="#DejaVuSans-50"/><use x="63.623" xlink:href="#DejaVuSans-48"/></g></g></g><g id="xtick_6"><g id="line2d_6"><g><use style="stroke:#000;stroke-width:.8" x="380.945" y="252" xlink:href="#mf830a13a98"/></g></g><g id="text_6"><g transform="translate(374.582955 266.598437)scale(0.1 -0.1)"><use xlink:href="#DejaVuSans-50"/><use x="63.623" xlink:href="#DejaVuSans-53"/></g></g></g><g id="text_7"><defs><path id="DejaVuSans-80" d="M 19.671875 64.796875 L 19.671875 37.40625 L 32.078125 37.40625 Q 38.96875 37.40625 42.71875 40.96875 Q 46.484375 44.53125 46.484375 51.125 Q 46.484375 57.671875 42.71875 61.234375 Q 38.96875 64.796875 32.078125 64.796875 z M 9.8125 72.90625 L 32.078125 72.90625 Q 44.34375 72.90625 50.609375 67.359375 Q 56.890625 61.8125 56.890625 51.125 Q 56.890625 40.328125 50.609375 34.8125 Q 44.34375 29.296875 32.078125 29.296875 L 19.671875 29.296875 L 19.671875 0 L 9.8125 0 z"/><path id="DejaVuSans-97" d="M 34.28125 27.484375 Q 23.390625 27.484375 19.1875 25 Q 14.984375 22.515625 14.984375 16.5 Q 14.984375 11.71875 18.140625 8.90625 Q 21.296875 6.109375 26.703125 6.109375 Q 34.1875 6.109375 38.703125 11.40625 Q 43.21875 16.703125 43.21875 25.484375 L 43.21875 27.484375 z M 52.203125 31.203125 L 52.203125 0 L 43.21875 0 L 43.21875 8.296875 Q 40.140625 3.328125 35.546875 0.953125 Q 30.953125 -1.421875 24.3125 -1.421875 Q 15.921875 -1.421875 10.953125 3.296875 Q 6 8.015625 6 15.921875 Q 6 25.140625 12.171875 29.828125 Q 18.359375 34.515625 30.609375 34.515625 L 43.21875 34.515625 L 43.21875 35.40625 Q 43.21875 41.609375 39.140625 45 Q 35.0625 48.390625 27.6875 48.390625 Q 23 48.390625 18.546875 47.265625 Q 14.109375 46.140625 10.015625 43.890625 L 10.015625 52.203125 Q 14.9375 54.109375 19.578125 55.046875 Q 24.21875 56 28.609375 56 Q 40.484375 56 46.34375 49.84375 Q 52.203125 43.703125 52.203125 31.203125 z"/><path id="DejaVuSans-114" d="M 41.109375 46.296875 Q 39.59375 47.171875 37.8125 47.578125 Q 36.03125 48 33.890625 48 Q 26.265625 48 22.1875 43.046875 Q 18.109375 38.09375 18.109375 28.8125 L 18.109375 0 L 9.078125 0 L 9.078125 54.6875 L 18.109375 54.6875 L 18.109375 46.1875 Q 20.953125 51.171875 25.484375 53.578125 Q 30.03125 56 36.53125 56 Q 37.453125 56 38.578125 55.875 Q 39.703125 55.765625 41.0625 55.515625 z"/><path id="DejaVuSans-101" d="M 56.203125 29.59375 L 56.203125 25.203125 L 14.890625 25.203125 Q 15.484375 15.921875 20.484375 11.0625 Q 25.484375 6.203125 34.421875 6.203125 Q 39.59375 6.203125 44.453125 7.46875 Q 49.3125 8.734375 54.109375 11.28125 L 54.109375 2.78125 Q 49.265625 0.734375 44.1875 -0.34375 Q 39.109375 -1.421875 33.890625 -1.421875 Q 20.796875 -1.421875 13.15625 6.1875 Q 5.515625 13.8125 5.515625 26.8125 Q 5.515625 40.234375 12.765625 48.109375 Q 20.015625 56 32.328125 56 Q 43.359375 56 49.78125 48.890625 Q 56.203125 41.796875 56.203125 29.59375 z M 47.21875 32.234375 Q 47.125 39.59375 43.09375 43.984375 Q 39.0625 48.390625 32.421875 48.390625 Q 24.90625 48.390625 20.390625 44.140625 Q 15.875 39.890625 15.1875 32.171875 z"/><path id="DejaVuSans-110" d="M 54.890625 33.015625 L 54.890625 0 L 45.90625 0 L 45.90625 32.71875 Q 45.90625 40.484375 42.875 44.328125 Q 39.84375 48.1875 33.796875 48.1875 Q 26.515625 48.1875 22.3125 43.546875 Q 18.109375 38.921875 18.109375 30.90625 L 18.109375 0 L 9.078125 0 L 9.078125 54.6875 L 18.109375 54.6875 L 18.109375 46.1875 Q 21.34375 51.125 25.703125 53.5625 Q 30.078125 56 35.796875 56 Q 45.21875 56 50.046875 50.171875 Q 54.890625 44.34375 54.890625 33.015625 z"/><path id="DejaVuSans-116" d="M 18.3125 70.21875 L 18.3125 54.6875 L 36.8125 54.6875 L 36.8125 47.703125 L 18.3125 47.703125 L 18.3125 18.015625 Q 18.3125 11.328125 20.140625 9.421875 Q 21.96875 7.515625 27.59375 7.515625 L 36.8125 7.515625 L 36.8125 0 L 27.59375 0 Q 17.1875 0 13.234375 3.875 Q 9.28125 7.765625 9.28125 18.015625 L 9.28125 47.703125 L 2.6875 47.703125 L 2.6875 54.6875 L 9.28125 54.6875 L 9.28125 70.21875 z"/><path id="DejaVuSans-32"/><path id="DejaVuSans-102" d="M 37.109375 75.984375 L 37.109375 68.5 L 28.515625 68.5 Q 23.6875 68.5 21.796875 66.546875 Q 19.921875 64.59375 19.921875 59.515625 L 19.921875 54.6875 L 34.71875 54.6875 L 34.71875 47.703125 L 19.921875 47.703125 L 19.921875 0 L 10.890625 0 L 10.890625 47.703125 L 2.296875 47.703125 L 2.296875 54.6875 L 10.890625 54.6875 L 10.890625 58.5 Q 10.890625 67.625 15.140625 71.796875 Q 19.390625 75.984375 28.609375 75.984375 z"/><path id="DejaVuSans-105" d="M 9.421875 54.6875 L 18.40625 54.6875 L 18.40625 0 L 9.421875 0 z M 9.421875 75.984375 L 18.40625 75.984375 L 18.40625 64.59375 L 9.421875 64.59375 z"/><path id="DejaVuSans-115" d="M 44.28125 53.078125 L 44.28125 44.578125 Q 40.484375 46.53125 36.375 47.5 Q 32.28125 48.484375 27.875 48.484375 Q 21.1875 48.484375 17.84375 46.4375 Q 14.5 44.390625 14.5 40.28125 Q 14.5 37.15625 16.890625 35.375 Q 19.28125 33.59375 26.515625 31.984375 L 29.59375 31.296875 Q 39.15625 29.25 43.1875 25.515625 Q 47.21875 21.78125 47.21875 15.09375 Q 47.21875 7.46875 41.1875 3.015625 Q 35.15625 -1.421875 24.609375 -1.421875 Q 20.21875 -1.421875 15.453125 -0.5625 Q 10.6875 0.296875 5.421875 2 L 5.421875 11.28125 Q 10.40625 8.6875 15.234375 7.390625 Q 20.0625 6.109375 24.8125 6.109375 Q 31.15625 6.109375 34.5625 8.28125 Q 37.984375 10.453125 37.984375 14.40625 Q 37.984375 18.0625 35.515625 20.015625 Q 33.0625 21.96875 24.703125 23.78125 L 21.578125 24.515625 Q 13.234375 26.265625 9.515625 29.90625 Q 5.8125 33.546875 5.8125 39.890625 Q 5.8125 47.609375 11.28125 51.796875 Q 16.75 56 26.8125 56 Q 31.78125 56 36.171875 55.265625 Q 40.578125 54.546875 44.28125 53.078125 z"/><path id="DejaVuSans-107" d="M 9.078125 75.984375 L 18.109375 75.984375 L 18.109375 31.109375 L 44.921875 54.6875 L 56.390625 54.6875 L 27.390625 29.109375 L 57.625 0 L 45.90625 0 L 18.109375 26.703125 L 18.109375 0 L 9.078125 0 z"/><path id="DejaVuSans-103" d="M 45.40625 27.984375 Q 45.40625 37.75 41.375 43.109375 Q 37.359375 48.484375 30.078125 48.484375 Q 22.859375 48.484375 18.828125 43.109375 Q 14.796875 37.75 14.796875 27.984375 Q 14.796875 18.265625 18.828125 12.890625 Q 22.859375 7.515625 30.078125 7.515625 Q 37.359375 7.515625 41.375 12.890625 Q 45.40625 18.265625 45.40625 27.984375 z M 54.390625 6.78125 Q 54.390625 -7.171875 48.1875 -13.984375 Q 42 -20.796875 29.203125 -20.796875 Q 24.46875 -20.796875 20.265625 -20.09375 Q 16.0625 -19.390625 12.109375 -17.921875 L 12.109375 -9.1875 Q 16.0625 -11.328125 19.921875 -12.34375 Q 23.78125 -13.375 27.78125 -13.375 Q 36.625 -13.375 41.015625 -8.765625 Q 45.40625 -4.15625 45.40625 5.171875 L 45.40625 9.625 Q 42.625 4.78125 38.28125 2.390625 Q 33.9375 0 27.875 0 Q 17.828125 0 11.671875 7.65625 Q 5.515625 15.328125 5.515625 27.984375 Q 5.515625 40.671875 11.671875 48.328125 Q 17.828125 56 27.875 56 Q 33.9375 56 38.28125 53.609375 Q 42.625 51.21875 45.40625 46.390625 L 45.40625 54.6875 L 54.390625 54.6875 z"/></defs><g transform="translate(166.407031 280.276563)scale(0.1 -0.1)"><use xlink:href="#DejaVuSans-80"/><use x="60.24" xlink:href="#DejaVuSans-97"/><use x="121.52" xlink:href="#DejaVuSans-114"/><use x="162.602" xlink:href="#DejaVuSans-101"/><use x="224.125" xlink:href="#DejaVuSans-110"/><use x="287.504" xlink:href="#DejaVuSans-116"/><use x="326.713" xlink:href="#DejaVuSans-32"/><use x="358.5" xlink:href="#DejaVuSans-102"/><use x="393.705" xlink:href="#DejaVuSans-105"/><use x="421.488" xlink:href="#DejaVuSans-116"/><use x="460.697" xlink:href="#DejaVuSans-110"/><use x="524.076" xlink:href="#DejaVuSans-101"/><use x="585.6" xlink:href="#DejaVuSans-115"/><use x="637.699" xlink:href="#DejaVuSans-115"/><use x="689.799" xlink:href="#DejaVuSans-32"/><use x="721.586" xlink:href="#DejaVuSans-114"/><use x="762.699" xlink:href="#DejaVuSans-97"/><use x="823.979" xlink:href="#DejaVuSans-110"/><use x="887.357" xlink:href="#DejaVuSans-107"/><use x="945.268" xlink:href="#DejaVuSans-105"/><use x="973.051" xlink:href="#DejaVuSans-110"/><use x="1036.43" xlink:href="#DejaVuSans-103"/></g></g></g><g id="matplotlib.axis_2"><g id="ytick_1"><g id="line2d_7"><defs><path id="m44208ad7dd" d="M 0 0 L -3.5 0" style="stroke:#000;stroke-width:.8"/></defs><g><use style="stroke:#000;stroke-width:.8" x="54" y="252" xlink:href="#m44208ad7dd"/></g></g><g id="text_8"><defs><path id="DejaVuSans-46" d="M 10.6875 12.40625 L 21 12.40625 L 21 0 L 10.6875 0 z"/></defs><g transform="translate(24.734375 255.799219)scale(0.1 -0.1)"><use xlink:href="#DejaVuSans-48"/><use x="63.623" xlink:href="#DejaVuSans-46"/><use x="95.41" xlink:href="#DejaVuSans-48"/><use x="159.033" xlink:href="#DejaVuSans-48"/></g></g></g><g id="ytick_2"><g id="line2d_8"><g><use style="stroke:#000;stroke-width:.8" x="54" y="217.49" xlink:href="#m44208ad7dd"/></g></g><g id="text_9"><g transform="translate(24.734375 221.289562)scale(0.1 -0.1)"><use xlink:href="#DejaVuSans-48"/><use x="63.623" xlink:href="#DejaVuSans-46"/><use x="95.41" xlink:href="#DejaVuSans-48"/><use x="159.033" xlink:href="#DejaVuSans-53"/></g></g></g><g id="ytick_3"><g id="line2d_9"><g><use style="stroke:#000;stroke-width:.8" x="54" y="182.981" xlink:href="#m44208ad7dd"/></g></g><g id="text_10"><g transform="translate(24.734375 186.779905)scale(0.1 -0.1)"><use xlink:href="#DejaVuSans-48"/><use x="63.623" xlink:href="#DejaVuSans-46"/><use x="95.41" xlink:href="#DejaVuSans-49"/><use x="159.033" xlink:href="#DejaVuSans-48"/></g></g></g><g id="ytick_4"><g id="line2d_10"><g><use style="stroke:#000;stroke-width:.8" x="54" y="148.471" xlink:href="#m44208ad7dd"/></g></g><g id="text_11"><g transform="translate(24.734375 152.270247)scale(0.1 -0.1)"><use xlink:href="#DejaVuSans-48"/><use x="63.623" xlink:href="#DejaVuSans-46"/><use x="95.41" xlink:href="#DejaVuSans-49"/><use x="159.033" xlink:href="#DejaVuSans-53"/></g></g></g><g id="ytick_5"><g id="line2d_11"><g><use style="stroke:#000;stroke-width:.8" x="54" y="113.961" xlink:href="#m44208ad7dd"/></g></g><g id="text_12"><g transform="translate(24.734375 117.76059)scale(0.1 -0.1)"><use xlink:href="#DejaVuSans-48"/><use x="63.623" xlink:href="#DejaVuSans-46"/><use x="95.41" xlink:href="#DejaVuSans-50"/><use x="159.033" xlink:href="#DejaVuSans-48"/></g></g></g><g id="ytick_6"><g id="line2d_12"><g><use style="stroke:#000;stroke-width:.8" x="54" y="79.452" xlink:href="#m44208ad7dd"/></g></g><g id="text_13"><g transform="translate(24.734375 83.250933)scale(0.1 -0.1)"><use xlink:href="#DejaVuSans-48"/><use x="63.623" xlink:href="#DejaVuSans-46"/><use x="95.41" xlink:href="#DejaVuSans-50"/><use x="159.033" xlink:href="#DejaVuSans-53"/></g></g></g><g id="ytick_7"><g id="line2d_13"><g><use style="stroke:#000;stroke-width:.8" x="54" y="44.942" xlink:href="#m44208ad7dd"/></g></g><g id="text_14"><defs><path id="DejaVuSans-51" d="M 40.578125 39.3125 Q 47.65625 37.796875 51.625 33 Q 55.609375 28.21875 55.609375 21.1875 Q 55.609375 10.40625 48.1875 4.484375 Q 40.765625 -1.421875 27.09375 -1.421875 Q 22.515625 -1.421875 17.65625 -0.515625 Q 12.796875 0.390625 7.625 2.203125 L 7.625 11.71875 Q 11.71875 9.328125 16.59375 8.109375 Q 21.484375 6.890625 26.8125 6.890625 Q 36.078125 6.890625 40.9375 10.546875 Q 45.796875 14.203125 45.796875 21.1875 Q 45.796875 27.640625 41.28125 31.265625 Q 36.765625 34.90625 28.71875 34.90625 L 20.21875 34.90625 L 20.21875 43.015625 L 29.109375 43.015625 Q 36.375 43.015625 40.234375 45.921875 Q 44.09375 48.828125 44.09375 54.296875 Q 44.09375 59.90625 40.109375 62.90625 Q 36.140625 65.921875 28.71875 65.921875 Q 24.65625 65.921875 20.015625 65.03125 Q 15.375 64.15625 9.8125 62.3125 L 9.8125 71.09375 Q 15.4375 72.65625 20.34375 73.4375 Q 25.25 74.21875 29.59375 74.21875 Q 40.828125 74.21875 47.359375 69.109375 Q 53.90625 64.015625 53.90625 55.328125 Q 53.90625 49.265625 50.4375 45.09375 Q 46.96875 40.921875 40.578125 39.3125 z"/></defs><g transform="translate(24.734375 48.741276)scale(0.1 -0.1)"><use xlink:href="#DejaVuSans-48"/><use x="63.623" xlink:href="#DejaVuSans-46"/><use x="95.41" xlink:href="#DejaVuSans-51"/><use x="159.033" xlink:href="#DejaVuSans-48"/></g></g></g><g id="text_15"><defs><path id="DejaVuSans-111" d="M 30.609375 48.390625 Q 23.390625 48.390625 19.1875 42.75 Q 14.984375 37.109375 14.984375 27.296875 Q 14.984375 17.484375 19.15625 11.84375 Q 23.34375 6.203125 30.609375 6.203125 Q 37.796875 6.203125 41.984375 11.859375 Q 46.1875 17.53125 46.1875 27.296875 Q 46.1875 37.015625 41.984375 42.703125 Q 37.796875 48.390625 30.609375 48.390625 z M 30.609375 56 Q 42.328125 56 49.015625 48.375 Q 55.71875 40.765625 55.71875 27.296875 Q 55.71875 13.875 49.015625 6.21875 Q 42.328125 -1.421875 30.609375 -1.421875 Q 18.84375 -1.421875 12.171875 6.21875 Q 5.515625 13.875 5.515625 27.296875 Q 5.515625 40.765625 12.171875 48.375 Q 18.84375 56 30.609375 56 z"/><path id="DejaVuSans-98" d="M 48.6875 27.296875 Q 48.6875 37.203125 44.609375 42.84375 Q 40.53125 48.484375 33.40625 48.484375 Q 26.265625 48.484375 22.1875 42.84375 Q 18.109375 37.203125 18.109375 27.296875 Q 18.109375 17.390625 22.1875 11.75 Q 26.265625 6.109375 33.40625 6.109375 Q 40.53125 6.109375 44.609375 11.75 Q 48.6875 17.390625 48.6875 27.296875 z M 18.109375 46.390625 Q 20.953125 51.265625 25.265625 53.625 Q 29.59375 56 35.59375 56 Q 45.5625 56 51.78125 48.09375 Q 58.015625 40.1875 58.015625 27.296875 Q 58.015625 14.40625 51.78125 6.484375 Q 45.5625 -1.421875 35.59375 -1.421875 Q 29.59375 -1.421875 25.265625 0.953125 Q 20.953125 3.328125 18.109375 8.203125 L 18.109375 0 L 9.078125 0 L 9.078125 75.984375 L 18.109375 75.984375 z"/><path id="DejaVuSans-108" d="M 9.421875 75.984375 L 18.40625 75.984375 L 18.40625 0 L 9.421875 0 z"/><path id="DejaVuSans-121" d="M 32.171875 -5.078125 Q 28.375 -14.84375 24.75 -17.8125 Q 21.140625 -20.796875 15.09375 -20.796875 L 7.90625 -20.796875 L 7.90625 -13.28125 L 13.1875 -13.28125 Q 16.890625 -13.28125 18.9375 -11.515625 Q 21 -9.765625 23.484375 -3.21875 L 25.09375 0.875 L 2.984375 54.6875 L 12.5 54.6875 L 29.59375 11.921875 L 46.6875 54.6875 L 56.203125 54.6875 z"/></defs><g transform="translate(18.654687 169.906563)rotate(-90)scale(0.1 -0.1)"><use xlink:href="#DejaVuSans-80"/><use x="60.287" xlink:href="#DejaVuSans-114"/><use x="101.369" xlink:href="#DejaVuSans-111"/><use x="162.551" xlink:href="#DejaVuSans-98"/><use x="226.027" xlink:href="#DejaVuSans-97"/><use x="287.307" xlink:href="#DejaVuSans-98"/><use x="350.783" xlink:href="#DejaVuSans-105"/><use x="378.566" xlink:href="#DejaVuSans-108"/><use x="406.35" xlink:href="#DejaVuSans-105"/><use x="434.133" xlink:href="#DejaVuSans-116"/><use x="473.342" xlink:href="#DejaVuSans-121"/></g></g></g><g id="patch_53"><path d="M 54 252 L 54 34.56" style="fill:none;stroke:#000;stroke-linecap:square;stroke-linejoin:miter;stroke-width:.8"/></g><g id="patch_54"><path d="M 54 252 L 388.8 252" style="fill:none;stroke:#000;stroke-linecap:square;stroke-linejoin:miter;stroke-width:.8"/></g><g id="text_16"><defs><path id="DejaVuSans-83" d="M 53.515625 70.515625 L 53.515625 60.890625 Q 47.90625 63.578125 42.921875 64.890625 Q 37.9375 66.21875 33.296875 66.21875 Q 25.25 66.21875 20.875 63.09375 Q 16.5 59.96875 16.5 54.203125 Q 16.5 49.359375 19.40625 46.890625 Q 22.3125 44.4375 30.421875 42.921875 L 36.375 41.703125 Q 47.40625 39.59375 52.65625 34.296875 Q 57.90625 29 57.90625 20.125 Q 57.90625 9.515625 50.796875 4.046875 Q 43.703125 -1.421875 29.984375 -1.421875 Q 24.8125 -1.421875 18.96875 -0.25 Q 13.140625 0.921875 6.890625 3.21875 L 6.890625 13.375 Q 12.890625 10.015625 18.65625 8.296875 Q 24.421875 6.59375 29.984375 6.59375 Q 38.421875 6.59375 43.015625 9.90625 Q 47.609375 13.234375 47.609375 19.390625 Q 47.609375 24.75 44.3125 27.78125 Q 41.015625 30.8125 33.5 32.328125 L 27.484375 33.5 Q 16.453125 35.6875 11.515625 40.375 Q 6.59375 45.0625 6.59375 53.421875 Q 6.59375 63.09375 13.40625 68.65625 Q 20.21875 74.21875 32.171875 74.21875 Q 37.3125 74.21875 42.625 73.28125 Q 47.953125 72.359375 53.515625 70.515625 z"/><path id="DejaVuSans-99" d="M 48.78125 52.59375 L 48.78125 44.1875 Q 44.96875 46.296875 41.140625 47.34375 Q 37.3125 48.390625 33.40625 48.390625 Q 24.65625 48.390625 19.8125 42.84375 Q 14.984375 37.3125 14.984375 27.296875 Q 14.984375 17.28125 19.8125 11.734375 Q 24.65625 6.203125 33.40625 6.203125 Q 37.3125 6.203125 41.140625 7.25 Q 44.96875 8.296875 48.78125 10.40625 L 48.78125 2.09375 Q 45.015625 0.34375 40.984375 -0.53125 Q 36.96875 -1.421875 32.421875 -1.421875 Q 20.0625 -1.421875 12.78125 6.34375 Q 5.515625 14.109375 5.515625 27.296875 Q 5.515625 40.671875 12.859375 48.328125 Q 20.21875 56 33.015625 56 Q 37.15625 56 41.109375 55.140625 Q 45.0625 54.296875 48.78125 52.59375 z"/><path id="DejaVuSans-112" d="M 18.109375 8.203125 L 18.109375 -20.796875 L 9.078125 -20.796875 L 9.078125 54.6875 L 18.109375 54.6875 L 18.109375 46.390625 Q 20.953125 51.265625 25.265625 53.625 Q 29.59375 56 35.59375 56 Q 45.5625 56 51.78125 48.09375 Q 58.015625 40.1875 58.015625 27.296875 Q 58.015625 14.40625 51.78125 6.484375 Q 45.5625 -1.421875 35.59375 -1.421875 Q 29.59375 -1.421875 25.265625 0.953125 Q 20.953125 3.328125 18.109375 8.203125 z M 48.6875 27.296875 Q 48.6875 37.203125 44.609375 42.84375 Q 40.53125 48.484375 33.40625 48.484375 Q 26.265625 48.484375 22.1875 42.84375 Q 18.109375 37.203125 18.109375 27.296875 Q 18.109375 17.390625 22.1875 11.75 Q 26.265625 6.109375 33.40625 6.109375 Q 40.53125 6.109375 44.609375 11.75 Q 48.6875 17.390625 48.6875 27.296875 z"/><path id="DejaVuSans-100" d="M 45.40625 46.390625 L 45.40625 75.984375 L 54.390625 75.984375 L 54.390625 0 L 45.40625 0 L 45.40625 8.203125 Q 42.578125 3.328125 38.25 0.953125 Q 33.9375 -1.421875 27.875 -1.421875 Q 17.96875 -1.421875 11.734375 6.484375 Q 5.515625 14.40625 5.515625 27.296875 Q 5.515625 40.1875 11.734375 48.09375 Q 17.96875 56 27.875 56 Q 33.9375 56 38.25 53.625 Q 42.578125 51.265625 45.40625 46.390625 z M 14.796875 27.296875 Q 14.796875 17.390625 18.875 11.75 Q 22.953125 6.109375 30.078125 6.109375 Q 37.203125 6.109375 41.296875 11.75 Q 45.40625 17.390625 45.40625 27.296875 Q 45.40625 37.203125 41.296875 42.84375 Q 37.203125 48.484375 30.078125 48.484375 Q 22.953125 48.484375 18.875 42.84375 Q 14.796875 37.203125 14.796875 27.296875 z"/><path id="DejaVuSans-117" d="M 8.5 21.578125 L 8.5 54.6875 L 17.484375 54.6875 L 17.484375 21.921875 Q 17.484375 14.15625 20.5 10.265625 Q 23.53125 6.390625 29.59375 6.390625 Q 36.859375 6.390625 41.078125 11.03125 Q 45.3125 15.671875 45.3125 23.6875 L 45.3125 54.6875 L 54.296875 54.6875 L 54.296875 0 L 45.3125 0 L 45.3125 8.40625 Q 42.046875 3.421875 37.71875 1 Q 33.40625 -1.421875 27.6875 -1.421875 Q 18.265625 -1.421875 13.375 4.4375 Q 8.5 10.296875 8.5 21.578125 z M 31.109375 56 z"/></defs><g transform="translate(102.09 28.56)scale(0.12 -0.12)"><use xlink:href="#DejaVuSans-80"/><use x="60.24" xlink:href="#DejaVuSans-97"/><use x="121.52" xlink:href="#DejaVuSans-114"/><use x="162.602" xlink:href="#DejaVuSans-101"/><use x="224.125" xlink:href="#DejaVuSans-110"/><use x="287.504" xlink:href="#DejaVuSans-116"/><use x="326.713" xlink:href="#DejaVuSans-32"/><use x="358.5" xlink:href="#DejaVuSans-83"/><use x="421.977" xlink:href="#DejaVuSans-101"/><use x="483.5" xlink:href="#DejaVuSans-108"/><use x="511.283" xlink:href="#DejaVuSans-101"/><use x="572.807" xlink:href="#DejaVuSans-99"/><use x="627.787" xlink:href="#DejaVuSans-116"/><use x="666.996" xlink:href="#DejaVuSans-105"/><use x="694.779" xlink:href="#DejaVuSans-111"/><use x="755.961" xlink:href="#DejaVuSans-110"/><use x="819.34" xlink:href="#DejaVuSans-32"/><use x="851.127" xlink:href="#DejaVuSans-112"/><use x="914.604" xlink:href="#DejaVuSans-114"/><use x="955.686" xlink:href="#DejaVuSans-111"/><use x="1016.867" xlink:href="#DejaVuSans-98"/><use x="1080.344" xlink:href="#DejaVuSans-97"/><use x="1141.623" xlink:href="#DejaVuSans-98"/><use x="1205.1" xlink:href="#DejaVuSans-105"/><use x="1232.883" xlink:href="#DejaVuSans-108"/><use x="1260.666" xlink:href="#DejaVuSans-105"/><use x="1288.449" xlink:href="#DejaVuSans-116"/><use x="1327.658" xlink:href="#DejaVuSans-121"/><use x="1386.838" xlink:href="#DejaVuSans-32"/><use x="1418.625" xlink:href="#DejaVuSans-100"/><use x="1482.102" xlink:href="#DejaVuSans-105"/><use x="1509.885" xlink:href="#DejaVuSans-115"/><use x="1561.984" xlink:href="#DejaVuSans-116"/><use x="1601.193" xlink:href="#DejaVuSans-114"/><use x="1642.307" xlink:href="#DejaVuSans-105"/><use x="1670.09" xlink:href="#DejaVuSans-98"/><use x="1733.566" xlink:href="#DejaVuSans-117"/><use x="1796.945" xlink:href="#DejaVuSans-116"/><use x="1836.154" xlink:href="#DejaVuSans-105"/><use x="1863.938" xlink:href="#DejaVuSans-111"/><use x="1925.119" xlink:href="#DejaVuSans-110"/></g></g><g id="legend_1"><g id="patch_55"><path d="M 290.6625 71.91625 L 381.8 71.91625 Q 383.8 71.91625 383.8 69.91625 L 383.8 41.56 Q 383.8 39.56 381.8 39.56 L 290.6625 39.56 Q 288.6625 39.56 288.6625 41.56 L 288.6625 69.91625 Q 288.6625 71.91625 290.6625 71.91625 z" style="fill:#fff;opacity:.8;stroke:#ccc;stroke-linejoin:miter"/></g><g id="patch_56"><path d="M 292.6625 51.158437 L 312.6625 51.158437 L 312.6625 44.158437 L 292.6625 44.158437 z" style="fill:#1f77b4;opacity:.7"/></g><g id="text_17"><defs><path id="DejaVuSans-76" d="M 9.8125 72.90625 L 19.671875 72.90625 L 19.671875 8.296875 L 55.171875 8.296875 L 55.171875 0 L 9.8125 0 z"/></defs><g transform="translate(320.6625 51.158437)scale(0.1 -0.1)"><use xlink:href="#DejaVuSans-76"/><use x="55.713" xlink:href="#DejaVuSans-105"/><use x="83.496" xlink:href="#DejaVuSans-110"/><use x="146.875" xlink:href="#DejaVuSans-101"/><use x="208.398" xlink:href="#DejaVuSans-97"/><use x="269.678" xlink:href="#DejaVuSans-114"/></g></g><g id="patch_57"><path d="M 292.6625 65.836562 L 312.6625 65.836562 L 312.6625 58.836562 L 292.6625 58.836562 z" style="fill:#ff7f0e;opacity:.4"/></g><g id="text_18"><defs><path id="DejaVuSans-69" d="M 9.8125 72.90625 L 55.90625 72.90625 L 55.90625 64.59375 L 19.671875 64.59375 L 19.671875 43.015625 L 54.390625 43.015625 L 54.390625 34.71875 L 19.671875 34.71875 L 19.671875 8.296875 L 56.78125 8.296875 L 56.78125 0 L 9.8125 0 z"/><path id="DejaVuSans-120" d="M 54.890625 54.6875 L 35.109375 28.078125 L 55.90625 0 L 45.3125 0 L 29.390625 21.484375 L 13.484375 0 L 2.875 0 L 24.125 28.609375 L 4.6875 54.6875 L 15.28125 54.6875 L 29.78125 35.203125 L 44.28125 54.6875 z"/></defs><g transform="translate(320.6625 65.836562)scale(0.1 -0.1)"><use xlink:href="#DejaVuSans-69"/><use x="63.184" xlink:href="#DejaVuSans-120"/><use x="122.363" xlink:href="#DejaVuSans-112"/><use x="185.84" xlink:href="#DejaVuSans-111"/><use x="247.021" xlink:href="#DejaVuSans-110"/><use x="310.4" xlink:href="#DejaVuSans-101"/><use x="371.924" xlink:href="#DejaVuSans-110"/><use x="435.303" xlink:href="#DejaVuSans-116"/><use x="474.512" xlink:href="#DejaVuSans-105"/><use x="502.295" xlink:href="#DejaVuSans-97"/><use x="563.574" xlink:href="#DejaVuSans-108"/></g></g></g></g></g><defs><clipPath id="pa04f231fef"><rect width="334.8" height="217.44" x="54" y="34.56"/></clipPath></defs></svg>